{
.appVersion = "3134";
.formatVersion = 3;
DisplayStrings = (
"Aa Bb Cc Dd Ee Ff Gg Hh Ii Jj Kk Ll Mm Nn Oo Pp Qq Rr Ss Tt Uu Vv Ww Xx Yy Zz
1234567890
.!@&?.

For one thing, time is the very thing hat we re least willing to allow.

Build Business
Build People
Build System"
);
customParameters = (
{
name = vendorID;
value = AMMP;
},
{
name = panose;
value = (
0,
0,
4,
0,
0,
0,
0,
0,
0,
0
);
},
{
name = unicodeRanges;
value = (
0,
1,
2,
29
);
},
{
name = codePageRanges;
value = (
"1252",
"1250",
"1254",
"1257",
"1258",
"bit 29"
);
},
{
name = blueScale;
value = 0.037;
},
{
name = glyphOrder;
value = (
.notdef,
space,
A,
Aacute,
Abreve,
uni1EAE,
uni1EB6,
uni1EB0,
uni1EB2,
uni1EB4,
uni01CD,
Acircumflex,
uni1EA4,
uni1EAC,
uni1EA6,
uni1EA8,
uni1EAA,
Adieresis,
uni1EA0,
Agrave,
uni1EA2,
Amacron,
Aogonek,
Aring,
Atilde,
AE,
B,
C,
Cacute,
Ccaron,
Ccedilla,
Cdotaccent,
D,
Eth,
Dcaron,
Dcroat,
E,
Eacute,
Ecaron,
Ecircumflex,
uni1EBE,
uni1EC6,
uni1EC0,
uni1EC2,
uni1EC4,
Edieresis,
Edotaccent,
uni1EB8,
Egrave,
uni1EBA,
Emacron,
Eogonek,
uni1EBC,
F,
G,
Gbreve,
uni0122,
Gdotaccent,
H,
Hbar,
I,
Iacute,
uni01CF,
Icircumflex,
Idieresis,
Idotaccent,
uni1ECA,
Igrave,
uni1EC8,
Imacron,
Iogonek,
Itilde,
J,
K,
uni0136,
L,
Lacute,
Lcaron,
uni013B,
Lslash,
M,
N,
Nacute,
Ncaron,
uni0145,
Eng,
Ntilde,
O,
Oacute,
uni01D1,
Ocircumflex,
uni1ED0,
uni1ED8,
uni1ED2,
uni1ED4,
uni1ED6,
Odieresis,
uni1ECC,
Ograve,
uni1ECE,
Ohorn,
uni1EDA,
uni1EE2,
uni1EDC,
uni1EDE,
uni1EE0,
Ohungarumlaut,
Omacron,
Oslash,
Otilde,
OE,
P,
Thorn,
Q,
R,
Racute,
Rcaron,
uni0156,
S,
Sacute,
Scaron,
Scedilla,
uni0218,
uni1E9E,
T,
Tbar,
Tcaron,
uni0162,
uni021A,
U,
Uacute,
uni01D3,
Ucircumflex,
Udieresis,
uni01D7,
uni01D9,
uni01DB,
uni01D5,
uni1EE4,
Ugrave,
uni1EE6,
Uhorn,
uni1EE8,
uni1EF0,
uni1EEA,
uni1EEC,
uni1EEE,
Uhungarumlaut,
Umacron,
Uogonek,
Uring,
Utilde,
V,
W,
Wacute,
Wcircumflex,
Wdieresis,
Wgrave,
X,
Y,
Yacute,
Ycircumflex,
Ydieresis,
uni1EF4,
Ygrave,
uni1EF6,
uni1EF8,
Z,
Zacute,
Zcaron,
Zdotaccent,

glyphs = (
{
glyphname = .notdef;
layers = (
{
hints = (
{
horizontal = 1;
place = (0, 10);
place = (0, 10);
type = Stem;
},
{
horizontal = 1;
place = (466, 10);
place = (466, 10);
type = Stem;
},
{
place = (126, 10);
place = (126, 10);
type = Stem;
},
{
place = (530, 10);
place = (530, 10);
type = Stem;
}
);
layerId = m01;
shapes = (
{
closed = 1;
nodes = (
(126,0,l),
(540,0,l),
(540,476,l),
(126,476,l)
);
},
{
closed = 1;
nodes = (
(136,10,l),
(136,466,l),
(530,466,l),
(530,10,l)
);
}
);
width = 665;
}
);
note = ".notdef";
},
{
glyphname = A;
kernLeft = A;
kernRight = A;
lastChange = "2022-12-23 03:19:23 +0000";
layers = (
{
hints = (
{
horizontal = 1;
place = (0, 21);
target = up;
type = BottomGhost;
},
{
horizontal = 1;
place = (196, 44);
place = (196, 44);
type = Stem;
},
{
horizontal = 1;
place = (697, -20);
target = down;
type = TopGhost;
},
{
place = (44, 552);
place = (44, 552);
type = Stem;
},
{
horizontal = 1;
place = (628, 69);
place = (628, 69);
type = Stem;
}
);
layerId = m01;
shapes = (
{
closed = 1;
nodes = (
(342,697,o),
(306,697,qs),
(297,697,l),
(44,0,l),
(100,0,l),
(169,196,l),
(471,196,l),
(540,0,l),
(596,0,l),
(354,663,ls)
);
},
{
closed = 1;
nodes = (
(320,628,l),
(456,240,l),
(184,240,l)
);
}
);
width = 640;
}
);
note = A;
unicode = 65;
},
{
glyphname = Aacute;
kernLeft = A;
kernRight = A;
layers = (
{
hints = (
{
horizontal = 1;
place = (0, 21);
target = up;
type = BottomGhost;
},
{
horizontal = 1;
place = (196, 44);
place = (196, 44);
type = Stem;
},
{
horizontal = 1;
place = (697, -20);
target = down;
type = TopGhost;
},
{
horizontal = 1;
place = (761, 140);
place = (761, 140);
type = Stem;
},
{
place = (44, 552);
place = (44, 552);
type = Stem;
},
{
horizontal = 1;
place = (628, 69);
place = (628, 69);
type = Stem;
}
);
layerId = m01;
shapes = (
{
closed = 1;
nodes = (
(460,901,l),
(407,901,l),
(300,761,l),
(340,761,l)
);
},
{
closed = 1;
nodes = (
(540,0,l),
(596,0,l),
(342,697,l),
(297,697,l),
(44,0,l),
(100,0,l),
(169,196,l),
(471,196,l)
);
},
{
closed = 1;
nodes = (
(184,240,l),
(320,628,l),
(456,240,l)
);
}
);
width = 640;
}
);
note = Aacute;
unicode = 193;
},
{
glyphname = Abreve;
kernLeft = A;
kernRight = A;
layers = (
{
hints = (
{
horizontal = 1;
place = (0, 21);
target = up;
type = BottomGhost;
},
{
horizontal = 1;
place = (196, 44);
place = (196, 44);
type = Stem;
},
{
horizontal = 1;
place = (697, -20);
target = down;
type = TopGhost;
},
{
horizontal = 1;
place = (771, 31);
place = (771, 31);
type = Stem;
},
{
place = (171, 37);
place = (171, 37);
type = Stem;
},
{
place = (433, 36);
place = (433, 36);
type = Stem;
},
{
horizontal = 1;
place = (628, 69);
place = (628, 69);
type = Stem;
}
);
layerId = m01;
shapes = (
{
closed = 1;
nodes = (
(416,771,o),
(469,815,o),
(469,901,c),
(433,901,l),
(433,837,o),
(392,802,o),
(320,802,cs),
(250,802,o),
(208,836,o),
(208,901,c),
(171,901,l),
(171,817,o),
(222,771,o),
(320,771,cs)
);
},
{
closed = 1;
nodes = (
(540,0,l),
(596,0,l),
(342,697,l),
(297,697,l),
(44,0,l),
(100,0,l),
(169,196,l),
(471,196,l)
);
},
{
closed = 1;
nodes = (
(184,240,l),
(320,628,l),
(456,240,l)
);
}
);
width = 640;
}
);
note = Abreve;
unicode = 258;
},
{
glyphname = uni1EAE;
kernLeft = A;
kernRight = A;
layers = (
{
hints = (
{
horizontal = 1;
place = (0, 21);
target = up;
type = BottomGhost;
},
{
horizontal = 1;
place = (196, 44);
place = (196, 44);
type = Stem;
},
{
horizontal = 1;
place = (697, -20);
target = down;
type = TopGhost;
},
{
horizontal = 1;
place = (771, 31);
place = (771, 31);
type = Stem;
},
{
horizontal = 1;
place = (965, 140);
place = (965, 140);
type = Stem;
},
{
place = (171, 37);
place = (171, 37);
type = Stem;
},
{
place = (433, 36);
place = (433, 36);
type = Stem;
},
{
horizontal = 1;
place = (628, 69);
place = (628, 69);
type = Stem;
}
);
layerId = m01;
shapes = (
{
closed = 1;
nodes = (
(460,1105,l),
(407,1105,l),
(300,965,l),
(340,965,l)
);
},
{
closed = 1;
nodes = (
(416,771,o),
(469,815,o),
(469,901,c),
(433,901,l),
(433,837,o),
(392,802,o),
(320,802,cs),
(250,802,o),
(208,836,o),
(208,901,c),
(171,901,l),
(171,817,o),
(222,771,o),
(320,771,cs)
);
},
{
closed = 1;
nodes = (
(540,0,l),
(596,0,l),
(342,697,l),
(297,697,l),
(44,0,l),
(100,0,l),
(169,196,l),
(471,196,l)
);
},
{
closed = 1;
nodes = (
(184,240,l),
(320,628,l),
(456,240,l)
);
}
);
width = 640;
}
);
note = uni1EAE;
unicode = 7854;
},
{
glyphname = uni1EB6;
kernLeft = A;
kernRight = A;
layers = (
{
hints = (
{
horizontal = 1;
place = (-173, 97);
place = (-173, 97);
type = Stem;
},
{
horizontal = 1;
place = (0, 21);
target = up;
type = BottomGhost;
},
{
horizontal = 1;
place = (196, 44);
place = (196, 44);
type = Stem;
},
{
horizontal = 1;
place = (697, -20);
target = down;
type = TopGhost;
},
{
horizontal = 1;
place = (771, 31);
place = (771, 31);
type = Stem;
},
{
place = (171, 37);
place = (171, 37);
type = Stem;
},
{
place = (292, 57);
place = (292, 57);
type = Stem;
},
{
place = (433, 36);
place = (433, 36);
type = Stem;
},
{
horizontal = 1;
place = (628, 69);
place = (628, 69);
type = Stem;
}
);
layerId = m01;
shapes = (
{
closed = 1;
nodes = (
(416,771,o),
(469,815,o),
(469,901,c),
(433,901,l),
(433,837,o),
(392,802,o),
(320,802,cs),
(250,802,o),
(208,836,o),
(208,901,c),
(171,901,l),
(171,817,o),
(222,771,o),
(320,771,cs)
);
},
{
closed = 1;
nodes = (
(596,0,l),
(342,697,l),
(297,697,l),
(44,0,l),
(100,0,l),
(169,196,l),
(471,196,l),
(540,0,l)
);
},
{
closed = 1;
nodes = (
(184,240,l),
(320,628,l),
(456,240,l)
);
},
{
closed = 1;
nodes = (
(292,-173,l),
(349,-173,l),
(349,-76,l),
(292,-76,l)
);
}
);
width = 640;
}
);
note = uni1EB6;
unicode = 7862;
},
{
glyphname = uni1EB0;
kernLeft = A;
kernRight = A;
layers = (
{
hints = (
{
horizontal = 1;
place = (0, 21);
target = up;
type = BottomGhost;
},
{
horizontal = 1;
place = (196, 44);
place = (196, 44);
type = Stem;
},
{
horizontal = 1;
place = (697, -20);
target = down;
type = TopGhost;
},
{
horizontal = 1;
place = (771, 31);
place = (771, 31);
type = Stem;
},
{
horizontal = 1;
place = (965, 140);
place = (965, 140);
type = Stem;
},
{
place = (171, 37);
place = (171, 37);
type = Stem;
},
{
place = (433, 36);
place = (433, 36);
type = Stem;
},
{
horizontal = 1;
place = (628, 69);
place = (628, 69);
type = Stem;
}
);
layerId = m01;
shapes = (
{
closed = 1;
nodes = (
(340,965,l),
(236,1105,l),
(183,1105,l),
(300,965,l)
);
},
{
closed = 1;
nodes = (
(416,771,o),
(469,815,o),
(469,901,c),
(433,901,l),
(433,837,o),
(392,802,o),
(320,802,cs),
(250,802,o),
(208,836,o),
(208,901,c),
(171,901,l),
(171,817,o),
(222,771,o),
(320,771,cs)
);
},
{
closed = 1;
nodes = (
(540,0,l),
(596,0,l),
(342,697,l),
(297,697,l),
(44,0,l),
(100,0,l),
(169,196,l),
(471,196,l)
);
},
{
closed = 1;
nodes = (
(184,240,l),
(320,628,l),
(456,240,l)
);
}
);
width = 640;
}
);
note = uni1EB0;
unicode = 7856;
},
{
glyphname = uni1EB2;
kernLeft = A;
kernRight = A;
layers = (
{
hints = (
{
horizontal = 1;
place = (0, 21);
target = up;
type = BottomGhost;
},
{
horizontal = 1;
place = (196, 44);
place = (196, 44);
type = Stem;
},
{
horizontal = 1;
place = (697, -20);
target = down;
type = TopGhost;
},
{
horizontal = 1;
place = (771, 31);
place = (771, 31);
type = Stem;
},
{
horizontal = 1;
place = (1096, 30);
place = (1096, 30);
type = Stem;
},
{
place = (171, 37);
place = (171, 37);
type = Stem;
},
{
place = (391, 36);
place = (391, 36);
type = Stem;
},
{
place = (433, 36);
place = (433, 36);
type = Stem;
},
{
horizontal = 1;
place = (628, 69);
place = (628, 69);
type = Stem;
}
);
layerId = m01;
shapes = (
{
closed = 1;
nodes = (
(391,984,o),
(345,977,o),
(306,970,c),
(315,940,l),
(363,951,o),
(427,960,o),
(427,1029,cs),
(427,1092,o),
(368,1126,o),
(292,1126,cs),
(277,1126,l),
(277,1096,l),
(292,1096,ls),
(343,1096,o),
(391,1078,o),
(391,1030,cs)
);
},
{
closed = 1;
nodes = (
(416,771,o),
(469,815,o),
(469,901,c),
(433,901,l),
(433,837,o),
(392,802,o),
(320,802,cs),
(250,802,o),
(208,836,o),
(208,901,c),
(171,901,l),
(171,817,o),
(222,771,o),
(320,771,cs)
);
},
{
closed = 1;
nodes = (
(540,0,l),
(596,0,l),
(342,697,l),
(297,697,l),
(44,0,l),
(100,0,l),
(169,196,l),
(471,196,l)
);
},
{
closed = 1;
nodes = (
(184,240,l),
(320,628,l),
(456,240,l)
);
}
);
width = 640;
}
);
note = uni1EB2;
unicode = 7858;
},
{
glyphname = uni1EB4;
kernLeft = A;
kernRight = A;
layers = (
{
hints = (
{
horizontal = 1;
place = (0, 21);
target = up;
type = BottomGhost;
},
{
horizontal = 1;
place = (196, 44);
place = (196, 44);
type = Stem;
},
{
horizontal = 1;
place = (697, -20);
target = down;
type = TopGhost;
},
{
horizontal = 1;
place = (771, 31);
place = (771, 31);
type = Stem;
},
{
horizontal = 1;
place = (984, 33);
place = (984, 33);
type = Stem;
},
{
horizontal = 1;
place = (1077, 32);
place = (1077, 32);
type = Stem;
},
{
place = (164, 30);
place = (164, 30);
type = Stem;
},
{
place = (433, 36);
place = (433, 36);
type = Stem;
},
{
place = (443, 32);
place = (443, 32);
type = Stem;
},
{
place = (171, 37);
place = (171, 37);
type = Stem;
},
{
horizontal = 1;
place = (628, 69);
place = (628, 69);
type = Stem;
}
);
layerId = m01;
shapes = (
{
closed = 1;
nodes = (
(310,1077,o),
(306,984,o),
(391,984,cs),
(441,984,o),
(475,1031,o),
(475,1105,c),
(443,1105,l),
(443,1051,o),
(420,1017,o),
(391,1017,cs),
(329,1017,o),
(329,1109,o),
(252,1109,cs),
(198,1109,o),
(164,1067,o),
(164,994,c),
(194,994,l),
(194,1046,o),
(216,1077,o),
(251,1077,cs)
);
},
{
closed = 1;
nodes = (
(250,802,o),
(208,836,o),
(208,901,c),
(171,901,l),
(171,817,o),
(222,771,o),
(320,771,cs),
(416,771,o),
(469,815,o),
(469,901,c),
(433,901,l),
(433,837,o),
(392,802,o),
(320,802,cs)
);
},
{
closed = 1;
nodes = (
(540,0,l),
(596,0,l),
(342,697,l),
(297,697,l),
(44,0,l),
(100,0,l),
(169,196,l),
(471,196,l)
);
},
{
closed = 1;
nodes = (
(184,240,l),
(320,628,l),
(456,240,l)
);
}
);
width = 640;
}
);
note = uni1EB4;
unicode = 7860;
},
{
glyphname = uni01CD;
kernLeft = A;
kernRight = A;
layers = (
{
hints = (
{
horizontal = 1;
place = (0, 21);
target = up;
type = BottomGhost;
},
{
horizontal = 1;
place = (196, 44);
place = (196, 44);
type = Stem;
},
{
horizontal = 1;
place = (697, -20);
target = down;
type = TopGhost;
},
{
place = (44, 552);
place = (44, 552);
type = Stem;
},
{
horizontal = 1;
place = (628, 69);
place = (628, 69);
type = Stem;
}
);
layerId = m01;
shapes = (
{
closed = 1;
nodes = (
(466,901,l),
(423,901,l),
(320,796,l),
(217,901,l),
(173,901,l),
(320,752,l)
);
},
{
closed = 1;
nodes = (
(540,0,l),
(596,0,l),
(342,697,l),
(297,697,l),
(44,0,l),
(100,0,l),
(169,196,l),
(471,196,l)
);
},
{
closed = 1;
nodes = (
(184,240,l),
(320,628,l),
(456,240,l)
);
}
);
width = 640;
}
);
note = uni01CD;
unicode = 461;
},
{
glyphname = Acircumflex;
kernLeft = A;
kernRight = A;
layers = (
{
hints = (
{
horizontal = 1;
place = (0, 21);
target = up;
type = BottomGhost;
},
{
horizontal = 1;
place = (196, 44);
place = (196, 44);
type = Stem;
},
{
horizontal = 1;
place = (697, -20);
target = down;
type = TopGhost;
},
{
place = (44, 552);
place = (44, 552);
type = Stem;
},
{
horizontal = 1;
place = (628, 69);
place = (628, 69);
type = Stem;
}
);
layerId = m01;
shapes = (
{
closed = 1;
nodes = (
(320,862,l),
(423,755,l),
(466,755,l),
(320,908,l),
(173,755,l),
(217,755,l)
);
},
{
closed = 1;
nodes = (
(540,0,l),
(596,0,l),
(342,697,l),
(297,697,l),
(44,0,l),
(100,0,l),
(169,196,l),
(471,196,l)
);
},
{
closed = 1;
nodes = (
(184,240,l),
(320,628,l),
(456,240,l)
);
}
);
width = 640;
}
);
note = Acircumflex;
unicode = 194;
},
{
glyphname = uni1EA4;
kernLeft = A;
kernRight = A;
layers = (
{
hints = (
{
horizontal = 1;
place = (0, 21);
target = up;
type = BottomGhost;
},
{
horizontal = 1;
place = (196, 44);
place = (196, 44);
type = Stem;
},
{
horizontal = 1;
place = (697, -20);
target = down;
type = TopGhost;
},
{
horizontal = 1;
place = (950, 140);
place = (950, 140);
type = Stem;
},
{
place = (44, 552);
place = (44, 552);
type = Stem;
},
{
horizontal = 1;
place = (628, 69);
place = (628, 69);
type = Stem;
}
);
layerId = m01;
shapes = (
{
closed = 1;
nodes = (
(460,1090,l),
(407,1090,l),
(300,950,l),
(340,950,l)
);
},
{
closed = 1;
nodes = (
(320,862,l),
(423,755,l),
(466,755,l),
(320,908,l),
(173,755,l),
(217,755,l)
);
},
{
closed = 1;
nodes = (
(540,0,l),
(596,0,l),
(342,697,l),
(297,697,l),
(44,0,l),
(100,0,l),
(169,196,l),
(471,196,l)
);
},
{
closed = 1;
nodes = (
(184,240,l),
(320,628,l),
(456,240,l)
);
}
);
width = 640;
}
);
note = uni1EA4;
unicode = 7844;
},
{
glyphname = uni1EAC;
kernLeft = A;
kernRight = A;
layers = (
{
hints = (
{
horizontal = 1;
place = (-173, 97);
place = (-173, 97);
type = Stem;
},
{
horizontal = 1;
place = (0, 21);
target = up;
type = BottomGhost;
},
{
horizontal = 1;
place = (196, 44);
place = (196, 44);
type = Stem;
},
{
horizontal = 1;
place = (697, -20);
target = down;
type = TopGhost;
},
{
place = (292, 57);
place = (292, 57);
type = Stem;
},
{
horizontal = 1;
place = (628, 69);
place = (628, 69);
type = Stem;
}
);
layerId = m01;
shapes = (
{
closed = 1;
nodes = (
(320,862,l),
(423,755,l),
(466,755,l),
(320,908,l),
(173,755,l),
(217,755,l)
);
},
{
closed = 1;
nodes = (
(596,0,l),
(342,697,l),
(297,697,l),
(44,0,l),
(100,0,l),
(169,196,l),
(471,196,l),
(540,0,l)
);
},
{
closed = 1;
nodes = (
(184,240,l),
(320,628,l),
(456,240,l)
);
},
{
closed = 1;
nodes = (
(292,-173,l),
(349,-173,l),
(349,-76,l),
(292,-76,l)
);
}
);
width = 640;
}
);
note = uni1EAC;
unicode = 7852;
},
{
glyphname = uni1EA6;
kernLeft = A;
kernRight = A;
layers = (
{
hints = (
{
horizontal = 1;
place = (0, 21);
target = up;
type = BottomGhost;
},
{
horizontal = 1;
place = (196, 44);
place = (196, 44);
type = Stem;
},
{
horizontal = 1;
place = (697, -20);
target = down;
type = TopGhost;
},
{
horizontal = 1;
place = (950, 140);
place = (950, 140);
type = Stem;
},
{
place = (44, 552);
place = (44, 552);
type = Stem;
},
{
horizontal = 1;
place = (628, 69);
place = (628, 69);
type = Stem;
}
);
layerId = m01;
shapes = (
{
closed = 1;
nodes = (
(340,950,l),
(236,1090,l),
(183,1090,l),
(300,950,l)
);
},
{
closed = 1;
nodes = (
(320,862,l),
(423,755,l),
(466,755,l),
(320,908,l),
(173,755,l),
(217,755,l)
);
},
{
closed = 1;
nodes = (
(540,0,l),
(596,0,l),
(342,697,l),
(297,697,l),
(44,0,l),
(100,0,l),
(169,196,l),
(471,196,l)
);
},
{
closed = 1;
nodes = (
(184,240,l),
(320,628,l),
(456,240,l)
);
}
);
width = 640;
}
);
note = uni1EA6;
unicode = 7846;
},
{
glyphname = uni1EA8;
kernLeft = A;
kernRight = A;
layers = (
{
hints = (
{
horizontal = 1;
place = (0, 21);
target = up;
type = BottomGhost;
},
{
horizontal = 1;
place = (196, 44);
place = (196, 44);
type = Stem;
},
{
horizontal = 1;
place = (697, -20);
target = down;
type = TopGhost;
},
{
horizontal = 1;
place = (1081, 30);
place = (1081, 30);
type = Stem;
},
{
place = (391, 36);
place = (391, 36);
type = Stem;
},
{
horizontal = 1;
place = (628, 69);
place = (628, 69);
type = Stem;
}
);
layerId = m01;
shapes = (
{
closed = 1;
nodes = (
(391,969,o),
(345,962,o),
(306,955,c),
(315,925,l),
(363,936,o),
(427,945,o),
(427,1014,cs),
(427,1077,o),
(368,1111,o),
(292,1111,cs),
(277,1111,l),
(277,1081,l),
(292,1081,ls),
(343,1081,o),
(391,1063,o),
(391,1015,cs)
);
},
{
closed = 1;
nodes = (
(320,862,l),
(423,755,l),
(466,755,l),
(320,908,l),
(173,755,l),
(217,755,l)
);
},
{
closed = 1;
nodes = (
(540,0,l),
(596,0,l),
(342,697,l),
(297,697,l),
(44,0,l),
(100,0,l),
(169,196,l),
(471,196,l)
);
},
{
closed = 1;
nodes = (
(184,240,l),
(320,628,l),
(456,240,l)
);
}
);
width = 640;
}
);
note = uni1EA8;
unicode = 7848;
},
{
glyphname = uni1EAA;
kernLeft = A;
kernRight = A;
layers = (
{
hints = (
{
horizontal = 1;
place = (0, 21);
target = up;
type = BottomGhost;
},
{
horizontal = 1;
place = (196, 44);
place = (196, 44);
type = Stem;
},
{
horizontal = 1;
place = (697, -20);
target = down;
type = TopGhost;
},
{
horizontal = 1;
place = (969, 33);
place = (969, 33);
type = Stem;
},
{
horizontal = 1;
place = (1062, 32);
place = (1062, 32);
type = Stem;
},
{
place = (164, 30);
place = (164, 30);
type = Stem;
},
{
place = (443, 32);
place = (443, 32);
type = Stem;
},
{
horizontal = 1;
place = (628, 69);
place = (628, 69);
type = Stem;
}
);
layerId = m01;
shapes = (
{
closed = 1;
nodes = (
(310,1062,o),
(306,969,o),
(391,969,cs),
(441,969,o),
(475,1016,o),
(475,1090,c),
(443,1090,l),
(443,1036,o),
(420,1002,o),
(391,1002,cs),
(329,1002,o),
(329,1094,o),
(252,1094,cs),
(198,1094,o),
(164,1052,o),
(164,979,c),
(194,979,l),
(194,1031,o),
(216,1062,o),
(251,1062,cs)
);
},
{
closed = 1;
nodes = (
(173,755,l),
(217,755,l),
(320,862,l),
(423,755,l),
(466,755,l),
(320,908,l)
);
},
{
closed = 1;
nodes = (
(540,0,l),
(596,0,l),
(342,697,l),
(297,697,l),
(44,0,l),
(100,0,l),
(169,196,l),
(471,196,l)
);
},
{
closed = 1;
nodes = (
(184,240,l),
(320,628,l),
(456,240,l)
);
}
);
width = 640;
}
);
note = uni1EAA;
unicode = 7850;
},
{
glyphname = Adieresis;
kernLeft = A;
kernRight = A;
layers = (
{
hints = (
{
horizontal = 1;
place = (0, 21);
target = up;
type = BottomGhost;
},
{
horizontal = 1;
place = (196, 44);
place = (196, 44);
type = Stem;
},
{
horizontal = 1;
place = (697, -20);
target = down;
type = TopGhost;
},
{
horizontal = 1;
place = (803, 98);
place = (803, 98);
type = Stem;
},
{
place = (204, 57);
place = (204, 57);
type = Stem;
},
{
place = (379, 56);
place = (379, 56);
type = Stem;
},
{
horizontal = 1;
place = (628, 69);
place = (628, 69);
type = Stem;
}
);
layerId = m01;
shapes = (
{
closed = 1;
nodes = (
(261,901,l),
(204,901,l),
(204,803,l),
(261,803,l)
);
},
{
closed = 1;
nodes = (
(435,901,l),
(379,901,l),
(379,803,l),
(435,803,l)
);
},
{
closed = 1;
nodes = (
(540,0,l),
(596,0,l),
(342,697,l),
(297,697,l),
(44,0,l),
(100,0,l),
(169,196,l),
(471,196,l)
);
},
{
closed = 1;
nodes = (
(184,240,l),
(320,628,l),
(456,240,l)
);
}
);
width = 640;
}
);
note = Adieresis;
unicode = 196;
},
{
glyphname = uni1EA0;
kernLeft = A;
kernRight = A;
layers = (
{
hints = (
{
horizontal = 1;
place = (-173, 97);
place = (-173, 97);
type = Stem;
},
{
horizontal = 1;
place = (0, 21);
target = up;
type = BottomGhost;
},
{
horizontal = 1;
place = (196, 44);
place = (196, 44);
type = Stem;
},
{
horizontal = 1;
place = (697, -20);
target = down;
type = TopGhost;
},
{
place = (292, 57);
place = (292, 57);
type = Stem;
},
{
horizontal = 1;
place = (628, 69);
place = (628, 69);
type = Stem;
}
);
layerId = m01;
shapes = (
{
closed = 1;
nodes = (
(596,0,l),
(342,697,l),
(297,697,l),
(44,0,l),
(100,0,l),
(169,196,l),
(471,196,l),
(540,0,l)
);
},
{
closed = 1;
nodes = (
(184,240,l),
(320,628,l),
(456,240,l)
);
},
{
closed = 1;
nodes = (
(292,-173,l),
(349,-173,l),
(349,-76,l),
(292,-76,l)
);
}
);
width = 640;
}
);
note = uni1EA0;
unicode = 7840;
},
{
glyphname = Agrave;
kernLeft = A;
kernRight = A;
layers = (
{
hints = (
{
horizontal = 1;
place = (0, 21);
target = up;
type = BottomGhost;
},
{
horizontal = 1;
place = (196, 44);
place = (196, 44);
type = Stem;
},
{
horizontal = 1;
place = (697, -20);
target = down;
type = TopGhost;
},
{
horizontal = 1;
place = (761, 140);
place = (761, 140);
type = Stem;
},
{
place = (44, 552);
place = (44, 552);
type = Stem;
},
{
horizontal = 1;
place = (628, 69);
place = (628, 69);
type = Stem;
}
);
layerId = m01;
shapes = (
{
closed = 1;
nodes = (
(340,761,l),
(236,901,l),
(183,901,l),
(300,761,l)
);
},
{
closed = 1;
nodes = (
(540,0,l),
(596,0,l),
(342,697,l),
(297,697,l),
(44,0,l),
(100,0,l),
(169,196,l),
(471,196,l)
);
},
{
closed = 1;
nodes = (
(184,240,l),
(320,628,l),
(456,240,l)
);
}
);
width = 640;
}
);
note = Agrave;
unicode = 192;
},
{
glyphname = uni1EA2;
kernLeft = A;
kernRight = A;
layers = (
{
hints = (
{
horizontal = 1;
place = (0, 21);
target = up;
type = BottomGhost;
},
{
horizontal = 1;
place = (196, 44);
place = (196, 44);
type = Stem;
},
{
horizontal = 1;
place = (697, -20);
target = down;
type = TopGhost;
},
{
horizontal = 1;
place = (892, 30);
place = (892, 30);
type = Stem;
},
{
place = (391, 36);
place = (391, 36);
type = Stem;
},
{
horizontal = 1;
place = (628, 69);
place = (628, 69);
type = Stem;
}
);
layerId = m01;
shapes = (
{
closed = 1;
nodes = (
(391,780,o),
(345,773,o),
(306,766,c),
(315,736,l),
(363,747,o),
(427,756,o),
(427,825,cs),
(427,888,o),
(368,922,o),
(292,922,cs),
(277,922,l),
(277,892,l),
(292,892,ls),
(343,892,o),
(391,874,o),
(391,826,cs)
);
},
{
closed = 1;
nodes = (
(540,0,l),
(596,0,l),
(342,697,l),
(297,697,l),
(44,0,l),
(100,0,l),
(169,196,l),
(471,196,l)
);
},
{
closed = 1;
nodes = (
(184,240,l),
(320,628,l),
(456,240,l)
);
}
);
width = 640;
}
);
note = uni1EA2;
unicode = 7842;
},
{
glyphname = Amacron;
kernLeft = A;
kernRight = A;
layers = (
{
hints = (
{
horizontal = 1;
place = (0, 21);
target = up;
type = BottomGhost;
},
{
horizontal = 1;
place = (196, 44);
place = (196, 44);
type = Stem;
},
{
horizontal = 1;
place = (697, -20);
target = down;
type = TopGhost;
},
{
horizontal = 1;
place = (816, 31);
place = (816, 31);
type = Stem;
},
{
place = (44, 552);
place = (44, 552);
type = Stem;
},
{
horizontal = 1;
place = (628, 69);
place = (628, 69);
type = Stem;
}
);
layerId = m01;
shapes = (
{
closed = 1;
nodes = (
(453,847,l),
(185,847,l),
(185,816,l),
(453,816,l)
);
},
{
closed = 1;
nodes = (
(540,0,l),
(596,0,l),
(342,697,l),
(297,697,l),
(44,0,l),
(100,0,l),
(169,196,l),
(471,196,l)
);
},
{
closed = 1;
nodes = (
(184,240,l),
(320,628,l),
(456,240,l)
);
}
);
width = 640;
}
);
note = Amacron;
unicode = 256;
},
{
glyphname = Aogonek;
kernLeft = A;
kernRight = A;
layers = (
{
hints = (
{
horizontal = 1;
place = (-211, 34);
place = (-211, 34);
type = Stem;
},
{
horizontal = 1;
place = (0, 21);
target = up;
type = BottomGhost;
},
{
horizontal = 1;
place = (196, 44);
place = (196, 44);
type = Stem;
},
{
horizontal = 1;
place = (697, -20);
target = down;
type = TopGhost;
},
{
place = (464, 32);
place = (464, 32);
type = Stem;
},
{
horizontal = 1;
place = (628, 69);
place = (628, 69);
type = Stem;
}
);
layerId = m01;
shapes = (
{
closed = 1;
nodes = (
(610,-150,l),
(591,-167,o),
(568,-177,o),
(545,-177,cs),
(519,-177,o),
(496,-164,o),
(496,-130,cs),
(496,-72,o),
(552,-27,o),
(596,0,c),
(342,697,l),
(297,697,l),
(44,0,l),
(100,0,l),
(169,196,l),
(471,196,l),
(540,0,l),
(551,0,l),
(508,-29,o),
(464,-78,o),
(464,-134,cs),
(464,-182,o),
(501,-211,o),
(547,-211,cs),
(580,-211,o),
(610,-195,o),
(634,-171,c)
);
},
{
closed = 1;
nodes = (
(184,240,l),
(320,628,l),
(456,240,l)
);
}
);
width = 640;
}
);
note = Aogonek;
unicode = 260;
},
{
glyphname = Aring;
kernLeft = A;
kernRight = A;
layers = (
{
hints = (
{
horizontal = 1;
place = (0, 21);
target = up;
type = BottomGhost;
},
{
horizontal = 1;
place = (196, 44);
place = (196, 44);
type = Stem;
},
{
horizontal = 1;
place = (688, 25);
place = (688, 25);
type = Stem;
},
{
horizontal = 1;
place = (835, 30);
place = (835, 30);
type = Stem;
},
{
place = (229, 30);
place = (229, 30);
type = Stem;
},
{
place = (381, 29);
place = (381, 29);
type = Stem;
}
);
layerId = m01;
shapes = (
{
closed = 1;
nodes = (
(540,0,l),
(596,0,l),
(345,688,l),
(383,698,o),
(410,733,o),
(410,774,cs),
(410,824,o),
(369,865,o),
(320,865,cs),
(270,865,o),
(229,825,o),
(229,774,cs),
(229,733,o),
(256,699,o),
(294,688,c),
(44,0,l),
(100,0,l),
(169,196,l),
(471,196,l)
);
},
{
closed = 1;
nodes = (
(259,809,o),
(285,835,o),
(320,835,cs),
(355,835,o),
(381,809,o),
(381,774,cs),
(381,740,o),
(354,713,o),
(320,713,cs),
(285,713,o),
(259,740,o),
(259,774,cs)
);
},
{
closed = 1;
nodes = (
(184,240,l),
(320,628,l),
(456,240,l)
);
}
);
width = 640;
}
);
note = Aring;
unicode = 197;
},
{
glyphname = Atilde;
kernLeft = A;
kernRight = A;
layers = (
{
hints = (
{
horizontal = 1;
place = (0, 21);
target = up;
type = BottomGhost;
},
{
horizontal = 1;
place = (196, 44);
place = (196, 44);
type = Stem;
},
{
horizontal = 1;
place = (697, -20);
target = down;
type = TopGhost;
},
{
horizontal = 1;
place = (780, 33);
place = (780, 33);
type = Stem;
},
{
horizontal = 1;
place = (873, 32);
place = (873, 32);
type = Stem;
},
{
place = (164, 30);
place = (164, 30);
type = Stem;
},
{
place = (443, 32);
place = (443, 32);
type = Stem;
},
{
horizontal = 1;
place = (628, 69);
place = (628, 69);
type = Stem;
}
);
layerId = m01;
shapes = (
{
closed = 1;
nodes = (
(310,873,o),
(306,780,o),
(391,780,cs),
(441,780,o),
(475,827,o),
(475,901,c),
(443,901,l),
(443,847,o),
(420,813,o),
(391,813,cs),
(329,813,o),
(329,905,o),
(252,905,cs),
(198,905,o),
(164,863,o),
(164,790,c),
(194,790,l),
(194,842,o),
(216,873,o),
(251,873,cs)
);
},
{
closed = 1;
nodes = (
(540,0,l),
(596,0,l),
(342,697,l),
(297,697,l),
(44,0,l),
(100,0,l),
(169,196,l),
(471,196,l)
);
},
{
closed = 1;
nodes = (
(184,240,l),
(320,628,l),
(456,240,l)
);
}
);
width = 640;
}
);
note = Atilde;
unicode = 195;
},
{
glyphname = AE;
kernLeft = A;
layers = (
{
hints = (
{
horizontal = 1;
place = (0, 47);
place = (0, 47);
type = Stem;
},
{
horizontal = 1;
place = (173, 41);
place = (173, 41);
type = Stem;
},
{
horizontal = 1;
place = (328, 44);
place = (328, 44);
type = Stem;
},
{
horizontal = 1;
place = (652, 45);
place = (652, 45);
type = Stem;
},
{
place = (398, 52);
place = (398, 52);
type = Stem;
},
{
horizontal = 1;
place = (653, 44);
place = (653, 44);
type = Stem;
}
);
layerId = m01;
shapes = (
{
closed = 1;
nodes = (
(44,0,l),
(100,0,l),
(160,173,l),
(398,173,l),
(398,0,l),
(836,0,l),
(836,47,l),
(450,47,l),
(450,328,l),
(785,328,l),
(785,372,l),
(450,372,l),
(450,652,l),
(836,652,l),
(836,697,l),
(297,697,l)
);
},
{
closed = 1;
nodes = (
(176,214,l),
(330,653,l),
(398,653,l),
(398,214,l)
);
}
);
width = 895;
}
);
note = AE;
unicode = 198;
},
{
glyphname = B;
kernLeft = B;
kernRight = B;
lastChange = "2022-12-23 03:19:46 +0000";
layers = (
{
hints = (
{
horizontal = 1;
place = (0, 47);
place = (0, 47);
type = Stem;
},
{
horizontal = 1;
place = (340, 44);
place = (340, 44);
type = Stem;
},
{
horizontal = 1;
place = (650, 47);
place = (650, 47);
type = Stem;
},
{
place = (119, 51);
place = (119, 51);
type = Stem;
},
{
place = (509, 51);
place = (509, 51);
type = Stem;
},
{
place = (475, 50);
place = (475, 50);
type = Stem;
}
);
layerId = m01;
shapes = (
{
closed = 1;
nodes = (
(119,0,l),
(339,0,ls),
(482,0,o),
(560,67,o),
(560,191,cs),
(560,288,o),
(513,351,o),
(427,369,c),
(490,393,o),
(525,449,o),
(525,524,cs),
(525,633,o),
(450,697,o),
(322,697,cs),
(134,697,ls),
(126,697,o),
(119,690,o),
(119,682,cs)
);
},
{
closed = 1;
nodes = (
(170,384,l),
(170,650,l),
(322,650,ls),
(419,650,o),
(475,601,o),
(475,516,cs),
(475,435,o),
(424,384,o),
(341,384,cs)
);
},
{
closed = 1;
nodes = (
(170,47,l),
(170,340,l),
(362,340,ls),
(455,340,o),
(509,286,o),
(509,195,cs),
(509,99,o),
(449,47,o),
(336,47,cs)
);
}
);
width = 633;
}
);
note = B;
unicode = 66;
},
{
glyphname = C;
kernLeft = C;
kernRight = C;
lastChange = "2022-12-23 03:20:23 +0000";
layers = (
{
hints = (
{
horizontal = 1;
place = (-8, 48);
place = (-8, 48);
type = Stem;
},
{
horizontal = 1;
place = (657, 48);
place = (657, 48);
type = Stem;
},
{
place = (75, 50);
place = (75, 50);
type = Stem;
}
);
layerId = m01;
shapes = (
{
closed = 1;
nodes = (
(622,200,o),
(616,185,qs),
(550,40,o),
(384,40,qs),
(259,40,o),
(125,201,o),
(125,350,qs),
(125,499,o),
(262,657,o),
(390,657,qs),
(555,657,o),
(616,515,qs),
(622,501,o),
(636,507,qs),
(669,519,l),
(598,705,o),
(390,705,qs),
(315,705,o),
(198,657,o),
(117,566,o),
(75,434,o),
(75,350,qs),
(75,266,o),
(117,133,o),
(196,41,o),
(311,-8,o),
(384,-8,qs),
(486,-8,o),
(631,87,o),
(671,181,q),
(636,194,ls)
);
}
);
width = 727;
}
);
note = C;
unicode = 67;
},
{
glyphname = Cacute;
kernLeft = C;
kernRight = C;
layers = (
{
hints = (
{
horizontal = 1;
place = (-8, 48);
place = (-8, 48);
type = Stem;
},
{
horizontal = 1;
place = (657, 48);
place = (657, 48);
type = Stem;
},
{
horizontal = 1;
place = (761, 140);
place = (761, 140);
type = Stem;
},
{
place = (75, 50);
place = (75, 50);
type = Stem;
}
);
layerId = m01;
shapes = (
{
closed = 1;
nodes = (
(373,761,l),
(413,761,l),
(533,901,l),
(480,901,l)
);
},
{
closed = 1;
nodes = (
(519,-8,o),
(618,56,o),
(671,181,c),
(622,199,l),
(580,94,o),
(498,40,o),
(384,40,cs),
(219,40,o),
(125,153,o),
(125,350,cs),
(125,547,o),
(220,657,o),
(390,657,cs),
(506,657,o),
(583,607,o),
(622,501,c),
(669,519,l),
(621,644,o),
(528,705,o),
(390,705,cs),
(191,705,o),
(75,575,o),
(75,350,cs),
(75,125,o),
(189,-8,o),
(384,-8,cs)
);
}
);
width = 727;
}
);
note = Cacute;
unicode = 262;
},
{
glyphname = Ccaron;
kernLeft = C;
kernRight = C;
layers = (
{
hints = (
{
horizontal = 1;
place = (-8, 48);
place = (-8, 48);
type = Stem;
},
{
horizontal = 1;
place = (657, 48);
place = (657, 48);
type = Stem;
},
{
place = (75, 50);
place = (75, 50);
type = Stem;
}
);
layerId = m01;
shapes = (
{
closed = 1;
nodes = (
(393,752,l),
(539,901,l),
(496,901,l),
(393,796,l),
(290,901,l),
(246,901,l)
);
},
{
closed = 1;
nodes = (
(519,-8,o),
(618,56,o),
(671,181,c),
(622,199,l),
(580,94,o),
(498,40,o),
(384,40,cs),
(219,40,o),
(125,153,o),
(125,350,cs),
(125,547,o),
(220,657,o),
(390,657,cs),
(506,657,o),
(583,607,o),
(622,501,c),
(669,519,l),
(621,644,o),
(528,705,o),
(390,705,cs),
(191,705,o),
(75,575,o),
(75,350,cs),
(75,125,o),
(189,-8,o),
(384,-8,cs)
);
}
);
width = 727;
}
);
note = Ccaron;
unicode = 268;
},
{
glyphname = Ccedilla;
kernLeft = C;
kernRight = C;
layers = (
{
hints = (
{
horizontal = 1;
place = (-254, 32);
place = (-254, 32);
type = Stem;
},
{
horizontal = 1;
place = (-93, 23);
place = (-93, 23);
type = Stem;
},
{
horizontal = 1;
place = (-8, 48);
place = (-8, 48);
type = Stem;
},
{
horizontal = 1;
place = (657, 48);
place = (657, 48);
type = Stem;
},
{
place = (75, 50);
place = (75, 50);
type = Stem;
},
{
place = (460, 32);
place = (460, 32);
type = Stem;
}
);
layerId = m01;
shapes = (
{
closed = 1;
nodes = (
(622,199,l),
(580,94,o),
(498,40,o),
(384,40,cs),
(219,40,o),
(125,153,o),
(125,350,cs),
(125,547,o),
(220,657,o),
(390,657,cs),
(506,657,o),
(583,607,o),
(622,501,c),
(669,519,l),
(621,644,o),
(528,705,o),
(390,705,cs),
(191,705,o),
(75,575,o),
(75,350,cs),
(75,130,o),
(184,-2,o),
(372,-8,c),
(324,-93,l),
(355,-93,o),
(383,-95,o),
(405,-101,cs),
(437,-110,o),
(460,-127,o),
(460,-162,cs),
(460,-201,o),
(436,-222,o),
(394,-222,cs),
(365,-222,o),
(337,-207,o),
(322,-178,c),
(302,-201,l),
(322,-234,o),
(358,-254,o),
(393,-254,cs),
(453,-254,o),
(492,-216,o),
(492,-161,cs),
(492,-122,o),
(471,-99,o),
(437,-85,cs),
(418,-77,o),
(395,-73,o),
(367,-70,c),
(404,-8,l),
(529,-2,o),
(621,62,o),
(671,181,c)
);
}
);
width = 727;
}
);
note = Ccedilla;
unicode = 199;
},
{
glyphname = Cdotaccent;
kernLeft = C;
kernRight = C;
layers = (
{
hints = (
{
horizontal = 1;
place = (-8, 48);
place = (-8, 48);
type = Stem;
},
{
horizontal = 1;
place = (657, 48);
place = (657, 48);
type = Stem;
},
{
horizontal = 1;
place = (803, 98);
place = (803, 98);
type = Stem;
},
{
place = (75, 50);
place = (75, 50);
type = Stem;
},
{
place = (364, 57);
place = (364, 57);
type = Stem;
}
);
layerId = m01;
shapes = (
{
closed = 1;
nodes = (
(364,803,l),
(421,803,l),
(421,901,l),
(364,901,l)
);
},
{
closed = 1;
nodes = (
(519,-8,o),
(618,56,o),
(671,181,c),
(622,199,l),
(580,94,o),
(498,40,o),
(384,40,cs),
(219,40,o),
(125,153,o),
(125,350,cs),
(125,547,o),
(220,657,o),
(390,657,cs),
(506,657,o),
(583,607,o),
(622,501,c),
(669,519,l),
(621,644,o),
(528,705,o),
(390,705,cs),
(191,705,o),
(75,575,o),
(75,350,cs),
(75,125,o),
(189,-8,o),
(384,-8,cs)
);
}
);
width = 727;
}
);
note = Cdotaccent;
unicode = 266;
},
{
glyphname = D;
kernLeft = B;
kernRight = D;
lastChange = "2022-12-23 03:20:41 +0000";
layers = (
{
hints = (
{
horizontal = 1;
place = (0, 47);
place = (0, 47);
type = Stem;
},
{
horizontal = 1;
place = (650, 47);
place = (650, 47);
type = Stem;
},
{
place = (119, 51);
place = (119, 51);
type = Stem;
},
{
place = (605, 52);
place = (605, 52);
type = Stem;
}
);
layerId = m01;
shapes = (
{
closed = 1;
nodes = (
(119,697,o),
(119,682,qs),
(119,0,l),
(302,0,ls),
(475,0,o),
(657,175,o),
(657,343,qs),
(657,513,o),
(473,697,o),
(303,697,qs),
(134,697,ls)
);
},
{
closed = 1;
nodes = (
(170,650,l),
(302,650,ls),
(451,650,o),
(605,495,o),
(605,345,qs),
(605,47,o),
(298,47,qs),
(170,47,l)
);
}
);
width = 729;
}
);
note = D;
unicode = 68;
},
{
glyphname = Eth;
kernLeft = B;
kernRight = D;
layers = (
{
hints = (
{
horizontal = 1;
place = (0, 47);
place = (0, 47);
type = Stem;
},
{
horizontal = 1;
place = (332, 34);
place = (332, 34);
type = Stem;
},
{
horizontal = 1;
place = (650, 47);
place = (650, 47);
type = Stem;
},
{
place = (119, 51);
place = (119, 51);
type = Stem;
},
{
place = (605, 52);
place = (605, 52);
type = Stem;
},
{
place = (119, 177);
place = (119, 177);
type = Stem;
}
);
layerId = m01;
shapes = (
{
closed = 1;
nodes = (
(119,697,l),
(119,366,l),
(46,366,l),
(46,332,l),
(119,332,l),
(119,0,l),
(302,0,ls),
(531,0,o),
(657,121,o),
(657,343,cs),
(657,568,o),
(528,697,o),
(303,697,cs)
);
},
{
closed = 1;
nodes = (
(170,47,l),
(170,332,l),
(296,332,l),
(296,366,l),
(170,366,l),
(170,650,l),
(302,650,ls),
(500,650,o),
(605,544,o),
(605,345,cs),
(605,148,o),
(501,47,o),
(298,47,cs)
);
}
);
width = 729;
}
);
note = Eth;
unicode = 208;
},
{
glyphname = Dcaron;
kernLeft = B;
kernRight = D;
layers = (
{
hints = (
{
horizontal = 1;
place = (0, 47);
place = (0, 47);
type = Stem;
},
{
horizontal = 1;
place = (650, 47);
place = (650, 47);
type = Stem;
},
{
place = (119, 51);
place = (119, 51);
type = Stem;
},
{
place = (605, 52);
place = (605, 52);
type = Stem;
}
);
layerId = m01;
shapes = (
{
closed = 1;
nodes = (
(366,752,l),
(512,901,l),
(469,901,l),
(366,796,l),
(263,901,l),
(219,901,l)
);
},
{
closed = 1;
nodes = (
(119,0,l),
(302,0,ls),
(531,0,o),
(657,121,o),
(657,343,cs),
(657,568,o),
(528,697,o),
(303,697,cs),
(119,697,l)
);
},
{
closed = 1;
nodes = (
(170,47,l),
(170,650,l),
(302,650,ls),
(500,650,o),
(605,544,o),
(605,345,cs),
(605,148,o),
(501,47,o),
(298,47,cs)
);
}
);
width = 729;
}
);
note = Dcaron;
unicode = 270;
},
{
glyphname = Dcroat;
kernLeft = B;
kernRight = D;
layers = (
{
hints = (
{
horizontal = 1;
place = (0, 47);
place = (0, 47);
type = Stem;
},
{
horizontal = 1;
place = (332, 34);
place = (332, 34);
type = Stem;
},
{
horizontal = 1;
place = (650, 47);
place = (650, 47);
type = Stem;
},
{
place = (119, 51);
place = (119, 51);
type = Stem;
},
{
place = (605, 52);
place = (605, 52);
type = Stem;
},
{
place = (119, 177);
place = (119, 177);
type = Stem;
}
);
layerId = m01;
shapes = (
{
closed = 1;
nodes = (
(119,697,l),
(119,366,l),
(46,366,l),
(46,332,l),
(119,332,l),
(119,0,l),
(302,0,ls),
(531,0,o),
(657,121,o),
(657,343,cs),
(657,568,o),
(528,697,o),
(303,697,cs)
);
},
{
closed = 1;
nodes = (
(170,47,l),
(170,332,l),
(296,332,l),
(296,366,l),
(170,366,l),
(170,650,l),
(302,650,ls),
(500,650,o),
(605,544,o),
(605,345,cs),
(605,148,o),
(501,47,o),
(298,47,cs)
);
}
);
width = 729;
}
);
note = Dcroat;
unicode = 272;
},
{
glyphname = E;
kernLeft = B;
lastChange = "2022-12-23 03:20:56 +0000";
layers = (
{
hints = (
{
horizontal = 1;
place = (0, 47);
place = (0, 47);
type = Stem;
},
{
horizontal = 1;
place = (330, 48);
place = (330, 48);
type = Stem;
},
{
horizontal = 1;
place = (650, 47);
place = (650, 47);
type = Stem;
},
{
place = (119, 51);
place = (119, 51);
type = Stem;
}
);
layerId = m01;
shapes = (
{
closed = 1;
nodes = (
(529,378,o),
(514,378,qs),
(170,378,l),
(170,650,l),
(573,650,l),
(573,697,l),
(119,697,l),
(119,0,l),
(573,0,l),
(573,47,l),
(170,47,l),
(170,330,l),
(529,330,l),
(529,363,ls)
);
}
);
width = 634;
}
);
note = E;
unicode = 69;
},
{
glyphname = Eacute;
kernLeft = B;
layers = (
{
hints = (
{
horizontal = 1;
place = (0, 47);
place = (0, 47);
type = Stem;
},
{
horizontal = 1;
place = (330, 48);
place = (330, 48);
type = Stem;
},
{
horizontal = 1;
place = (650, 47);
place = (650, 47);
type = Stem;
},
{
horizontal = 1;
place = (761, 140);
place = (761, 140);
type = Stem;
},
{
place = (119, 51);
place = (119, 51);
type = Stem;
}
);
layerId = m01;
shapes = (
{
closed = 1;
nodes = (
(326,761,l),
(366,761,l),
(486,901,l),
(433,901,l)
);
},
{
closed = 1;
nodes = (
(119,0,l),
(573,0,l),
(573,47,l),
(170,47,l),
(170,330,l),
(529,330,l),
(529,378,l),
(170,378,l),
(170,650,l),
(573,650,l),
(573,697,l),
(119,697,l)
);
}
);
width = 634;
}
);
note = Eacute;
unicode = 201;
},
{
glyphname = Ecaron;
kernLeft = B;
layers = (
{
hints = (
{
horizontal = 1;
place = (0, 47);
place = (0, 47);
type = Stem;
},
{
horizontal = 1;
place = (330, 48);
place = (330, 48);
type = Stem;
},
{
horizontal = 1;
place = (650, 47);
place = (650, 47);
type = Stem;
},
{
place = (119, 51);
place = (119, 51);
type = Stem;
}
);
layerId = m01;
shapes = (
{
closed = 1;
nodes = (
(346,752,l),
(492,901,l),
(449,901,l),
(346,796,l),
(243,901,l),
(199,901,l)
);
},
{
closed = 1;
nodes = (
(119,0,l),
(573,0,l),
(573,47,l),
(170,47,l),
(170,330,l),
(529,330,l),
(529,378,l),
(170,378,l),
(170,650,l),
(573,650,l),
(573,697,l),
(119,697,l)
);
}
);
width = 634;
}
);
note = Ecaron;
unicode = 282;
},
{
glyphname = Ecircumflex;
kernLeft = B;
layers = (
{
hints = (
{
horizontal = 1;
place = (0, 47);
place = (0, 47);
type = Stem;
},
{
horizontal = 1;
place = (330, 48);
place = (330, 48);
type = Stem;
},
{
horizontal = 1;
place = (650, 47);
place = (650, 47);
type = Stem;
},
{
place = (119, 51);
place = (119, 51);
type = Stem;
}
);
layerId = m01;
shapes = (
{
closed = 1;
nodes = (
(199,755,l),
(243,755,l),
(346,862,l),
(449,755,l),
(492,755,l),
(346,908,l)
);
},
{
closed = 1;
nodes = (
(119,0,l),
(573,0,l),
(573,47,l),
(170,47,l),
(170,330,l),
(529,330,l),
(529,378,l),
(170,378,l),
(170,650,l),
(573,650,l),
(573,697,l),
(119,697,l)
);
}
);
width = 634;
}
);
note = Ecircumflex;
unicode = 202;
},
{
glyphname = uni1EBE;
kernLeft = B;
layers = (
{
hints = (
{
horizontal = 1;
place = (0, 47);
place = (0, 47);
type = Stem;
},
{
horizontal = 1;
place = (330, 48);
place = (330, 48);
type = Stem;
},
{
horizontal = 1;
place = (650, 47);
place = (650, 47);
type = Stem;
},
{
horizontal = 1;
place = (950, 140);
place = (950, 140);
type = Stem;
},
{
place = (119, 51);
place = (119, 51);
type = Stem;
}
);
layerId = m01;
shapes = (
{
closed = 1;
nodes = (
(326,950,l),
(366,950,l),
(486,1090,l),
(433,1090,l)
);
},
{
closed = 1;
nodes = (
(199,755,l),
(243,755,l),
(346,862,l),
(449,755,l),
(492,755,l),
(346,908,l)
);
},
{
closed = 1;
nodes = (
(119,0,l),
(573,0,l),
(573,47,l),
(170,47,l),
(170,330,l),
(529,330,l),
(529,378,l),
(170,378,l),
(170,650,l),
(573,650,l),
(573,697,l),
(119,697,l)
);
}
);
width = 634;
}
);
note = uni1EBE;
unicode = 7870;
},
{
glyphname = uni1EC6;
kernLeft = B;
layers = (
{
hints = (
{
horizontal = 1;
place = (-173, 97);
place = (-173, 97);
type = Stem;
},
{
horizontal = 1;
place = (0, 47);
place = (0, 47);
type = Stem;
},
{
horizontal = 1;
place = (330, 48);
place = (330, 48);
type = Stem;
},
{
horizontal = 1;
place = (650, 47);
place = (650, 47);
type = Stem;
},
{
place = (119, 51);
place = (119, 51);
type = Stem;
},
{
place = (317, 57);
place = (317, 57);
type = Stem;
}
);
layerId = m01;
shapes = (
{
closed = 1;
nodes = (
(199,755,l),
(243,755,l),
(346,862,l),
(449,755,l),
(492,755,l),
(346,908,l)
);
},
{
closed = 1;
nodes = (
(119,0,l),
(573,0,l),
(573,47,l),
(170,47,l),
(170,330,l),
(529,330,l),
(529,378,l),
(170,378,l),
(170,650,l),
(573,650,l),
(573,697,l),
(119,697,l)
);
},
{
closed = 1;
nodes = (
(317,-173,l),
(374,-173,l),
(374,-76,l),
(317,-76,l)
);
}
);
width = 634;
}
);
note = uni1EC6;
unicode = 7878;
},
{
glyphname = uni1EC0;
kernLeft = B;
layers = (
{
hints = (
{
horizontal = 1;
place = (0, 47);
place = (0, 47);
type = Stem;
},
{
horizontal = 1;
place = (330, 48);
place = (330, 48);
type = Stem;
},
{
horizontal = 1;
place = (650, 47);
place = (650, 47);
type = Stem;
},
{
horizontal = 1;
place = (950, 140);
place = (950, 140);
type = Stem;
},
{
place = (119, 51);
place = (119, 51);
type = Stem;
}
);
layerId = m01;
shapes = (
{
closed = 1;
nodes = (
(325,950,l),
(365,950,l),
(261,1090,l),
(208,1090,l)
);
},
{
closed = 1;
nodes = (
(199,755,l),
(243,755,l),
(346,862,l),
(449,755,l),
(492,755,l),
(346,908,l)
);
},
{
closed = 1;
nodes = (
(119,0,l),
(573,0,l),
(573,47,l),
(170,47,l),
(170,330,l),
(529,330,l),
(529,378,l),
(170,378,l),
(170,650,l),
(573,650,l),
(573,697,l),
(119,697,l)
);
}
);
width = 634;
}
);
note = uni1EC0;
unicode = 7872;
},
{
glyphname = uni1EC2;
kernLeft = B;
layers = (
{
hints = (
{
horizontal = 1;
place = (0, 47);
place = (0, 47);
type = Stem;
},
{
horizontal = 1;
place = (330, 48);
place = (330, 48);
type = Stem;
},
{
horizontal = 1;
place = (650, 47);
place = (650, 47);
type = Stem;
},
{
horizontal = 1;
place = (1081, 30);
place = (1081, 30);
type = Stem;
},
{
place = (119, 51);
place = (119, 51);
type = Stem;
},
{
place = (417, 36);
place = (417, 36);
type = Stem;
}
);
layerId = m01;
shapes = (
{
closed = 1;
nodes = (
(341,925,l),
(389,936,o),
(453,945,o),
(453,1014,cs),
(453,1077,o),
(394,1111,o),
(318,1111,cs),
(303,1111,l),
(303,1081,l),
(318,1081,ls),
(369,1081,o),
(417,1063,o),
(417,1015,cs),
(417,969,o),
(371,962,o),
(332,955,c)
);
},
{
closed = 1;
nodes = (
(199,755,l),
(243,755,l),
(346,862,l),
(449,755,l),
(492,755,l),
(346,908,l)
);
},
{
closed = 1;
nodes = (
(119,0,l),
(573,0,l),
(573,47,l),
(170,47,l),
(170,330,l),
(529,330,l),
(529,378,l),
(170,378,l),
(170,650,l),
(573,650,l),
(573,697,l),
(119,697,l)
);
}
);
width = 634;
}
);
note = uni1EC2;
unicode = 7874;
},
{
glyphname = uni1EC4;
kernLeft = B;
layers = (
{
hints = (
{
horizontal = 1;
place = (0, 47);
place = (0, 47);
type = Stem;
},
{
horizontal = 1;
place = (330, 48);
place = (330, 48);
type = Stem;
},
{
horizontal = 1;
place = (650, 47);
place = (650, 47);
type = Stem;
},
{
horizontal = 1;
place = (969, 33);
place = (969, 33);
type = Stem;
},
{
horizontal = 1;
place = (1062, 32);
place = (1062, 32);
type = Stem;
},
{
place = (119, 51);
place = (119, 51);
type = Stem;
},
{
place = (469, 32);
place = (469, 32);
type = Stem;
},
{
place = (190, 30);
place = (190, 30);
type = Stem;
}
);
layerId = m01;
shapes = (
{
closed = 1;
nodes = (
(467,969,o),
(501,1016,o),
(501,1090,c),
(469,1090,l),
(469,1036,o),
(446,1002,o),
(417,1002,cs),
(355,1002,o),
(355,1094,o),
(278,1094,cs),
(224,1094,o),
(190,1052,o),
(190,979,c),
(220,979,l),
(220,1031,o),
(242,1062,o),
(277,1062,cs),
(336,1062,o),
(332,969,o),
(417,969,cs)
);
},
{
closed = 1;
nodes = (
(199,755,l),
(243,755,l),
(346,862,l),
(449,755,l),
(492,755,l),
(346,908,l)
);
},
{
closed = 1;
nodes = (
(119,0,l),
(573,0,l),
(573,47,l),
(170,47,l),
(170,330,l),
(529,330,l),
(529,378,l),
(170,378,l),
(170,650,l),
(573,650,l),
(573,697,l),
(119,697,l)
);
}
);
width = 634;
}
);
note = uni1EC4;
unicode = 7876;
},
{
glyphname = Edieresis;
kernLeft = B;
layers = (
{
hints = (
{
horizontal = 1;
place = (0, 47);
place = (0, 47);
type = Stem;
},
{
horizontal = 1;
place = (330, 48);
place = (330, 48);
type = Stem;
},
{
horizontal = 1;
place = (650, 47);
place = (650, 47);
type = Stem;
},
{
horizontal = 1;
place = (803, 98);
place = (803, 98);
type = Stem;
},
{
place = (119, 51);
place = (119, 51);
type = Stem;
},
{
place = (230, 57);
place = (230, 57);
type = Stem;
},
{
place = (405, 56);
place = (405, 56);
type = Stem;
}
);
layerId = m01;
shapes = (
{
closed = 1;
nodes = (
(230,803,l),
(287,803,l),
(287,901,l),
(230,901,l)
);
},
{
closed = 1;
nodes = (
(405,803,l),
(461,803,l),
(461,901,l),
(405,901,l)
);
},
{
closed = 1;
nodes = (
(119,0,l),
(573,0,l),
(573,47,l),
(170,47,l),
(170,330,l),
(529,330,l),
(529,378,l),
(170,378,l),
(170,650,l),
(573,650,l),
(573,697,l),
(119,697,l)
);
}
);
width = 634;
}
);
note = Edieresis;
unicode = 203;
},
{
glyphname = Edotaccent;
kernLeft = B;
layers = (
{
hints = (
{
horizontal = 1;
place = (0, 47);
place = (0, 47);
type = Stem;
},
{
horizontal = 1;
place = (330, 48);
place = (330, 48);
type = Stem;
},
{
horizontal = 1;
place = (650, 47);
place = (650, 47);
type = Stem;
},
{
horizontal = 1;
place = (803, 98);
place = (803, 98);
type = Stem;
},
{
place = (119, 51);
place = (119, 51);
type = Stem;
},
{
place = (317, 57);
place = (317, 57);
type = Stem;
}
);
layerId = m01;
shapes = (
{
closed = 1;
nodes = (
(317,803,l),
(374,803,l),
(374,901,l),
(317,901,l)
);
},
{
closed = 1;
nodes = (
(119,0,l),
(573,0,l),
(573,47,l),
(170,47,l),
(170,330,l),
(529,330,l),
(529,378,l),
(170,378,l),
(170,650,l),
(573,650,l),
(573,697,l),
(119,697,l)
);
}
);
width = 634;
}
);
note = Edotaccent;
unicode = 278;
},
{
glyphname = uni1EB8;
kernLeft = B;
layers = (
{
hints = (
{
horizontal = 1;
place = (-173, 97);
place = (-173, 97);
type = Stem;
},
{
horizontal = 1;
place = (0, 47);
place = (0, 47);
type = Stem;
},
{
horizontal = 1;
place = (330, 48);
place = (330, 48);
type = Stem;
},
{
horizontal = 1;
place = (650, 47);
place = (650, 47);
type = Stem;
},
{
place = (119, 51);
place = (119, 51);
type = Stem;
},
{
place = (317, 57);
place = (317, 57);
type = Stem;
}
);
layerId = m01;
shapes = (
{
closed = 1;
nodes = (
(119,0,l),
(573,0,l),
(573,47,l),
(170,47,l),
(170,330,l),
(529,330,l),
(529,378,l),
(170,378,l),
(170,650,l),
(573,650,l),
(573,697,l),
(119,697,l)
);
},
{
closed = 1;
nodes = (
(317,-173,l),
(374,-173,l),
(374,-76,l),
(317,-76,l)
);
}
);
width = 634;
}
);
note = uni1EB8;
unicode = 7864;
},
{
glyphname = Egrave;
kernLeft = B;
layers = (
{
hints = (
{
horizontal = 1;
place = (0, 47);
place = (0, 47);
type = Stem;
},
{
horizontal = 1;
place = (330, 48);
place = (330, 48);
type = Stem;
},
{
horizontal = 1;
place = (650, 47);
place = (650, 47);
type = Stem;
},
{
horizontal = 1;
place = (761, 140);
place = (761, 140);
type = Stem;
},
{
place = (119, 51);
place = (119, 51);
type = Stem;
}
);
layerId = m01;
shapes = (
{
closed = 1;
nodes = (
(325,761,l),
(365,761,l),
(261,901,l),
(208,901,l)
);
},
{
closed = 1;
nodes = (
(119,0,l),
(573,0,l),
(573,47,l),
(170,47,l),
(170,330,l),
(529,330,l),
(529,378,l),
(170,378,l),
(170,650,l),
(573,650,l),
(573,697,l),
(119,697,l)
);
}
);
width = 634;
}
);
note = Egrave;
unicode = 200;
},
{
glyphname = uni1EBA;
kernLeft = B;
layers = (
{
hints = (
{
horizontal = 1;
place = (0, 47);
place = (0, 47);
type = Stem;
},
{
horizontal = 1;
place = (330, 48);
place = (330, 48);
type = Stem;
},
{
horizontal = 1;
place = (650, 47);
place = (650, 47);
type = Stem;
},
{
horizontal = 1;
place = (892, 30);
place = (892, 30);
type = Stem;
},
{
place = (119, 51);
place = (119, 51);
type = Stem;
},
{
place = (417, 36);
place = (417, 36);
type = Stem;
}
);
layerId = m01;
shapes = (
{
closed = 1;
nodes = (
(341,736,l),
(389,747,o),
(453,756,o),
(453,825,cs),
(453,888,o),
(394,922,o),
(318,922,cs),
(303,922,l),
(303,892,l),
(318,892,ls),
(369,892,o),
(417,874,o),
(417,826,cs),
(417,780,o),
(371,773,o),
(332,766,c)
);
},
{
closed = 1;
nodes = (
(119,0,l),
(573,0,l),
(573,47,l),
(170,47,l),
(170,330,l),
(529,330,l),
(529,378,l),
(170,378,l),
(170,650,l),
(573,650,l),
(573,697,l),
(119,697,l)
);
}
);
width = 634;
}
);
note = uni1EBA;
unicode = 7866;
},
{
glyphname = Emacron;
kernLeft = B;
layers = (
{
hints = (
{
horizontal = 1;
place = (0, 47);
place = (0, 47);
type = Stem;
},
{
horizontal = 1;
place = (330, 48);
place = (330, 48);
type = Stem;
},
{
horizontal = 1;
place = (650, 47);
place = (650, 47);
type = Stem;
},
{
horizontal = 1;
place = (816, 31);
place = (816, 31);
type = Stem;
},
{
place = (119, 51);
place = (119, 51);
type = Stem;
}
);
layerId = m01;
shapes = (
{
closed = 1;
nodes = (
(211,816,l),
(479,816,l),
(479,847,l),
(211,847,l)
);
},
{
closed = 1;
nodes = (
(119,0,l),
(573,0,l),
(573,47,l),
(170,47,l),
(170,330,l),
(529,330,l),
(529,378,l),
(170,378,l),
(170,650,l),
(573,650,l),
(573,697,l),
(119,697,l)
);
}
);
width = 634;
}
);
note = Emacron;
unicode = 274;
},
{
glyphname = Eogonek;
kernLeft = B;
layers = (
{
hints = (
{
horizontal = 1;
place = (-211, 34);
place = (-211, 34);
type = Stem;
},
{
horizontal = 1;
place = (0, 47);
place = (0, 47);
type = Stem;
},
{
horizontal = 1;
place = (330, 48);
place = (330, 48);
type = Stem;
},
{
horizontal = 1;
place = (650, 47);
place = (650, 47);
type = Stem;
},
{
place = (119, 51);
place = (119, 51);
type = Stem;
},
{
place = (441, 32);
place = (441, 32);
type = Stem;
},
{
place = (528, 45);
place = (528, 45);
type = Stem;
}
);
layerId = m01;
shapes = (
{
closed = 1;
nodes = (
(587,-150,l),
(568,-167,o),
(545,-177,o),
(522,-177,cs),
(496,-177,o),
(473,-164,o),
(473,-130,cs),
(473,-72,o),
(529,-27,o),
(573,0,c),
(573,47,l),
(170,47,l),
(170,330,l),
(529,330,l),
(529,378,l),
(170,378,l),
(170,650,l),
(573,650,l),
(573,697,l),
(119,697,l),
(119,0,l),
(528,0,l),
(485,-29,o),
(441,-78,o),
(441,-134,cs),
(441,-182,o),
(478,-211,o),
(524,-211,cs),
(557,-211,o),
(587,-195,o),
(611,-171,c)
);
}
);
width = 634;
}
);
note = Eogonek;
unicode = 280;
},
{
glyphname = uni1EBC;
kernLeft = B;
layers = (
{
hints = (
{
horizontal = 1;
place = (0, 47);
place = (0, 47);
type = Stem;
},
{
horizontal = 1;
place = (330, 48);
place = (330, 48);
type = Stem;
},
{
horizontal = 1;
place = (650, 47);
place = (650, 47);
type = Stem;
},
{
horizontal = 1;
place = (780, 33);
place = (780, 33);
type = Stem;
},
{
horizontal = 1;
place = (873, 32);
place = (873, 32);
type = Stem;
},
{
place = (119, 51);
place = (119, 51);
type = Stem;
},
{
place = (469, 32);
place = (469, 32);
type = Stem;
},
{
place = (190, 30);
place = (190, 30);
type = Stem;
}
);
layerId = m01;
shapes = (
{
closed = 1;
nodes = (
(467,780,o),
(501,827,o),
(501,901,c),
(469,901,l),
(469,847,o),
(446,813,o),
(417,813,cs),
(355,813,o),
(355,905,o),
(278,905,cs),
(224,905,o),
(190,863,o),
(190,790,c),
(220,790,l),
(220,842,o),
(242,873,o),
(277,873,cs),
(336,873,o),
(332,780,o),
(417,780,cs)
);
},
{
closed = 1;
nodes = (
(119,0,l),
(573,0,l),
(573,47,l),
(170,47,l),
(170,330,l),
(529,330,l),
(529,378,l),
(170,378,l),
(170,650,l),
(573,650,l),
(573,697,l),
(119,697,l)
);
}
);
width = 634;
}
);
note = uni1EBC;
unicode = 7868;
},
{
glyphname = F;
kernLeft = B;
kernRight = F;
lastChange = "2022-12-23 03:22:16 +0000";
layers = (
{
hints = (
{
horizontal = 1;
place = (0, 21);
target = up;
type = BottomGhost;
},
{
horizontal = 1;
place = (330, 48);
place = (330, 48);
type = Stem;
},
{
horizontal = 1;
place = (650, 47);
place = (650, 47);
type = Stem;
},
{
place = (119, 51);
place = (119, 51);
type = Stem;
}
);
layerId = m01;
shapes = (
{
closed = 1;
nodes = (
(150,0,l),
(170,50,l),
(170,330,l),
(532,330,l),
(532,378,l),
(170,378,l),
(170,650,l),
(569,650,ls),
(577,650,o),
(584,657,o),
(584,665,cs),
(584,697,l),
(119,697,l),
(119,0,l)
);
}
);
width = 628;
}
);
note = F;
unicode = 70;
},
{
glyphname = G;
kernLeft = C;
kernRight = G;
lastChange = "2022-12-23 03:23:52 +0000";
layers = (
{
hints = (
{
horizontal = 1;
place = (-8, 48);
place = (-8, 48);
type = Stem;
},
{
horizontal = 1;
place = (312, 42);
place = (312, 42);
type = Stem;
},
{
horizontal = 1;
place = (657, 48);
place = (657, 48);
type = Stem;
},
{
place = (75, 50);
place = (75, 50);
type = Stem;
},
{
place = (621, 49);
place = (621, 49);
type = Stem;
},
{
horizontal = 1;
place = (0, 21);
target = up;
type = BottomGhost;
},
{
place = (624.5, 45.5);
place = (624.5, 45.5);
type = Stem;
}
);
layerId = m01;
shapes = (
{
closed = 1;
nodes = (
(669,519,o),
(663,533,qs),
(628,617,o),
(494,705,o),
(391,705,qs),
(313,705,o),
(195,654,o),
(115,561,o),
(75,430,o),
(75,350,qs),
(75,270,o),
(115,138,o),
(193,44,o),
(307,-8,o),
(381,-8,qs),
(466,-8,o),
(595,62,o),
(621,132,q),
(628,0,l),
(650,0,l),
(670,50,l),
(670,354,l),
(463,354,ls),
(455,354,o),
(448,347,o),
(448,339,cs),
(448,312,l),
(621,312,l),
(621,271,ls),
(621,209,o),
(582,121,o),
(516,66,o),
(430,40,o),
(384,40,qs),
(316,40,o),
(218,88,o),
(155,172,o),
(125,286,o),
(125,352,qs),
(125,423,o),
(159,535,o),
(225,615,o),
(325,657,o),
(391,657,qs),
(482,657,o),
(593,578,o),
(622,501,q),
(655,513,ls)
);
}
);
width = 764;
}
);
note = G;
unicode = 71;
},
{
glyphname = Gbreve;
kernLeft = C;
kernRight = G;
layers = (
{
hints = (
{
horizontal = 1;
place = (-8, 48);
place = (-8, 48);
type = Stem;
},
{
horizontal = 1;
place = (312, 42);
place = (312, 42);
type = Stem;
},
{
horizontal = 1;
place = (657, 48);
place = (657, 48);
type = Stem;
},
{
horizontal = 1;
place = (771, 31);
place = (771, 31);
type = Stem;
},
{
place = (75, 50);
place = (75, 50);
type = Stem;
},
{
place = (234, 37);
place = (234, 37);
type = Stem;
},
{
place = (496, 36);
place = (496, 36);
type = Stem;
},
{
place = (621, 49);
place = (621, 49);
type = Stem;
},
{
horizontal = 1;
place = (0, 21);
target = up;
type = BottomGhost;
},
{
place = (624.5, 45.5);
place = (624.5, 45.5);
type = Stem;
}
);
layerId = m01;
shapes = (
{
closed = 1;
nodes = (
(479,771,o),
(532,815,o),
(532,901,c),
(496,901,l),
(496,837,o),
(455,802,o),
(383,802,cs),
(313,802,o),
(271,836,o),
(271,901,c),
(234,901,l),
(234,817,o),
(285,771,o),
(383,771,cs)
);
},
{
closed = 1;
nodes = (
(448,354,l),
(448,312,l),
(621,312,l),
(621,271,ls),
(621,105,o),
(507,40,o),
(384,40,cs),
(202,40,o),
(125,177,o),
(125,352,cs),
(125,540,o),
(215,657,o),
(391,657,cs),
(512,657,o),
(584,603,o),
(622,501,c),
(669,519,l),
(623,639,o),
(534,705,o),
(391,705,cs),
(183,705,o),
(75,563,o),
(75,350,cs),
(75,137,o),
(183,-8,o),
(381,-8,cs),
(493,-8,o),
(587,39,o),
(621,132,c),
(628,0,l),
(670,0,l),
(670,354,l)
);
}
);
width = 764;
}
);
note = Gbreve;
unicode = 286;
},
{
glyphname = uni0122;
kernLeft = C;
kernRight = G;
layers = (
{
hints = (
{
horizontal = 1;
place = (-8, 48);
place = (-8, 48);
type = Stem;
},
{
horizontal = 1;
place = (312, 42);
place = (312, 42);
type = Stem;
},
{
horizontal = 1;
place = (657, 48);
place = (657, 48);
type = Stem;
},
{
place = (75, 50);
place = (75, 50);
type = Stem;
},
{
place = (621, 49);
place = (621, 49);
type = Stem;
},
{
horizontal = 1;
place = (0, 21);
target = up;
type = BottomGhost;
},
{
place = (624.5, 45.5);
place = (624.5, 45.5);
type = Stem;
}
);
layerId = m01;
shapes = (
{
closed = 1;
nodes = (
(448,354,l),
(448,312,l),
(621,312,l),
(621,271,ls),
(621,105,o),
(507,40,o),
(384,40,cs),
(202,40,o),
(125,177,o),
(125,352,cs),
(125,540,o),
(215,657,o),
(391,657,cs),
(512,657,o),
(584,603,o),
(622,501,c),
(669,519,l),
(623,639,o),
(534,705,o),
(391,705,cs),
(183,705,o),
(75,563,o),
(75,350,cs),
(75,137,o),
(183,-8,o),
(381,-8,cs),
(493,-8,o),
(587,39,o),
(621,132,c),
(628,0,l),
(670,0,l),
(670,354,l)
);
},
{
closed = 1;
nodes = (
(260,-219,l),
(294,-219,l),
(410,-57,l),
(357,-57,l)
);
}
);
width = 764;
}
);
note = uni0122;
unicode = 290;
},
{
glyphname = Gdotaccent;
kernLeft = C;
kernRight = G;
layers = (
{
hints = (
{
horizontal = 1;
place = (-8, 48);
place = (-8, 48);
type = Stem;
},
{
horizontal = 1;
place = (312, 42);
place = (312, 42);
type = Stem;
},
{
horizontal = 1;
place = (657, 48);
place = (657, 48);
type = Stem;
},
{
horizontal = 1;
place = (803, 98);
place = (803, 98);
type = Stem;
},
{
place = (75, 50);
place = (75, 50);
type = Stem;
},
{
place = (355, 57);
place = (355, 57);
type = Stem;
},
{
place = (621, 49);
place = (621, 49);
type = Stem;
},
{
horizontal = 1;
place = (0, 21);
target = up;
type = BottomGhost;
},
{
place = (624.5, 45.5);
place = (624.5, 45.5);
type = Stem;
}
);
layerId = m01;
shapes = (
{
closed = 1;
nodes = (
(412,901,l),
(355,901,l),
(355,803,l),
(412,803,l)
);
},
{
closed = 1;
nodes = (
(448,354,l),
(448,312,l),
(621,312,l),
(621,271,ls),
(621,105,o),
(507,40,o),
(384,40,cs),
(202,40,o),
(125,177,o),
(125,352,cs),
(125,540,o),
(215,657,o),
(391,657,cs),
(512,657,o),
(584,603,o),
(622,501,c),
(669,519,l),
(623,639,o),
(534,705,o),
(391,705,cs),
(183,705,o),
(75,563,o),
(75,350,cs),
(75,137,o),
(183,-8,o),
(381,-8,cs),
(493,-8,o),
(587,39,o),
(621,132,c),
(628,0,l),
(670,0,l),
(670,354,l)
);
}
);
width = 764;
}
);
note = Gdotaccent;
unicode = 288;
},
{
glyphname = H;
kernLeft = B;
kernRight = H;
layers = (
{
hints = (
{
horizontal = 1;
place = (0, 21);
target = up;
type = BottomGhost;
},
{
horizontal = 1;
place = (330, 49);
place = (330, 49);
type = Stem;
},
{
horizontal = 1;
place = (697, -20);
target = down;
type = TopGhost;
},
{
place = (119, 51);
place = (119, 51);
type = Stem;
},
{
place = (553, 52);
place = (553, 52);
type = Stem;
}
);
layerId = m01;
shapes = (
{
closed = 1;
nodes = (
(119,0,l),
(170,0,l),
(170,330,l),
(553,330,l),
(553,0,l),
(605,0,l),
(605,697,l),
(553,697,l),
(553,379,l),
(170,379,l),
(170,697,l),
(119,697,l)
);
}
);
width = 724;
}
);
note = H;
unicode = 72;
},
{
glyphname = Hbar;
kernLeft = B;
kernRight = H;
layers = (
{
hints = (
{
horizontal = 1;
place = (0, 21);
target = up;
type = BottomGhost;
},
{
horizontal = 1;
place = (330, 49);
place = (330, 49);
type = Stem;
},
{
horizontal = 1;
place = (523, 31);
place = (523, 31);
type = Stem;
},
{
place = (119, 51);
place = (119, 51);
type = Stem;
},
{
place = (553, 52);
place = (553, 52);
type = Stem;
},
{
horizontal = 1;
place = (523, 174);
place = (523, 174);
type = Stem;
}
);
layerId = m01;
shapes = (
{
closed = 1;
nodes = (
(675,554,l),
(605,554,l),
(605,697,l),
(553,697,l),
(553,554,l),
(170,554,l),
(170,697,l),
(119,697,l),
(119,554,l),
(48,554,l),
(48,523,l),
(119,523,l),
(119,0,l),
(170,0,l),
(170,330,l),
(553,330,l),
(553,0,l),
(605,0,l),
(605,523,l),
(675,523,l)
);
},
{
closed = 1;
nodes = (
(553,379,l),
(170,379,l),
(170,523,l),
(553,523,l)
);
}
);
width = 724;
}
);
note = Hbar;
unicode = 294;
},
{
glyphname = I;
kernLeft = B;
kernRight = H;
layers = (
{
hints = (
{
horizontal = 1;
place = (0, 21);
target = up;
type = BottomGhost;
},
{
horizontal = 1;
place = (697, -20);
target = down;
type = TopGhost;
},
{
place = (119, 51);
place = (119, 51);
type = Stem;
}
);
layerId = m01;
shapes = (
{
closed = 1;
nodes = (
(119,0,l),
(170,0,l),
(170,697,l),
(119,697,l)
);
}
);
width = 289;
}
);
note = I;
unicode = 73;
},
{
glyphname = Iacute;
kernLeft = B;
kernRight = H;
layers = (
{
hints = (
{
horizontal = 1;
place = (0, 21);
target = up;
type = BottomGhost;
},
{
horizontal = 1;
place = (697, -20);
target = down;
type = TopGhost;
},
{
horizontal = 1;
place = (761, 140);
place = (761, 140);
type = Stem;
},
{
place = (119, 51);
place = (119, 51);
type = Stem;
}
);
layerId = m01;
shapes = (
{
closed = 1;
nodes = (
(125,761,l),
(165,761,l),
(285,901,l),
(232,901,l)
);
},
{
closed = 1;
nodes = (
(119,0,l),
(170,0,l),
(170,697,l),
(119,697,l)
);
}
);
width = 289;
}
);
note = Iacute;
unicode = 205;
},
{
glyphname = uni01CF;
layers = (
{
hints = (
{
horizontal = 1;
place = (0, 21);
target = up;
type = BottomGhost;
},
{
horizontal = 1;
place = (697, -20);
target = down;
type = TopGhost;
},
{
place = (119, 51);
place = (119, 51);
type = Stem;
}
);
layerId = m01;
shapes = (
{
closed = 1;
nodes = (
(145,752,l),
(291,901,l),
(248,901,l),
(145,796,l),
(42,901,l),
(-2,901,l)
);
},
{
closed = 1;
nodes = (
(119,0,l),
(170,0,l),
(170,697,l),
(119,697,l)
);
}
);
width = 289;
}
);
note = uni01CF;
unicode = 463;
},
{
glyphname = Icircumflex;
kernLeft = B;
kernRight = H;
layers = (
{
hints = (
{
horizontal = 1;
place = (0, 21);
target = up;
type = BottomGhost;
},
{
horizontal = 1;
place = (697, -20);
target = down;
type = TopGhost;
},
{
place = (119, 51);
place = (119, 51);
type = Stem;
}
);
layerId = m01;
shapes = (
{
closed = 1;
nodes = (
(-2,755,l),
(42,755,l),
(145,862,l),
(248,755,l),
(291,755,l),
(145,908,l)
);
},
{
closed = 1;
nodes = (
(119,0,l),
(170,0,l),
(170,697,l),
(119,697,l)
);
}
);
width = 289;
}
);
note = Icircumflex;
unicode = 206;
},
{
glyphname = Idieresis;
kernLeft = B;
kernRight = H;
layers = (
{
hints = (
{
horizontal = 1;
place = (0, 21);
target = up;
type = BottomGhost;
},
{
horizontal = 1;
place = (697, -20);
target = down;
type = TopGhost;
},
{
horizontal = 1;
place = (803, 98);
place = (803, 98);
type = Stem;
},
{
place = (29, 57);
place = (29, 57);
type = Stem;
},
{
place = (119, 51);
place = (119, 51);
type = Stem;
},
{
place = (204, 56);
place = (204, 56);
type = Stem;
}
);
layerId = m01;
shapes = (
{
closed = 1;
nodes = (
(29,803,l),
(86,803,l),
(86,901,l),
(29,901,l)
);
},
{
closed = 1;
nodes = (
(204,803,l),
(260,803,l),
(260,901,l),
(204,901,l)
);
},
{
closed = 1;
nodes = (
(119,0,l),
(170,0,l),
(170,697,l),
(119,697,l)
);
}
);
width = 289;
}
);
note = Idieresis;
unicode = 207;
},
{
glyphname = Idotaccent;
kernLeft = B;
kernRight = H;
layers = (
{
hints = (
{
horizontal = 1;
place = (0, 21);
target = up;
type = BottomGhost;
},
{
horizontal = 1;
place = (697, -20);
target = down;
type = TopGhost;
},
{
horizontal = 1;
place = (803, 98);
place = (803, 98);
type = Stem;
},
{
place = (116, 57);
place = (116, 57);
type = Stem;
},
{
place = (119, 51);
place = (119, 51);
type = Stem;
}
);
layerId = m01;
shapes = (
{
closed = 1;
nodes = (
(116,803,l),
(173,803,l),
(173,901,l),
(116,901,l)
);
},
{
closed = 1;
nodes = (
(119,0,l),
(170,0,l),
(170,697,l),
(119,697,l)
);
}
);
width = 289;
}
);
note = Idotaccent;
unicode = 304;
},
{
glyphname = uni1ECA;
layers = (
{
hints = (
{
horizontal = 1;
place = (-173, 97);
place = (-173, 97);
type = Stem;
},
{
horizontal = 1;
place = (0, 21);
target = up;
type = BottomGhost;
},
{
horizontal = 1;
place = (697, -20);
target = down;
type = TopGhost;
},
{
place = (119, 51);
place = (119, 51);
type = Stem;
},
{
place = (116, 57);
place = (116, 57);
type = Stem;
}
);
layerId = m01;
shapes = (
{
closed = 1;
nodes = (
(119,0,l),
(170,0,l),
(170,697,l),
(119,697,l)
);
},
{
closed = 1;
nodes = (
(116,-173,l),
(173,-173,l),
(173,-76,l),
(116,-76,l)
);
}
);
width = 289;
}
);
note = uni1ECA;
unicode = 7882;
},
{
glyphname = Igrave;
kernLeft = B;
kernRight = H;
layers = (
{
hints = (
{
horizontal = 1;
place = (0, 21);
target = up;
type = BottomGhost;
},
{
horizontal = 1;
place = (697, -20);
target = down;
type = TopGhost;
},
{
horizontal = 1;
place = (761, 140);
place = (761, 140);
type = Stem;
},
{
place = (119, 51);
place = (119, 51);
type = Stem;
}
);
layerId = m01;
shapes = (
{
closed = 1;
nodes = (
(124,761,l),
(164,761,l),
(60,901,l),
(7,901,l)
);
},
{
closed = 1;
nodes = (
(119,0,l),
(170,0,l),
(170,697,l),
(119,697,l)
);
}
);
width = 289;
}
);
note = Igrave;
unicode = 204;
},
{
glyphname = uni1EC8;
layers = (
{
hints = (
{
horizontal = 1;
place = (0, 21);
target = up;
type = BottomGhost;
},
{
horizontal = 1;
place = (697, -20);
target = down;
type = TopGhost;
},
{
horizontal = 1;
place = (892, 30);
place = (892, 30);
type = Stem;
},
{
place = (119, 51);
place = (119, 51);
type = Stem;
},
{
place = (216, 36);
place = (216, 36);
type = Stem;
}
);
layerId = m01;
shapes = (
{
closed = 1;
nodes = (
(140,736,l),
(188,747,o),
(252,756,o),
(252,825,cs),
(252,888,o),
(193,922,o),
(117,922,cs),
(102,922,l),
(102,892,l),
(117,892,ls),
(168,892,o),
(216,874,o),
(216,826,cs),
(216,780,o),
(170,773,o),
(131,766,c)
);
},
{
closed = 1;
nodes = (
(119,0,l),
(170,0,l),
(170,697,l),
(119,697,l)
);
}
);
width = 289;
}
);
note = uni1EC8;
unicode = 7880;
},
{
glyphname = Imacron;
kernLeft = B;
kernRight = H;
layers = (
{
hints = (
{
horizontal = 1;
place = (0, 21);
target = up;
type = BottomGhost;
},
{
horizontal = 1;
place = (697, -20);
target = down;
type = TopGhost;
},
{
horizontal = 1;
place = (816, 31);
place = (816, 31);
type = Stem;
},
{
place = (119, 51);
place = (119, 51);
type = Stem;
}
);
layerId = m01;
shapes = (
{
closed = 1;
nodes = (
(10,816,l),
(278,816,l),
(278,847,l),
(10,847,l)
);
},
{
closed = 1;
nodes = (
(119,0,l),
(170,0,l),
(170,697,l),
(119,697,l)
);
}
);
width = 289;
}
);
note = Imacron;
unicode = 298;
},
{
glyphname = Iogonek;
kernLeft = B;
kernRight = H;
layers = (
{
hints = (
{
horizontal = 1;
place = (-211, 34);
place = (-211, 34);
type = Stem;
},
{
horizontal = 1;
place = (0, 21);
target = up;
type = BottomGhost;
},
{
horizontal = 1;
place = (697, -20);
target = down;
type = TopGhost;
},
{
place = (37, 32);
place = (37, 32);
type = Stem;
},
{
place = (119, 51);
place = (119, 51);
type = Stem;
}
);
layerId = m01;
shapes = (
{
closed = 1;
nodes = (
(183,-150,l),
(164,-167,o),
(141,-177,o),
(118,-177,cs),
(92,-177,o),
(69,-164,o),
(69,-130,cs),
(69,-72,o),
(125,-27,o),
(169,0,c),
(170,0,l),
(170,697,l),
(119,697,l),
(119,0,l),
(124,0,l),
(81,-29,o),
(37,-78,o),
(37,-134,cs),
(37,-182,o),
(74,-211,o),
(120,-211,cs),
(153,-211,o),
(183,-195,o),
(207,-171,c)
);
}
);
width = 289;
}
);
note = Iogonek;
unicode = 302;
},
{
glyphname = Itilde;
layers = (
{
hints = (
{
horizontal = 1;
place = (0, 21);
target = up;
type = BottomGhost;
},
{
horizontal = 1;
place = (697, -20);
target = down;
type = TopGhost;
},
{
horizontal = 1;
place = (780, 33);
place = (780, 33);
type = Stem;
},
{
horizontal = 1;
place = (873, 32);
place = (873, 32);
type = Stem;
},
{
place = (-11, 30);
place = (-11, 30);
type = Stem;
},
{
place = (119, 51);
place = (119, 51);
type = Stem;
},
{
place = (268, 32);
place = (268, 32);
type = Stem;
}
);
layerId = m01;
shapes = (
{
closed = 1;
nodes = (
(266,780,o),
(300,827,o),
(300,901,c),
(268,901,l),
(268,847,o),
(245,813,o),
(216,813,cs),
(154,813,o),
(154,905,o),
(77,905,cs),
(23,905,o),
(-11,863,o),
(-11,790,c),
(19,790,l),
(19,842,o),
(41,873,o),
(76,873,cs),
(135,873,o),
(131,780,o),
(216,780,cs)
);
},
{
closed = 1;
nodes = (
(119,0,l),
(170,0,l),
(170,697,l),
(119,697,l)
);
}
);
width = 289;
}
);
note = Itilde;
unicode = 296;
},
{
glyphname = J;
kernLeft = J;
kernRight = J;
lastChange = "2022-12-23 03:24:29 +0000";
layers = (
{
hints = (
{
horizontal = 1;
place = (-8, 48);
place = (-8, 48);
type = Stem;
},
{
horizontal = 1;
place = (650, 47);
place = (650, 47);
type = Stem;
},
{
place = (47, 50);
place = (47, 50);
type = Stem;
},
{
place = (429, 50);
place = (429, 50);
type = Stem;
}
);
layerId = m01;
shapes = (
{
closed = 1;
nodes = (
(46,199,o),
(48,184,qs),
(59,93,o),
(174,-8,o),
(265,-8,qs),
(369,-8,o),
(479,125,o),
(479,252,qs),
(479,697,l),
(183,697,l),
(139,673,l),
(139,650,l),
(429,650,l),
(429,254,ls),
(429,40,o),
(265,40,qs),
(190,40,o),
(102,126,o),
(97,205,q),
(62,201,ls)
);
}
);
width = 586;
}
);
note = J;
unicode = 74;
},
{
glyphname = K;
kernLeft = B;
kernRight = K;
lastChange = "2022-12-23 03:24:50 +0000";
layers = (
{
hints = (
{
horizontal = 1;
place = (0, 21);
target = up;
type = BottomGhost;
},
{
horizontal = 1;
place = (697, -20);
target = down;
type = TopGhost;
},
{
place = (119, 51);
place = (119, 51);
type = Stem;
}
);
layerId = m01;
shapes = (
{
closed = 1;
nodes = (
(610,0,o),
(601,13,qs),
(350,396,l),
(644,697,l),
(576,697,l),
(170,275,l),
(170,697,l),
(145,697,l),
(119,647,l),
(119,0,l),
(170,0,l),
(170,206,l),
(315,360,l),
(550,0,l),
(594,0,ls)
);
}
);
width = 705;
}
);
note = K;
unicode = 75;
},
{
glyphname = uni0136;
kernLeft = B;
kernRight = K;
layers = (
{
hints = (
{
horizontal = 1;
place = (0, 21);
target = up;
type = BottomGhost;
},
{
horizontal = 1;
place = (697, -20);
target = down;
type = TopGhost;
},
{
place = (119, 51);
place = (119, 51);
type = Stem;
}
);
layerId = m01;
shapes = (
{
closed = 1;
nodes = (
(400,446,l),
(644,697,l),
(576,697,l),
(170,275,l),
(170,697,l),
(119,697,l),
(119,0,l),
(170,0,l),
(170,210,l),
(365,410,l),
(602,0,l),
(661,0,l)
);
},
{
closed = 1;
nodes = (
(229,-219,l),
(263,-219,l),
(379,-57,l),
(326,-57,l)
);
}
);
width = 705;
}
);
note = uni0136;
unicode = 310;
},
{
glyphname = L;
kernLeft = B;
kernRight = L;
layers = (
{
hints = (
{
horizontal = 1;
place = (0, 47);
place = (0, 47);
type = Stem;
},
{
horizontal = 1;
place = (697, -20);
target = down;
type = TopGhost;
},
{
place = (119, 51);
place = (119, 51);
type = Stem;
}
);
layerId = m01;
shapes = (
{
closed = 1;
nodes = (
(119,0,l),
(495,0,l),
(495,47,l),
(170,47,l),
(170,697,l),
(119,697,l)
);
}
);
width = 534;
}
);
note = L;
unicode = 76;
},
{
glyphname = Lacute;
kernLeft = B;
kernRight = L;
layers = (
{
hints = (
{
horizontal = 1;
place = (0, 47);
place = (0, 47);
type = Stem;
},
{
horizontal = 1;
place = (697, -20);
target = down;
type = TopGhost;
},
{
horizontal = 1;
place = (761, 140);
place = (761, 140);
type = Stem;
},
{
place = (119, 51);
place = (119, 51);
type = Stem;
}
);
layerId = m01;
shapes = (
{
closed = 1;
nodes = (
(125,761,l),
(165,761,l),
(285,901,l),
(232,901,l)
);
},
{
closed = 1;
nodes = (
(119,0,l),
(495,0,l),
(495,47,l),
(170,47,l),
(170,697,l),
(119,697,l)
);
}
);
width = 534;
}
);
note = Lacute;
unicode = 313;
},
{
glyphname = Lcaron;
kernLeft = B;
kernRight = L;
layers = (
{
hints = (
{
horizontal = 1;
place = (0, 47);
place = (0, 47);
type = Stem;
},
{
horizontal = 1;
place = (697, -20);
target = down;
type = TopGhost;
},
{
place = (119, 51);
place = (119, 51);
type = Stem;
}
);
layerId = m01;
shapes = (
{
closed = 1;
nodes = (
(119,0,l),
(495,0,l),
(495,47,l),
(170,47,l),
(170,697,l),
(119,697,l)
);
},
{
closed = 1;
nodes = (
(351,495,l),
(382,495,l),
(461,697,l),
(409,697,l)
);
}
);
width = 534;
}
);
note = Lcaron;
unicode = 317;
},
{
glyphname = uni013B;
kernLeft = B;
kernRight = L;
layers = (
{
hints = (
{
horizontal = 1;
place = (0, 47);
place = (0, 47);
type = Stem;
},
{
horizontal = 1;
place = (697, -20);
target = down;
type = TopGhost;
},
{
place = (119, 51);
place = (119, 51);
type = Stem;
}
);
layerId = m01;
shapes = (
{
closed = 1;
nodes = (
(119,0,l),
(495,0,l),
(495,47,l),
(170,47,l),
(170,697,l),
(119,697,l)
);
},
{
closed = 1;
nodes = (
(184,-219,l),
(218,-219,l),
(334,-57,l),
(281,-57,l)
);
}
);
width = 534;
}
);
note = uni013B;
unicode = 315;
},
{
glyphname = Lslash;
layers = (
{
hints = (
{
horizontal = 1;
place = (0, 47);
place = (0, 47);
type = Stem;
},
{
horizontal = 1;
place = (697, -20);
target = down;
type = TopGhost;
},
{
place = (119, 51);
place = (119, 51);
type = Stem;
}
);
layerId = m01;
shapes = (
{
closed = 1;
nodes = (
(170,47,l),
(170,312,l),
(353,456,l),
(353,508,l),
(170,364,l),
(170,697,l),
(119,697,l),
(119,323,l),
(59,276,l),
(59,224,l),
(119,271,l),
(119,0,l),
(495,0,l),
(495,47,l)
);
}
);
width = 534;
}
);
note = Lslash;
unicode = 321;
},
{
glyphname = M;
kernLeft = B;
kernRight = H;
lastChange = "2022-12-23 03:25:37 +0000";
layers = (
{
hints = (
{
horizontal = 1;
place = (0, 21);
target = up;
type = BottomGhost;
},
{
horizontal = 1;
place = (632, 65);
place = (632, 65);
type = Stem;
},
{
place = (119, 51);
place = (119, 51);
type = Stem;
},
{
place = (711, 52);
place = (711, 52);
type = Stem;
}
);
layerId = m01;
shapes = (
{
closed = 1;
nodes = (
(170,0,o),
(170,15,qs),
(170,632,l),
(416,57,l),
(466,57,l),
(711,632,l),
(711,15,ls),
(711,0,o),
(726,0,qs),
(763,0,l),
(763,697,l),
(687,697,l),
(441,116,l),
(194,697,l),
(119,697,l),
(119,0,l),
(155,0,ls)
);
}
);
width = 882;
}
);
note = M;
unicode = 77;
},
{
glyphname = N;
kernLeft = B;
kernRight = H;
lastChange = "2022-12-23 03:25:53 +0000";
layers = (
{
hints = (
{
horizontal = 1;
place = (0, 21);
target = up;
type = BottomGhost;
},
{
horizontal = 1;
place = (697, -20);
target = down;
type = TopGhost;
},
{
place = (119, 51);
place = (119, 51);
type = Stem;
},
{
place = (540, 50);
place = (540, 50);
type = Stem;
},
{
horizontal = 1;
place = (0, 84);
place = (0, 84);
type = Stem;
},
{
horizontal = 1;
place = (613, 84);
place = (613, 84);
type = Stem;
}
);
layerId = m01;
shapes = (
{
closed = 1;
nodes = (
(540,84,l),
(176,697,l),
(119,697,l),
(119,0,l),
(145,0,l),
(170,50,l),
(170,613,l),
(532,0,l),
(590,0,l),
(590,697,l),
(540,697,l)
);
}
);
width = 709;
}
);
note = N;
unicode = 78;
},
{
glyphname = Nacute;
kernLeft = B;
kernRight = H;
layers = (
{
hints = (
{
horizontal = 1;
place = (0, 21);
target = up;
type = BottomGhost;
},
{
horizontal = 1;
place = (697, -20);
target = down;
type = TopGhost;
},
{
horizontal = 1;
place = (761, 140);
place = (761, 140);
type = Stem;
},
{
place = (119, 51);
place = (119, 51);
type = Stem;
},
{
place = (540, 50);
place = (540, 50);
type = Stem;
},
{
horizontal = 1;
place = (0, 84);
place = (0, 84);
type = Stem;
},
{
horizontal = 1;
place = (613, 84);
place = (613, 84);
type = Stem;
}
);
layerId = m01;
shapes = (
{
closed = 1;
nodes = (
(495,901,l),
(442,901,l),
(335,761,l),
(375,761,l)
);
},
{
closed = 1;
nodes = (
(540,697,l),
(540,84,l),
(176,697,l),
(119,697,l),
(119,0,l),
(170,0,l),
(170,613,l),
(532,0,l),
(590,0,l),
(590,697,l)
);
}
);
width = 709;
}
);
note = Nacute;
unicode = 323;
},
{
glyphname = Ncaron;
kernLeft = B;
kernRight = H;
layers = (
{
hints = (
{
horizontal = 1;
place = (0, 21);
target = up;
type = BottomGhost;
},
{
horizontal = 1;
place = (697, -20);
target = down;
type = TopGhost;
},
{
place = (119, 51);
place = (119, 51);
type = Stem;
},
{
place = (540, 50);
place = (540, 50);
type = Stem;
},
{
horizontal = 1;
place = (0, 84);
place = (0, 84);
type = Stem;
},
{
horizontal = 1;
place = (613, 84);
place = (613, 84);
type = Stem;
}
);
layerId = m01;
shapes = (
{
closed = 1;
nodes = (
(501,901,l),
(458,901,l),
(355,796,l),
(252,901,l),
(208,901,l),
(355,752,l)
);
},
{
closed = 1;
nodes = (
(540,697,l),
(540,84,l),
(176,697,l),
(119,697,l),
(119,0,l),
(170,0,l),
(170,613,l),
(532,0,l),
(590,0,l),
(590,697,l)
);
}
);
width = 709;
}
);
note = Ncaron;
unicode = 327;
},
{
glyphname = uni0145;
kernLeft = B;
kernRight = H;
layers = (
{
hints = (
{
horizontal = 1;
place = (0, 21);
target = up;
type = BottomGhost;
},
{
horizontal = 1;
place = (697, -20);
target = down;
type = TopGhost;
},
{
place = (119, 51);
place = (119, 51);
type = Stem;
},
{
place = (540, 50);
place = (540, 50);
type = Stem;
},
{
horizontal = 1;
place = (0, 84);
place = (0, 84);
type = Stem;
},
{
horizontal = 1;
place = (613, 84);
place = (613, 84);
type = Stem;
}
);
layerId = m01;
shapes = (
{
closed = 1;
nodes = (
(540,697,l),
(540,84,l),
(176,697,l),
(119,697,l),
(119,0,l),
(170,0,l),
(170,613,l),
(532,0,l),
(590,0,l),
(590,697,l)
);
},
{
closed = 1;
nodes = (
(231,-219,l),
(265,-219,l),
(381,-57,l),
(328,-57,l)
);
}
);
width = 709;
}
);
note = uni0145;
unicode = 325;
},
{
glyphname = Eng;
kernLeft = B;
kernRight = H;
layers = (
{
hints = (
{
horizontal = 1;
place = (-167, 37);
place = (-167, 37);
type = Stem;
},
{
horizontal = 1;
place = (0, 21);
target = up;
type = BottomGhost;
},
{
horizontal = 1;
place = (697, -20);
target = down;
type = TopGhost;
},
{
place = (119, 51);
place = (119, 51);
type = Stem;
},
{
place = (540, 50);
place = (540, 50);
type = Stem;
},
{
horizontal = 1;
place = (613, 84);
place = (613, 84);
type = Stem;
},
{
place = (542, 48);
place = (542, 48);
type = Stem;
}
);
layerId = m01;
shapes = (
{
closed = 1;
nodes = (
(540,697,l),
(540,83,l),
(176,697,l),
(119,697,l),
(119,0,l),
(170,0,l),
(170,613,l),
(532,0,ls),
(537,-9,o),
(542,-21,o),
(542,-36,cs),
(542,-85,o),
(515,-130,o),
(442,-130,cs),
(428,-130,o),
(404,-126,o),
(385,-119,c),
(382,-154,l),
(405,-162,o),
(434,-167,o),
(454,-167,cs),
(550,-167,o),
(590,-103,o),
(590,-18,cs),
(590,697,l)
);
}
);
width = 709;
}
);
note = Eng;
unicode = 330;
},
{
glyphname = Ntilde;
kernLeft = B;
kernRight = H;
layers = (
{
hints = (
{
horizontal = 1;
place = (0, 21);
target = up;
type = BottomGhost;
},
{
horizontal = 1;
place = (697, -20);
target = down;
type = TopGhost;
},
{
horizontal = 1;
place = (780, 33);
place = (780, 33);
type = Stem;
},
{
horizontal = 1;
place = (873, 32);
place = (873, 32);
type = Stem;
},
{
place = (119, 51);
place = (119, 51);
type = Stem;
},
{
place = (199, 30);
place = (199, 30);
type = Stem;
},
{
place = (478, 32);
place = (478, 32);
type = Stem;
},
{
place = (540, 50);
place = (540, 50);
type = Stem;
},
{
horizontal = 1;
place = (0, 84);
place = (0, 84);
type = Stem;
},
{
horizontal = 1;
place = (613, 84);
place = (613, 84);
type = Stem;
}
);
layerId = m01;
shapes = (
{
closed = 1;
nodes = (
(345,873,o),
(341,780,o),
(426,780,cs),
(476,780,o),
(510,827,o),
(510,901,c),
(478,901,l),
(478,847,o),
(455,813,o),
(426,813,cs),
(364,813,o),
(364,905,o),
(287,905,cs),
(233,905,o),
(199,863,o),
(199,790,c),
(229,790,l),
(229,842,o),
(251,873,o),
(286,873,cs)
);
},
{
closed = 1;
nodes = (
(540,697,l),
(540,84,l),
(176,697,l),
(119,697,l),
(119,0,l),
(170,0,l),
(170,613,l),
(532,0,l),
(590,0,l),
(590,697,l)
);
}
);
width = 709;
}
);
note = Ntilde;
unicode = 209;
},
{
glyphname = O;
kernLeft = C;
kernRight = D;
lastChange = "2022-12-23 03:26:43 +0000";
layers = (
{
hints = (
{
horizontal = 1;
place = (-8, 48);
place = (-8, 48);
type = Stem;
},
{
horizontal = 1;
place = (657, 48);
place = (657, 48);
type = Stem;
},
{
place = (73, 51);
place = (73, 51);
type = Stem;
},
{
place = (650, 51);
place = (650, 51);
type = Stem;
}
);
layerId = m01;
shapes = (
{
closed = 1;
nodes = (
(576,-8,o),
(701,133,o),
(701,348,cs),
(701,563,o),
(575,705,o),
(387,705,cs),
(198,705,o),
(73,564,o),
(73,348,cs),
(73,133,o),
(198,-8,o),
(387,-8,cs)
);
},
{
closed = 1;
nodes = (
(226,29,o),
(124,160,o),
(124,348,cs),
(124,537,o),
(226,667,o),
(387,667,cs),
(547,667,o),
(650,537,o),
(650,348,cs),
(650,160,o),
(547,29,o),
(387,29,cs)
);
}
);
width = 774;
}
);
note = O;
unicode = 79;
},
{
glyphname = Oacute;
kernLeft = C;
kernRight = D;
layers = (
{
hints = (
{
horizontal = 1;
place = (-8, 48);
place = (-8, 48);
type = Stem;
},
{
horizontal = 1;
place = (657, 48);
place = (657, 48);
type = Stem;
},
{
horizontal = 1;
place = (761, 140);
place = (761, 140);
type = Stem;
},
{
place = (73, 51);
place = (73, 51);
type = Stem;
},
{
place = (650, 51);
place = (650, 51);
type = Stem;
}
);
layerId = m01;
shapes = (
{
closed = 1;
nodes = (
(367,761,l),
(407,761,l),
(527,901,l),
(474,901,l)
);
},
{
closed = 1;
nodes = (
(576,-8,o),
(701,133,o),
(701,348,cs),
(701,563,o),
(575,705,o),
(387,705,cs),
(198,705,o),
(73,564,o),
(73,348,cs),
(73,133,o),
(198,-8,o),
(387,-8,cs)
);
},
{
closed = 1;
nodes = (
(226,40,o),
(124,160,o),
(124,348,cs),
(124,537,o),
(226,657,o),
(387,657,cs),
(547,657,o),
(650,537,o),
(650,348,cs),
(650,160,o),
(547,40,o),
(387,40,cs)
);
}
);
width = 774;
}
);
note = Oacute;
unicode = 211;
},
{
glyphname = uni01D1;
kernLeft = C;
kernRight = D;
layers = (
{
hints = (
{
horizontal = 1;
place = (-8, 48);
place = (-8, 48);
type = Stem;
},
{
horizontal = 1;
place = (657, 48);
place = (657, 48);
type = Stem;
},
{
place = (73, 51);
place = (73, 51);
type = Stem;
},
{
place = (650, 51);
place = (650, 51);
type = Stem;
}
);
layerId = m01;
shapes = (
{
closed = 1;
nodes = (
(387,752,l),
(533,901,l),
(490,901,l),
(387,796,l),
(284,901,l),
(240,901,l)
);
},
{
closed = 1;
nodes = (
(576,-8,o),
(701,133,o),
(701,348,cs),
(701,563,o),
(575,705,o),
(387,705,cs),
(198,705,o),
(73,564,o),
(73,348,cs),
(73,133,o),
(198,-8,o),
(387,-8,cs)
);
},
{
closed = 1;
nodes = (
(226,40,o),
(124,160,o),
(124,348,cs),
(124,537,o),
(226,657,o),
(387,657,cs),
(547,657,o),
(650,537,o),
(650,348,cs),
(650,160,o),
(547,40,o),
(387,40,cs)
);
}
);
width = 774;
}
);
note = uni01D1;
unicode = 465;
},
{
glyphname = Ocircumflex;
kernLeft = C;
kernRight = D;
layers = (
{
hints = (
{
horizontal = 1;
place = (-8, 48);
place = (-8, 48);
type = Stem;
},
{
horizontal = 1;
place = (657, 48);
place = (657, 48);
type = Stem;
},
{
place = (73, 51);
place = (73, 51);
type = Stem;
},
{
place = (650, 51);
place = (650, 51);
type = Stem;
}
);
layerId = m01;
shapes = (
{
closed = 1;
nodes = (
(240,755,l),
(284,755,l),
(387,862,l),
(490,755,l),
(533,755,l),
(387,908,l)
);
},
{
closed = 1;
nodes = (
(576,-8,o),
(701,133,o),
(701,348,cs),
(701,563,o),
(575,705,o),
(387,705,cs),
(198,705,o),
(73,564,o),
(73,348,cs),
(73,133,o),
(198,-8,o),
(387,-8,cs)
);
},
{
closed = 1;
nodes = (
(226,40,o),
(124,160,o),
(124,348,cs),
(124,537,o),
(226,657,o),
(387,657,cs),
(547,657,o),
(650,537,o),
(650,348,cs),
(650,160,o),
(547,40,o),
(387,40,cs)
);
}
);
width = 774;
}
);
note = Ocircumflex;
unicode = 212;
},
{
glyphname = uni1ED0;
kernLeft = C;
kernRight = D;
layers = (
{
hints = (
{
horizontal = 1;
place = (-8, 48);
place = (-8, 48);
type = Stem;
},
{
horizontal = 1;
place = (657, 48);
place = (657, 48);
type = Stem;
},
{
horizontal = 1;
place = (950, 140);
place = (950, 140);
type = Stem;
},
{
place = (73, 51);
place = (73, 51);
type = Stem;
},
{
place = (650, 51);
place = (650, 51);
type = Stem;
}
);
layerId = m01;
shapes = (
{
closed = 1;
nodes = (
(367,950,l),
(407,950,l),
(527,1090,l),
(474,1090,l)
);
},
{
closed = 1;
nodes = (
(240,755,l),
(284,755,l),
(387,862,l),
(490,755,l),
(533,755,l),
(387,908,l)
);
},
{
closed = 1;
nodes = (
(576,-8,o),
(701,133,o),
(701,348,cs),
(701,563,o),
(575,705,o),
(387,705,cs),
(198,705,o),
(73,564,o),
(73,348,cs),
(73,133,o),
(198,-8,o),
(387,-8,cs)
);
},
{
closed = 1;
nodes = (
(226,40,o),
(124,160,o),
(124,348,cs),
(124,537,o),
(226,657,o),
(387,657,cs),
(547,657,o),
(650,537,o),
(650,348,cs),
(650,160,o),
(547,40,o),
(387,40,cs)
);
}
);
width = 774;
}
);
note = uni1ED0;
unicode = 7888;
},
{
glyphname = uni1ED8;
kernLeft = C;
kernRight = D;
layers = (
{
hints = (
{
horizontal = 1;
place = (-173, 97);
place = (-173, 97);
type = Stem;
},
{
horizontal = 1;
place = (-8, 48);
place = (-8, 48);
type = Stem;
},
{
horizontal = 1;
place = (657, 48);
place = (657, 48);
type = Stem;
},
{
place = (73, 51);
place = (73, 51);
type = Stem;
},
{
place = (359, 57);
place = (359, 57);
type = Stem;
},
{
place = (650, 51);
place = (650, 51);
type = Stem;
}
);
layerId = m01;
shapes = (
{
closed = 1;
nodes = (
(240,755,l),
(284,755,l),
(387,862,l),
(490,755,l),
(533,755,l),
(387,908,l)
);
},
{
closed = 1;
nodes = (
(576,-8,o),
(701,133,o),
(701,348,cs),
(701,563,o),
(575,705,o),
(387,705,cs),
(198,705,o),
(73,564,o),
(73,348,cs),
(73,133,o),
(198,-8,o),
(387,-8,cs)
);
},
{
closed = 1;
nodes = (
(226,40,o),
(124,160,o),
(124,348,cs),
(124,537,o),
(226,657,o),
(387,657,cs),
(547,657,o),
(650,537,o),
(650,348,cs),
(650,160,o),
(547,40,o),
(387,40,cs)
);
},
{
closed = 1;
nodes = (
(359,-173,l),
(416,-173,l),
(416,-76,l),
(359,-76,l)
);
}
);
width = 774;
}
);
note = uni1ED8;
unicode = 7896;
},
{
glyphname = uni1ED2;
kernLeft = C;
kernRight = D;
layers = (
{
hints = (
{
horizontal = 1;
place = (-8, 48);
place = (-8, 48);
type = Stem;
},
{
horizontal = 1;
place = (657, 48);
place = (657, 48);
type = Stem;
},
{
horizontal = 1;
place = (950, 140);
place = (950, 140);
type = Stem;
},
{
place = (73, 51);
place = (73, 51);
type = Stem;
},
{
place = (650, 51);
place = (650, 51);
type = Stem;
}
);
layerId = m01;
shapes = (
{
closed = 1;
nodes = (
(367,950,l),
(407,950,l),
(303,1090,l),
(250,1090,l)
);
},
{
closed = 1;
nodes = (
(240,755,l),
(284,755,l),
(387,862,l),
(490,755,l),
(533,755,l),
(387,908,l)
);
},
{
closed = 1;
nodes = (
(576,-8,o),
(701,133,o),
(701,348,cs),
(701,563,o),
(575,705,o),
(387,705,cs),
(198,705,o),
(73,564,o),
(73,348,cs),
(73,133,o),
(198,-8,o),
(387,-8,cs)
);
},
{
closed = 1;
nodes = (
(226,40,o),
(124,160,o),
(124,348,cs),
(124,537,o),
(226,657,o),
(387,657,cs),
(547,657,o),
(650,537,o),
(650,348,cs),
(650,160,o),
(547,40,o),
(387,40,cs)
);
}
);
width = 774;
}
);
note = uni1ED2;
unicode = 7890;
},
{
glyphname = uni1ED4;
kernLeft = C;
kernRight = D;
layers = (
{
hints = (
{
horizontal = 1;
place = (-8, 48);
place = (-8, 48);
type = Stem;
},
{
horizontal = 1;
place = (657, 48);
place = (657, 48);
type = Stem;
},
{
horizontal = 1;
place = (1081, 30);
place = (1081, 30);
type = Stem;
},
{
place = (73, 51);
place = (73, 51);
type = Stem;
},
{
place = (458, 36);
place = (458, 36);
type = Stem;
},
{
place = (650, 51);
place = (650, 51);
type = Stem;
}
);
layerId = m01;
shapes = (
{
closed = 1;
nodes = (
(382,925,l),
(430,936,o),
(494,945,o),
(494,1014,cs),
(494,1077,o),
(435,1111,o),
(359,1111,cs),
(344,1111,l),
(344,1081,l),
(359,1081,ls),
(410,1081,o),
(458,1063,o),
(458,1015,cs),
(458,969,o),
(412,962,o),
(373,955,c)
);
},
{
closed = 1;
nodes = (
(240,755,l),
(284,755,l),
(387,862,l),
(490,755,l),
(533,755,l),
(387,908,l)
);
},
{
closed = 1;
nodes = (
(576,-8,o),
(701,133,o),
(701,348,cs),
(701,563,o),
(575,705,o),
(387,705,cs),
(198,705,o),
(73,564,o),
(73,348,cs),
(73,133,o),
(198,-8,o),
(387,-8,cs)
);
},
{
closed = 1;
nodes = (
(226,40,o),
(124,160,o),
(124,348,cs),
(124,537,o),
(226,657,o),
(387,657,cs),
(547,657,o),
(650,537,o),
(650,348,cs),
(650,160,o),
(547,40,o),
(387,40,cs)
);
}
);
width = 774;
}
);
note = uni1ED4;
unicode = 7892;
},
{
glyphname = uni1ED6;
kernLeft = C;
kernRight = D;
layers = (
{
hints = (
{
horizontal = 1;
place = (-8, 48);
place = (-8, 48);
type = Stem;
},
{
horizontal = 1;
place = (657, 48);
place = (657, 48);
type = Stem;
},
{
horizontal = 1;
place = (969, 33);
place = (969, 33);
type = Stem;
},
{
horizontal = 1;
place = (1062, 32);
place = (1062, 32);
type = Stem;
},
{
place = (73, 51);
place = (73, 51);
type = Stem;
},
{
place = (231, 30);
place = (231, 30);
type = Stem;
},
{
place = (510, 32);
place = (510, 32);
type = Stem;
},
{
place = (650, 51);
place = (650, 51);
type = Stem;
}
);
layerId = m01;
shapes = (
{
closed = 1;
nodes = (
(508,969,o),
(542,1016,o),
(542,1090,c),
(510,1090,l),
(510,1036,o),
(487,1002,o),
(458,1002,cs),
(396,1002,o),
(396,1094,o),
(319,1094,cs),
(265,1094,o),
(231,1052,o),
(231,979,c),
(261,979,l),
(261,1031,o),
(283,1062,o),
(318,1062,cs),
(377,1062,o),
(373,969,o),
(458,969,cs)
);
},
{
closed = 1;
nodes = (
(240,755,l),
(284,755,l),
(387,862,l),
(490,755,l),
(533,755,l),
(387,908,l)
);
},
{
closed = 1;
nodes = (
(576,-8,o),
(701,133,o),
(701,348,cs),
(701,563,o),
(575,705,o),
(387,705,cs),
(198,705,o),
(73,564,o),
(73,348,cs),
(73,133,o),
(198,-8,o),
(387,-8,cs)
);
},
{
closed = 1;
nodes = (
(226,40,o),
(124,160,o),
(124,348,cs),
(124,537,o),
(226,657,o),
(387,657,cs),
(547,657,o),
(650,537,o),
(650,348,cs),
(650,160,o),
(547,40,o),
(387,40,cs)
);
}
);
width = 774;
}
);
note = uni1ED6;
unicode = 7894;
},
{
glyphname = Odieresis;
kernLeft = C;
kernRight = D;
layers = (
{
hints = (
{
horizontal = 1;
place = (-8, 48);
place = (-8, 48);
type = Stem;
},
{
horizontal = 1;
place = (657, 48);
place = (657, 48);
type = Stem;
},
{
horizontal = 1;
place = (803, 98);
place = (803, 98);
type = Stem;
},
{
place = (73, 51);
place = (73, 51);
type = Stem;
},
{
place = (271, 57);
place = (271, 57);
type = Stem;
},
{
place = (446, 56);
place = (446, 56);
type = Stem;
},
{
place = (650, 51);
place = (650, 51);
type = Stem;
}
);
layerId = m01;
shapes = (
{
closed = 1;
nodes = (
(271,803,l),
(328,803,l),
(328,901,l),
(271,901,l)
);
},
{
closed = 1;
nodes = (
(446,803,l),
(502,803,l),
(502,901,l),
(446,901,l)
);
},
{
closed = 1;
nodes = (
(576,-8,o),
(701,133,o),
(701,348,cs),
(701,563,o),
(575,705,o),
(387,705,cs),
(198,705,o),
(73,564,o),
(73,348,cs),
(73,133,o),
(198,-8,o),
(387,-8,cs)
);
},
{
closed = 1;
nodes = (
(226,40,o),
(124,160,o),
(124,348,cs),
(124,537,o),
(226,657,o),
(387,657,cs),
(547,657,o),
(650,537,o),
(650,348,cs),
(650,160,o),
(547,40,o),
(387,40,cs)
);
}
);
width = 774;
}
);
note = Odieresis;
unicode = 214;
},
{
glyphname = uni1ECC;
kernLeft = C;
kernRight = D;
layers = (
{
hints = (
{
horizontal = 1;
place = (-173, 97);
place = (-173, 97);
type = Stem;
},
{
horizontal = 1;
place = (-8, 48);
place = (-8, 48);
type = Stem;
},
{
horizontal = 1;
place = (657, 48);
place = (657, 48);
type = Stem;
},
{
place = (73, 51);
place = (73, 51);
type = Stem;
},
{
place = (359, 57);
place = (359, 57);
type = Stem;
},
{
place = (650, 51);
place = (650, 51);
type = Stem;
}
);
layerId = m01;
shapes = (
{
closed = 1;
nodes = (
(576,-8,o),
(701,133,o),
(701,348,cs),
(701,563,o),
(575,705,o),
(387,705,cs),
(198,705,o),
(73,564,o),
(73,348,cs),
(73,133,o),
(198,-8,o),
(387,-8,cs)
);
},
{
closed = 1;
nodes = (
(226,40,o),
(124,160,o),
(124,348,cs),
(124,537,o),
(226,657,o),
(387,657,cs),
(547,657,o),
(650,537,o),
(650,348,cs),
(650,160,o),
(547,40,o),
(387,40,cs)
);
},
{
closed = 1;
nodes = (
(359,-173,l),
(416,-173,l),
(416,-76,l),
(359,-76,l)
);
}
);
width = 774;
}
);
note = uni1ECC;
unicode = 7884;
},
{
glyphname = Ograve;
kernLeft = C;
kernRight = D;
layers = (
{
hints = (
{
horizontal = 1;
place = (-8, 48);
place = (-8, 48);
type = Stem;
},
{
horizontal = 1;
place = (657, 48);
place = (657, 48);
type = Stem;
},
{
horizontal = 1;
place = (761, 140);
place = (761, 140);
type = Stem;
},
{
place = (73, 51);
place = (73, 51);
type = Stem;
},
{
place = (650, 51);
place = (650, 51);
type = Stem;
}
);
layerId = m01;
shapes = (
{
closed = 1;
nodes = (
(367,761,l),
(407,761,l),
(303,901,l),
(250,901,l)
);
},
{
closed = 1;
nodes = (
(576,-8,o),
(701,133,o),
(701,348,cs),
(701,563,o),
(575,705,o),
(387,705,cs),
(198,705,o),
(73,564,o),
(73,348,cs),
(73,133,o),
(198,-8,o),
(387,-8,cs)
);
},
{
closed = 1;
nodes = (
(226,40,o),
(124,160,o),
(124,348,cs),
(124,537,o),
(226,657,o),
(387,657,cs),
(547,657,o),
(650,537,o),
(650,348,cs),
(650,160,o),
(547,40,o),
(387,40,cs)
);
}
);
width = 774;
}
);
note = Ograve;
unicode = 210;
},
{
glyphname = uni1ECE;
kernLeft = C;
kernRight = D;
layers = (
{
hints = (
{
horizontal = 1;
place = (-8, 48);
place = (-8, 48);
type = Stem;
},
{
horizontal = 1;
place = (657, 48);
place = (657, 48);
type = Stem;
},
{
horizontal = 1;
place = (892, 30);
place = (892, 30);
type = Stem;
},
{
place = (73, 51);
place = (73, 51);
type = Stem;
},
{
place = (458, 36);
place = (458, 36);
type = Stem;
},
{
place = (650, 51);
place = (650, 51);
type = Stem;
}
);
layerId = m01;
shapes = (
{
closed = 1;
nodes = (
(382,736,l),
(430,747,o),
(494,756,o),
(494,825,cs),
(494,888,o),
(435,922,o),
(359,922,cs),
(344,922,l),
(344,892,l),
(359,892,ls),
(410,892,o),
(458,874,o),
(458,826,cs),
(458,780,o),
(412,773,o),
(373,766,c)
);
},
{
closed = 1;
nodes = (
(576,-8,o),
(701,133,o),
(701,348,cs),
(701,563,o),
(575,705,o),
(387,705,cs),
(198,705,o),
(73,564,o),
(73,348,cs),
(73,133,o),
(198,-8,o),
(387,-8,cs)
);
},
{
closed = 1;
nodes = (
(226,40,o),
(124,160,o),
(124,348,cs),
(124,537,o),
(226,657,o),
(387,657,cs),
(547,657,o),
(650,537,o),
(650,348,cs),
(650,160,o),
(547,40,o),
(387,40,cs)
);
}
);
width = 774;
}
);
note = uni1ECE;
unicode = 7886;
},
{
glyphname = Ohorn;
kernLeft = C;
kernRight = D;
layers = (
{
hints = (
{
horizontal = 1;
place = (-8, 48);
place = (-8, 48);
type = Stem;
},
{
horizontal = 1;
place = (500, -20);
target = down;
type = TopGhost;
},
{
horizontal = 1;
place = (697, -20);
target = down;
type = TopGhost;
},
{
place = (73, 51);
place = (73, 51);
type = Stem;
},
{
place = (650, 51);
place = (650, 51);
type = Stem;
},
{
place = (738, 39);
place = (738, 39);
type = Stem;
},
{
horizontal = 1;
place = (657, 48);
place = (657, 48);
type = Stem;
}
);
layerId = m01;
shapes = (
{
closed = 1;
nodes = (
(738,697,l),
(738,642,ls),
(738,581,o),
(716,541,o),
(662,534,c),
(611,641,o),
(513,705,o),
(387,705,cs),
(198,705,o),
(73,564,o),
(73,348,cs),
(73,133,o),
(198,-8,o),
(387,-8,cs),
(576,-8,o),
(701,133,o),
(701,348,cs),
(701,404,o),
(692,455,o),
(676,500,c),
(746,512,o),
(777,565,o),
(777,646,cs),
(777,697,l)
);
},
{
closed = 1;
nodes = (
(226,40,o),
(124,160,o),
(124,348,cs),
(124,537,o),
(226,657,o),
(387,657,cs),
(547,657,o),
(650,537,o),
(650,348,cs),
(650,160,o),
(547,40,o),
(387,40,cs)
);
}
);
width = 774;
}
);
note = Ohorn;
unicode = 416;
},
{
glyphname = uni1EDA;
kernLeft = C;
kernRight = D;
layers = (
{
hints = (
{
horizontal = 1;
place = (-8, 48);
place = (-8, 48);
type = Stem;
},
{
horizontal = 1;
place = (500, -20);
target = down;
type = TopGhost;
},
{
horizontal = 1;
place = (657, 48);
place = (657, 48);
type = Stem;
},
{
horizontal = 1;
place = (761, 140);
place = (761, 140);
type = Stem;
},
{
place = (73, 51);
place = (73, 51);
type = Stem;
},
{
place = (650, 51);
place = (650, 51);
type = Stem;
},
{
place = (738, 39);
place = (738, 39);
type = Stem;
},
{
horizontal = 1;
place = (697, -20);
target = down;
type = TopGhost;
}
);
layerId = m01;
shapes = (
{
closed = 1;
nodes = (
(527,901,l),
(474,901,l),
(367,761,l),
(407,761,l)
);
},
{
closed = 1;
nodes = (
(738,697,l),
(738,642,ls),
(738,581,o),
(716,541,o),
(662,534,c),
(611,641,o),
(513,705,o),
(387,705,cs),
(198,705,o),
(73,564,o),
(73,348,cs),
(73,133,o),
(198,-8,o),
(387,-8,cs),
(576,-8,o),
(701,133,o),
(701,348,cs),
(701,404,o),
(692,455,o),
(676,500,c),
(746,512,o),
(777,565,o),
(777,646,cs),
(777,697,l)
);
},
{
closed = 1;
nodes = (
(226,40,o),
(124,160,o),
(124,348,cs),
(124,537,o),
(226,657,o),
(387,657,cs),
(547,657,o),
(650,537,o),
(650,348,cs),
(650,160,o),
(547,40,o),
(387,40,cs)
);
}
);
width = 774;
}
);
note = uni1EDA;
unicode = 7898;
},
{
glyphname = uni1EE2;
kernLeft = C;
kernRight = D;
layers = (
{
hints = (
{
horizontal = 1;
place = (-173, 97);
place = (-173, 97);
type = Stem;
},
{
horizontal = 1;
place = (-8, 48);
place = (-8, 48);
type = Stem;
},
{
horizontal = 1;
place = (500, -20);
target = down;
type = TopGhost;
},
{
horizontal = 1;
place = (697, -20);
target = down;
type = TopGhost;
},
{
place = (73, 51);
place = (73, 51);
type = Stem;
},
{
place = (359, 57);
place = (359, 57);
type = Stem;
},
{
place = (650, 51);
place = (650, 51);
type = Stem;
},
{
place = (738, 39);
place = (738, 39);
type = Stem;
},
{
horizontal = 1;
place = (657, 48);
place = (657, 48);
type = Stem;
}
);
layerId = m01;
shapes = (
{
closed = 1;
nodes = (
(738,697,l),
(738,642,ls),
(738,581,o),
(716,541,o),
(662,534,c),
(611,641,o),
(513,705,o),
(387,705,cs),
(198,705,o),
(73,564,o),
(73,348,cs),
(73,133,o),
(198,-8,o),
(387,-8,cs),
(576,-8,o),
(701,133,o),
(701,348,cs),
(701,404,o),
(692,455,o),
(676,500,c),
(746,512,o),
(777,565,o),
(777,646,cs),
(777,697,l)
);
},
{
closed = 1;
nodes = (
(226,40,o),
(124,160,o),
(124,348,cs),
(124,537,o),
(226,657,o),
(387,657,cs),
(547,657,o),
(650,537,o),
(650,348,cs),
(650,160,o),
(547,40,o),
(387,40,cs)
);
},
{
closed = 1;
nodes = (
(359,-173,l),
(416,-173,l),
(416,-76,l),
(359,-76,l)
);
}
);
width = 774;
}
);
note = uni1EE2;
unicode = 7906;
},
{
glyphname = uni1EDC;
kernLeft = C;
kernRight = D;
layers = (
{
hints = (
{
horizontal = 1;
place = (-8, 48);
place = (-8, 48);
type = Stem;
},
{
horizontal = 1;
place = (500, -20);
target = down;
type = TopGhost;
},
{
horizontal = 1;
place = (657, 48);
place = (657, 48);
type = Stem;
},
{
horizontal = 1;
place = (761, 140);
place = (761, 140);
type = Stem;
},
{
place = (73, 51);
place = (73, 51);
type = Stem;
},
{
place = (650, 51);
place = (650, 51);
type = Stem;
},
{
place = (738, 39);
place = (738, 39);
type = Stem;
},
{
horizontal = 1;
place = (697, -20);
target = down;
type = TopGhost;
}
);
layerId = m01;
shapes = (
{
closed = 1;
nodes = (
(407,761,l),
(303,901,l),
(250,901,l),
(367,761,l)
);
},
{
closed = 1;
nodes = (
(738,697,l),
(738,642,ls),
(738,581,o),
(716,541,o),
(662,534,c),
(611,641,o),
(513,705,o),
(387,705,cs),
(198,705,o),
(73,564,o),
(73,348,cs),
(73,133,o),
(198,-8,o),
(387,-8,cs),
(576,-8,o),
(701,133,o),
(701,348,cs),
(701,404,o),
(692,455,o),
(676,500,c),
(746,512,o),
(777,565,o),
(777,646,cs),
(777,697,l)
);
},
{
closed = 1;
nodes = (
(226,40,o),
(124,160,o),
(124,348,cs),
(124,537,o),
(226,657,o),
(387,657,cs),
(547,657,o),
(650,537,o),
(650,348,cs),
(650,160,o),
(547,40,o),
(387,40,cs)
);
}
);
width = 774;
}
);
note = uni1EDC;
unicode = 7900;
},
{
glyphname = uni1EDE;
kernLeft = C;
kernRight = D;
layers = (
{
hints = (
{
horizontal = 1;
place = (-8, 48);
place = (-8, 48);
type = Stem;
},
{
horizontal = 1;
place = (500, -20);
target = down;
type = TopGhost;
},
{
horizontal = 1;
place = (657, 48);
place = (657, 48);
type = Stem;
},
{
horizontal = 1;
place = (892, 30);
place = (892, 30);
type = Stem;
},
{
place = (73, 51);
place = (73, 51);
type = Stem;
},
{
place = (458, 36);
place = (458, 36);
type = Stem;
},
{
place = (650, 51);
place = (650, 51);
type = Stem;
},
{
place = (738, 39);
place = (738, 39);
type = Stem;
},
{
horizontal = 1;
place = (697, -20);
target = down;
type = TopGhost;
}
);
layerId = m01;
shapes = (
{
closed = 1;
nodes = (
(458,780,o),
(412,773,o),
(373,766,c),
(382,736,l),
(430,747,o),
(494,756,o),
(494,825,cs),
(494,888,o),
(435,922,o),
(359,922,cs),
(344,922,l),
(344,892,l),
(359,892,ls),
(410,892,o),
(458,874,o),
(458,826,cs)
);
},
{
closed = 1;
nodes = (
(738,697,l),
(738,642,ls),
(738,581,o),
(716,541,o),
(662,534,c),
(611,641,o),
(513,705,o),
(387,705,cs),
(198,705,o),
(73,564,o),
(73,348,cs),
(73,133,o),
(198,-8,o),
(387,-8,cs),
(576,-8,o),
(701,133,o),
(701,348,cs),
(701,404,o),
(692,455,o),
(676,500,c),
(746,512,o),
(777,565,o),
(777,646,cs),
(777,697,l)
);
},
{
closed = 1;
nodes = (
(226,40,o),
(124,160,o),
(124,348,cs),
(124,537,o),
(226,657,o),
(387,657,cs),
(547,657,o),
(650,537,o),
(650,348,cs),
(650,160,o),
(547,40,o),
(387,40,cs)
);
}
);
width = 774;
}
);
note = uni1EDE;
unicode = 7902;
},
{
glyphname = uni1EE0;
kernLeft = C;
kernRight = D;
layers = (
{
hints = (
{
horizontal = 1;
place = (-8, 48);
place = (-8, 48);
type = Stem;
},
{
horizontal = 1;
place = (500, -20);
target = down;
type = TopGhost;
},
{
horizontal = 1;
place = (657, 48);
place = (657, 48);
type = Stem;
},
{
horizontal = 1;
place = (780, 33);
place = (780, 33);
type = Stem;
},
{
horizontal = 1;
place = (873, 32);
place = (873, 32);
type = Stem;
},
{
place = (73, 51);
place = (73, 51);
type = Stem;
},
{
place = (231, 30);
place = (231, 30);
type = Stem;
},
{
place = (510, 32);
place = (510, 32);
type = Stem;
},
{
place = (650, 51);
place = (650, 51);
type = Stem;
},
{
place = (738, 39);
place = (738, 39);
type = Stem;
},
{
horizontal = 1;
place = (697, -20);
target = down;
type = TopGhost;
}
);
layerId = m01;
shapes = (
{
closed = 1;
nodes = (
(377,873,o),
(373,780,o),
(458,780,cs),
(508,780,o),
(542,827,o),
(542,901,c),
(510,901,l),
(510,847,o),
(487,813,o),
(458,813,cs),
(396,813,o),
(396,905,o),
(319,905,cs),
(265,905,o),
(231,863,o),
(231,790,c),
(261,790,l),
(261,842,o),
(283,873,o),
(318,873,cs)
);
},
{
closed = 1;
nodes = (
(738,697,l),
(738,642,ls),
(738,581,o),
(716,541,o),
(662,534,c),
(611,641,o),
(513,705,o),
(387,705,cs),
(198,705,o),
(73,564,o),
(73,348,cs),
(73,133,o),
(198,-8,o),
(387,-8,cs),
(576,-8,o),
(701,133,o),
(701,348,cs),
(701,404,o),
(692,455,o),
(676,500,c),
(746,512,o),
(777,565,o),
(777,646,cs),
(777,697,l)
);
},
{
closed = 1;
nodes = (
(226,40,o),
(124,160,o),
(124,348,cs),
(124,537,o),
(226,657,o),
(387,657,cs),
(547,657,o),
(650,537,o),
(650,348,cs),
(650,160,o),
(547,40,o),
(387,40,cs)
);
}
);
width = 774;
}
);
note = uni1EE0;
unicode = 7904;
},
{
glyphname = Ohungarumlaut;
kernLeft = C;
kernRight = D;
layers = (
{
hints = (
{
horizontal = 1;
place = (-8, 48);
place = (-8, 48);
type = Stem;
},
{
horizontal = 1;
place = (657, 48);
place = (657, 48);
type = Stem;
},
{
horizontal = 1;
place = (753, 148);
place = (753, 148);
type = Stem;
},
{
place = (73, 51);
place = (73, 51);
type = Stem;
},
{
place = (650, 51);
place = (650, 51);
type = Stem;
}
);
layerId = m01;
shapes = (
{
closed = 1;
nodes = (
(286,753,l),
(326,753,l),
(439,901,l),
(393,901,l)
);
},
{
closed = 1;
nodes = (
(448,753,l),
(487,753,l),
(608,901,l),
(555,901,l)
);
},
{
closed = 1;
nodes = (
(576,-8,o),
(701,133,o),
(701,348,cs),
(701,563,o),
(575,705,o),
(387,705,cs),
(198,705,o),
(73,564,o),
(73,348,cs),
(73,133,o),
(198,-8,o),
(387,-8,cs)
);
},
{
closed = 1;
nodes = (
(226,40,o),
(124,160,o),
(124,348,cs),
(124,537,o),
(226,657,o),
(387,657,cs),
(547,657,o),
(650,537,o),
(650,348,cs),
(650,160,o),
(547,40,o),
(387,40,cs)
);
}
);
width = 774;
}
);
note = Ohungarumlaut;
unicode = 336;
},
{
glyphname = Omacron;
kernLeft = C;
kernRight = D;
layers = (
{
hints = (
{
horizontal = 1;
place = (-8, 48);
place = (-8, 48);
type = Stem;
},
{
horizontal = 1;
place = (657, 48);
place = (657, 48);
type = Stem;
},
{
horizontal = 1;
place = (816, 31);
place = (816, 31);
type = Stem;
},
{
place = (73, 51);
place = (73, 51);
type = Stem;
},
{
place = (650, 51);
place = (650, 51);
type = Stem;
}
);
layerId = m01;
shapes = (
{
closed = 1;
nodes = (
(252,816,l),
(520,816,l),
(520,847,l),
(252,847,l)
);
},
{
closed = 1;
nodes = (
(576,-8,o),
(701,133,o),
(701,348,cs),
(701,563,o),
(575,705,o),
(387,705,cs),
(198,705,o),
(73,564,o),
(73,348,cs),
(73,133,o),
(198,-8,o),
(387,-8,cs)
);
},
{
closed = 1;
nodes = (
(226,40,o),
(124,160,o),
(124,348,cs),
(124,537,o),
(226,657,o),
(387,657,cs),
(547,657,o),
(650,537,o),
(650,348,cs),
(650,160,o),
(547,40,o),
(387,40,cs)
);
}
);
width = 774;
}
);
note = Omacron;
unicode = 332;
},
{
glyphname = Oslash;
kernLeft = C;
kernRight = D;
layers = (
{
hints = (
{
horizontal = 1;
place = (-8, 48);
place = (-8, 48);
type = Stem;
},
{
horizontal = 1;
place = (629, 68);
place = (629, 68);
type = Stem;
},
{
place = (73, 51);
place = (73, 51);
type = Stem;
},
{
place = (650, 51);
place = (650, 51);
type = Stem;
},
{
horizontal = 1;
place = (0, 67);
place = (0, 67);
type = Stem;
},
{
horizontal = 1;
place = (657, 48);
place = (657, 48);
type = Stem;
}
);
layerId = m01;
shapes = (
{
closed = 1;
nodes = (
(636,697,l),
(586,697,l),
(559,655,l),
(511,687,o),
(453,705,o),
(387,705,cs),
(198,705,o),
(73,564,o),
(73,348,cs),
(73,227,o),
(113,129,o),
(182,67,c),
(139,0,l),
(188,0,l),
(214,41,l),
(262,9,o),
(321,-8,o),
(387,-8,cs),
(576,-8,o),
(701,133,o),
(701,348,cs),
(701,469,o),
(661,567,o),
(593,629,c)
);
},
{
closed = 1;
nodes = (
(124,537,o),
(226,657,o),
(387,657,cs),
(443,657,o),
(493,642,o),
(533,614,c),
(209,109,l),
(155,162,o),
(124,245,o),
(124,348,cs)
);
},
{
closed = 1;
nodes = (
(330,40,o),
(281,55,o),
(241,82,c),
(566,587,l),
(619,534,o),
(650,451,o),
(650,348,cs),
(650,160,o),
(547,40,o),
(387,40,cs)
);
}
);
width = 774;
}
);
note = Oslash;
unicode = 216;
},
{
glyphname = Otilde;
kernLeft = C;
kernRight = D;
layers = (
{
hints = (
{
horizontal = 1;
place = (-8, 48);
place = (-8, 48);
type = Stem;
},
{
horizontal = 1;
place = (657, 48);
place = (657, 48);
type = Stem;
},
{
horizontal = 1;
place = (780, 33);
place = (780, 33);
type = Stem;
},
{
horizontal = 1;
place = (873, 32);
place = (873, 32);
type = Stem;
},
{
place = (73, 51);
place = (73, 51);
type = Stem;
},
{
place = (231, 30);
place = (231, 30);
type = Stem;
},
{
place = (510, 32);
place = (510, 32);
type = Stem;
},
{
place = (650, 51);
place = (650, 51);
type = Stem;
}
);
layerId = m01;
shapes = (
{
closed = 1;
nodes = (
(508,780,o),
(542,827,o),
(542,901,c),
(510,901,l),
(510,847,o),
(487,813,o),
(458,813,cs),
(396,813,o),
(396,905,o),
(319,905,cs),
(265,905,o),
(231,863,o),
(231,790,c),
(261,790,l),
(261,842,o),
(283,873,o),
(318,873,cs),
(377,873,o),
(373,780,o),
(458,780,cs)
);
},
{
closed = 1;
nodes = (
(576,-8,o),
(701,133,o),
(701,348,cs),
(701,563,o),
(575,705,o),
(387,705,cs),
(198,705,o),
(73,564,o),
(73,348,cs),
(73,133,o),
(198,-8,o),
(387,-8,cs)
);
},
{
closed = 1;
nodes = (
(226,40,o),
(124,160,o),
(124,348,cs),
(124,537,o),
(226,657,o),
(387,657,cs),
(547,657,o),
(650,537,o),
(650,348,cs),
(650,160,o),
(547,40,o),
(387,40,cs)
);
}
);
width = 774;
}
);
note = Otilde;
unicode = 213;
},
{
glyphname = OE;
kernLeft = C;
layers = (
{
hints = (
{
horizontal = 1;
place = (0, 47);
place = (0, 47);
type = Stem;
},
{
horizontal = 1;
place = (330, 48);
place = (330, 48);
type = Stem;
},
{
horizontal = 1;
place = (650, 47);
place = (650, 47);
type = Stem;
},
{
place = (73, 51);
place = (73, 51);
type = Stem;
},
{
place = (651, 51);
place = (651, 51);
type = Stem;
},
{
horizontal = 1;
place = (-8, 48);
place = (-8, 48);
type = Stem;
},
{
horizontal = 1;
place = (657, 48);
place = (657, 48);
type = Stem;
},
{
place = (650, 52);
place = (650, 52);
type = Stem;
}
);
layerId = m01;
shapes = (
{
closed = 1;
nodes = (
(1105,650,l),
(1105,697,l),
(651,697,l),
(651,556,l),
(598,650,o),
(504,705,o),
(387,705,cs),
(198,705,o),
(73,564,o),
(73,348,cs),
(73,133,o),
(198,-8,o),
(387,-8,cs),
(505,-8,o),
(598,47,o),
(651,140,c),
(651,0,l),
(1105,0,l),
(1105,47,l),
(702,47,l),
(702,330,l),
(1061,330,l),
(1061,378,l),
(702,378,l),
(702,650,l)
);
},
{
closed = 1;
nodes = (
(226,40,o),
(124,160,o),
(124,348,cs),
(124,537,o),
(226,657,o),
(387,657,cs),
(547,657,o),
(650,537,o),
(650,348,cs),
(650,160,o),
(547,40,o),
(387,40,cs)
);
}
);
width = 1166;
}
);
note = OE;
unicode = 338;
},
{
glyphname = P;
kernLeft = B;
kernRight = P;
lastChange = "2022-12-23 03:27:00 +0000";
layers = (
{
hints = (
{
horizontal = 1;
place = (0, 21);
target = up;
type = BottomGhost;
},
{
horizontal = 1;
place = (310, 47);
place = (310, 47);
type = Stem;
},
{
horizontal = 1;
place = (650, 47);
place = (650, 47);
type = Stem;
},
{
place = (119, 51);
place = (119, 51);
type = Stem;
},
{
place = (483, 51);
place = (483, 51);
type = Stem;
}
);
layerId = m01;
shapes = (
{
closed = 1;
nodes = (
(145,0,l),
(170,50,l),
(170,310,l),
(307,310,ls),
(416,310,o),
(534,410,o),
(534,504,qs),
(534,597,o),
(416,697,o),
(307,697,qs),
(119,697,l),
(119,0,l)
);
},
{
closed = 1;
nodes = (
(170,650,l),
(302,650,ls),
(390,650,o),
(483,575,o),
(483,503,qs),
(483,432,o),
(390,357,o),
(302,357,qs),
(170,357,l)
);
}
);
width = 590;
}
);
note = P;
unicode = 80;
},
{
glyphname = Thorn;
kernLeft = B;
kernRight = Thorn;
layers = (
{
hints = (
{
horizontal = 1;
place = (0, 21);
target = up;
type = BottomGhost;
},
{
horizontal = 1;
place = (209, 43);
place = (209, 43);
type = Stem;
},
{
horizontal = 1;
place = (554, 41);
place = (554, 41);
type = Stem;
},
{
place = (119, 47);
place = (119, 47);
type = Stem;
},
{
place = (483, 47);
place = (483, 47);
type = Stem;
},
{
horizontal = 1;
place = (554, 143);
place = (554, 143);
type = Stem;
}
);
layerId = m01;
shapes = (
{
closed = 1;
nodes = (
(119,0,l),
(166,0,l),
(166,209,l),
(301,209,ls),
(445,209,o),
(530,281,o),
(530,404,cs),
(530,524,o),
(448,595,o),
(311,595,cs),
(166,595,l),
(166,697,l),
(119,697,l)
);
},
{
closed = 1;
nodes = (
(166,252,l),
(166,554,l),
(301,554,ls),
(417,554,o),
(483,499,o),
(483,402,cs),
(483,306,o),
(418,252,o),
(301,252,cs)
);
}
);
width = 586;
}
);
note = Thorn;
unicode = 222;
},
{
glyphname = Q;
kernLeft = C;
kernRight = Q;
lastChange = "2022-12-23 03:28:12 +0000";
layers = (
{
hints = (
{
horizontal = 1;
place = (-8, 48);
place = (-8, 48);
type = Stem;
},
{
horizontal = 1;
place = (657, 48);
place = (657, 48);
type = Stem;
},
{
place = (73, 50);
place = (73, 50);
type = Stem;
},
{
place = (649, 51);
place = (649, 51);
type = Stem;
}
);
layerId = m01;
shapes = (
{
closed = 1;
nodes = (
(695,-27,l),
(694,2,l),
(610,85,l),
(667,147,o),
(700,238,o),
(700,348,cs),
(700,563,o),
(575,705,o),
(386,705,cs),
(198,705,o),
(73,564,o),
(73,348,cs),
(73,133,o),
(198,-8,o),
(386,-8,cs),
(461,-8,o),
(525,14,o),
(576,54,c),
(680,-42,l)
);
},
{
closed = 1;
nodes = (
(226,31,o),
(123,160,o),
(123,348,cs),
(123,537,o),
(226,662,o),
(386,662,cs),
(547,662,o),
(649,537,o),
(649,348,cs),
(649,252,o),
(622,173,o),
(574,120,c),
(453,239,l),
(419,208,l),
(541,89,l),
(499,57,o),
(447,31,o),
(386,31,cs)
);
}
);
width = 785;
}
);
note = Q;
unicode = 81;
},
{
glyphname = R;
kernLeft = B;
kernRight = R;
lastChange = "2022-12-23 03:28:32 +0000";
layers = (
{
hints = (
{
horizontal = 1;
place = (0, 21);
target = up;
type = BottomGhost;
},
{
horizontal = 1;
place = (316, 48);
place = (316, 48);
type = Stem;
},
{
horizontal = 1;
place = (650, 47);
place = (650, 47);
type = Stem;
},
{
place = (119, 51);
place = (119, 51);
type = Stem;
},
{
place = (483, 51);
place = (483, 51);
type = Stem;
}
);
layerId = m01;
shapes = (
{
closed = 1;
nodes = (
(533,0,o),
(526,13,qs),
(344,316,l),
(391,316,o),
(462,347,o),
(510,398,o),
(534,466,o),
(534,503,qs),
(534,598,o),
(418,697,o),
(307,697,qs),
(119,697,l),
(119,0,l),
(145,0,l),
(170,50,l),
(170,316,l),
(254,316,l),
(292,316,l),
(475,0,l),
(519,0,ls)
);
},
{
closed = 1;
nodes = (
(170,650,l),
(302,650,ls),
(392,650,o),
(483,577,o),
(483,506,qs),
(483,364,o),
(302,364,qs),
(170,364,l)
);
}
);
width = 628;
}
);
note = R;
unicode = 82;
},
{
glyphname = Racute;
kernLeft = B;
kernRight = R;
layers = (
{
hints = (
{
horizontal = 1;
place = (0, 21);
target = up;
type = BottomGhost;
},
{
horizontal = 1;
place = (316, 48);
place = (316, 48);
type = Stem;
},
{
horizontal = 1;
place = (650, 47);
place = (650, 47);
type = Stem;
},
{
horizontal = 1;
place = (761, 140);
place = (761, 140);
type = Stem;
},
{
place = (119, 51);
place = (119, 51);
type = Stem;
},
{
place = (483, 51);
place = (483, 51);
type = Stem;
}
);
layerId = m01;
shapes = (
{
closed = 1;
nodes = (
(455,901,l),
(402,901,l),
(295,761,l),
(335,761,l)
);
},
{
closed = 1;
nodes = (
(577,0,l),
(386,324,l),
(484,346,o),
(534,410,o),
(534,507,cs),
(534,630,o),
(454,697,o),
(307,697,cs),
(119,697,l),
(119,0,l),
(170,0,l),
(170,316,l),
(286,316,ls),
(309,316,o),
(324,316,o),
(335,317,c),
(518,0,l)
);
},
{
closed = 1;
nodes = (
(170,364,l),
(170,650,l),
(302,650,ls),
(421,650,o),
(483,600,o),
(483,506,cs),
(483,413,o),
(421,364,o),
(302,364,cs)
);
}
);
width = 628;
}
);
note = Racute;
unicode = 340;
},
{
glyphname = Rcaron;
kernLeft = B;
kernRight = R;
layers = (
{
hints = (
{
horizontal = 1;
place = (0, 21);
target = up;
type = BottomGhost;
},
{
horizontal = 1;
place = (316, 48);
place = (316, 48);
type = Stem;
},
{
horizontal = 1;
place = (650, 47);
place = (650, 47);
type = Stem;
},
{
place = (119, 51);
place = (119, 51);
type = Stem;
},
{
place = (483, 51);
place = (483, 51);
type = Stem;
}
);
layerId = m01;
shapes = (
{
closed = 1;
nodes = (
(461,901,l),
(418,901,l),
(315,796,l),
(212,901,l),
(168,901,l),
(315,752,l)
);
},
{
closed = 1;
nodes = (
(577,0,l),
(386,324,l),
(484,346,o),
(534,410,o),
(534,507,cs),
(534,630,o),
(454,697,o),
(307,697,cs),
(119,697,l),
(119,0,l),
(170,0,l),
(170,316,l),
(286,316,ls),
(309,316,o),
(324,316,o),
(335,317,c),
(518,0,l)
);
},
{
closed = 1;
nodes = (
(170,364,l),
(170,650,l),
(302,650,ls),
(421,650,o),
(483,600,o),
(483,506,cs),
(483,413,o),
(421,364,o),
(302,364,cs)
);
}
);
width = 628;
}
);
note = Rcaron;
unicode = 344;
},
{
glyphname = uni0156;
kernLeft = B;
kernRight = R;
layers = (
{
hints = (
{
horizontal = 1;
place = (0, 21);
target = up;
type = BottomGhost;
},
{
horizontal = 1;
place = (316, 48);
place = (316, 48);
type = Stem;
},
{
horizontal = 1;
place = (650, 47);
place = (650, 47);
type = Stem;
},
{
place = (119, 51);
place = (119, 51);
type = Stem;
},
{
place = (483, 51);
place = (483, 51);
type = Stem;
}
);
layerId = m01;
shapes = (
{
closed = 1;
nodes = (
(386,324,l),
(484,346,o),
(534,410,o),
(534,507,cs),
(534,630,o),
(454,697,o),
(307,697,cs),
(119,697,l),
(119,0,l),
(170,0,l),
(170,316,l),
(286,316,ls),
(309,316,o),
(324,316,o),
(335,317,c),
(518,0,l),
(577,0,l)
);
},
{
closed = 1;
nodes = (
(170,364,l),
(170,650,l),
(302,650,ls),
(421,650,o),
(483,600,o),
(483,506,cs),
(483,413,o),
(421,364,o),
(302,364,cs)
);
},
{
closed = 1;
nodes = (
(191,-219,l),
(225,-219,l),
(341,-57,l),
(288,-57,l)
);
}
);
width = 628;
}
);
note = uni0156;
unicode = 342;
},
{
glyphname = S;
kernLeft = S;
kernRight = S;
layers = (
{
hints = (
{
horizontal = 1;
place = (-8, 46);
place = (-8, 46);
type = Stem;
},
{
horizontal = 1;
place = (659, 46);
place = (659, 46);
type = Stem;
},
{
place = (96, 50);
place = (96, 50);
type = Stem;
},
{
place = (459, 52);
place = (459, 52);
type = Stem;
}
);
layerId = m01;
shapes = (
{
closed = 1;
nodes = (
(428,-8,o),
(511,68,o),
(511,182,cs),
(511,285,o),
(448,335,o),
(312,387,cs),
(208,427,o),
(146,460,o),
(146,536,cs),
(146,604,o),
(204,659,o),
(288,659,cs),
(353,659,o),
(405,627,o),
(438,569,c),
(480,596,l),
(440,667,o),
(374,705,o),
(289,705,cs),
(174,705,o),
(96,635,o),
(96,534,cs),
(96,439,o),
(158,394,o),
(283,347,cs),
(397,303,o),
(459,265,o),
(459,177,cs),
(459,98,o),
(398,38,o),
(292,38,cs),
(193,38,o),
(121,97,o),
(106,192,c),
(56,180,l),
(75,66,o),
(167,-8,o),
(291,-8,cs)
);
}
);
width = 572;
}
);
note = S;
unicode = 83;
},
{
glyphname = Sacute;
kernLeft = S;
kernRight = S;
layers = (
{
hints = (
{
horizontal = 1;
place = (-8, 46);
place = (-8, 46);
type = Stem;
},
{
horizontal = 1;
place = (659, 46);
place = (659, 46);
type = Stem;
},
{
horizontal = 1;
place = (761, 140);
place = (761, 140);
type = Stem;
},
{
place = (96, 50);
place = (96, 50);
type = Stem;
},
{
place = (459, 52);
place = (459, 52);
type = Stem;
}
);
layerId = m01;
shapes = (
{
closed = 1;
nodes = (
(266,761,l),
(306,761,l),
(426,901,l),
(373,901,l)
);
},
{
closed = 1;
nodes = (
(428,-8,o),
(511,68,o),
(511,182,cs),
(511,285,o),
(448,335,o),
(312,387,cs),
(208,427,o),
(146,460,o),
(146,536,cs),
(146,604,o),
(204,659,o),
(288,659,cs),
(353,659,o),
(405,627,o),
(438,569,c),
(480,596,l),
(440,667,o),
(374,705,o),
(289,705,cs),
(174,705,o),
(96,635,o),
(96,534,cs),
(96,439,o),
(158,394,o),
(283,347,cs),
(397,303,o),
(459,265,o),
(459,177,cs),
(459,98,o),
(398,38,o),
(292,38,cs),
(193,38,o),
(121,97,o),
(106,192,c),
(56,180,l),
(75,66,o),
(167,-8,o),
(291,-8,cs)
);
}
);
width = 572;
}
);
note = Sacute;
unicode = 346;
},
{
glyphname = Scaron;
kernLeft = S;
kernRight = S;
layers = (
{
hints = (
{
horizontal = 1;
place = (-8, 46);
place = (-8, 46);
type = Stem;
},
{
horizontal = 1;
place = (659, 46);
place = (659, 46);
type = Stem;
},
{
place = (96, 50);
place = (96, 50);
type = Stem;
},
{
place = (459, 52);
place = (459, 52);
type = Stem;
}
);
layerId = m01;
shapes = (
{
closed = 1;
nodes = (
(286,752,l),
(432,901,l),
(389,901,l),
(286,796,l),
(183,901,l),
(139,901,l)
);
},
{
closed = 1;
nodes = (
(428,-8,o),
(511,68,o),
(511,182,cs),
(511,285,o),
(448,335,o),
(312,387,cs),
(208,427,o),
(146,460,o),
(146,536,cs),
(146,604,o),
(204,659,o),
(288,659,cs),
(353,659,o),
(405,627,o),
(438,569,c),
(480,596,l),
(440,667,o),
(374,705,o),
(289,705,cs),
(174,705,o),
(96,635,o),
(96,534,cs),
(96,439,o),
(158,394,o),
(283,347,cs),
(397,303,o),
(459,265,o),
(459,177,cs),
(459,98,o),
(398,38,o),
(292,38,cs),
(193,38,o),
(121,97,o),
(106,192,c),
(56,180,l),
(75,66,o),
(167,-8,o),
(291,-8,cs)
);
}
);
width = 572;
}
);
note = Scaron;
unicode = 352;
},
{
glyphname = Scedilla;
kernLeft = S;
kernRight = S;
layers = (
{
hints = (
{
horizontal = 1;
place = (-254, 32);
place = (-254, 32);
type = Stem;
},
{
horizontal = 1;
place = (-93, 23);
place = (-93, 23);
type = Stem;
},
{
horizontal = 1;
place = (-7, 45);
place = (-7, 45);
type = Stem;
},
{
horizontal = 1;
place = (659, 46);
place = (659, 46);
type = Stem;
},
{
place = (96, 50);
place = (96, 50);
type = Stem;
},
{
place = (353, 32);
place = (353, 32);
type = Stem;
},
{
place = (459, 52);
place = (459, 52);
type = Stem;
}
);
layerId = m01;
shapes = (
{
closed = 1;
nodes = (
(511,285,o),
(448,335,o),
(312,387,cs),
(208,427,o),
(146,460,o),
(146,536,cs),
(146,604,o),
(204,659,o),
(288,659,cs),
(353,659,o),
(405,627,o),
(438,569,c),
(480,596,l),
(440,667,o),
(374,705,o),
(289,705,cs),
(174,705,o),
(96,635,o),
(96,534,cs),
(96,439,o),
(158,394,o),
(283,347,cs),
(397,303,o),
(459,265,o),
(459,177,cs),
(459,98,o),
(398,38,o),
(292,38,cs),
(193,38,o),
(121,97,o),
(106,192,c),
(56,180,l),
(74,74,o),
(154,3,o),
(265,-7,c),
(217,-93,l),
(248,-93,o),
(276,-95,o),
(298,-101,cs),
(330,-110,o),
(353,-127,o),
(353,-162,cs),
(353,-201,o),
(329,-222,o),
(287,-222,cs),
(258,-222,o),
(230,-207,o),
(215,-178,c),
(195,-201,l),
(215,-234,o),
(251,-254,o),
(286,-254,cs),
(346,-254,o),
(385,-216,o),
(385,-161,cs),
(385,-122,o),
(364,-99,o),
(330,-85,cs),
(311,-77,o),
(288,-73,o),
(260,-70,c),
(296,-8,l),
(430,-6,o),
(511,69,o),
(511,182,cs)
);
}
);
width = 572;
}
);
note = Scedilla;
unicode = 350;
},
{
glyphname = uni0218;
kernLeft = S;
kernRight = S;
layers = (
{
hints = (
{
horizontal = 1;
place = (-8, 46);
place = (-8, 46);
type = Stem;
},
{
horizontal = 1;
place = (659, 46);
place = (659, 46);
type = Stem;
},
{
place = (96, 50);
place = (96, 50);
type = Stem;
},
{
place = (459, 52);
place = (459, 52);
type = Stem;
}
);
layerId = m01;
shapes = (
{
closed = 1;
nodes = (
(428,-8,o),
(511,68,o),
(511,182,cs),
(511,285,o),
(448,335,o),
(312,387,cs),
(208,427,o),
(146,460,o),
(146,536,cs),
(146,604,o),
(204,659,o),
(288,659,cs),
(353,659,o),
(405,627,o),
(438,569,c),
(480,596,l),
(440,667,o),
(374,705,o),
(289,705,cs),
(174,705,o),
(96,635,o),
(96,534,cs),
(96,439,o),
(158,394,o),
(283,347,cs),
(397,303,o),
(459,265,o),
(459,177,cs),
(459,98,o),
(398,38,o),
(292,38,cs),
(193,38,o),
(121,97,o),
(106,192,c),
(56,180,l),
(75,66,o),
(167,-8,o),
(291,-8,cs)
);
},
{
closed = 1;
nodes = (
(162,-219,l),
(196,-219,l),
(312,-57,l),
(259,-57,l)
);
}
);
width = 572;
}
);
note = uni0218;
unicode = 536;
},
{
glyphname = uni1E9E;
layers = (
{
hints = (
{
horizontal = 1;
place = (-7, 48);
place = (-7, 48);
type = Stem;
},
{
horizontal = 1;
place = (648, 49);
place = (648, 49);
type = Stem;
},
{
place = (106, 51);
place = (106, 51);
type = Stem;
},
{
place = (287, 51);
place = (287, 51);
type = Stem;
},
{
place = (581, 54);
place = (581, 54);
type = Stem;
},
{
horizontal = 1;
place = (0, 21);
target = up;
type = BottomGhost;
}
);
layerId = m01;
shapes = (
{
closed = 1;
nodes = (
(566,-7,o),
(635,51,o),
(635,137,cs),
(635,326,o),
(338,242,o),
(338,372,cs),
(338,401,o),
(353,419,o),
(368,436,cs),
(575,666,l),
(575,697,l),
(321,697,ls),
(126,697,o),
(106,556,o),
(106,447,cs),
(106,0,l),
(157,0,l),
(157,447,ls),
(157,568,o),
(191,648,o),
(321,648,cs),
(498,648,l),
(333,467,ls),
(311,442,o),
(287,418,o),
(287,368,cs),
(287,198,o),
(581,283,o),
(581,134,cs),
(581,76,o),
(535,41,o),
(464,41,cs),
(384,41,o),
(328,84,o),
(306,143,c),
(262,120,l),
(287,46,o),
(363,-7,o),
(462,-7,cs)
);
}
);
width = 689;
}
);
note = uni1E9E;
unicode = 7838;
},
{
glyphname = T;
kernLeft = T;
kernRight = T;
lastChange = "2022-12-23 03:29:04 +0000";
layers = (
{
hints = (
{
horizontal = 1;
place = (0, 21);
target = up;
type = BottomGhost;
},
{
horizontal = 1;
place = (650, 47);
place = (650, 47);
type = Stem;
},
{
place = (289, 52);
place = (289, 52);
type = Stem;
}
);
layerId = m01;
shapes = (
{
closed = 1;
nodes = (
(315,0,l),
(341,50,l),
(341,650,l),
(591,650,l),
(591,697,l),
(39,697,l),
(39,650,l),
(289,650,l),
(289,0,l)
);
}
);
width = 631;
}
);
note = T;
unicode = 84;
},
{
glyphname = Tbar;
kernLeft = T;
kernRight = T;
layers = (
{
hints = (
{
horizontal = 1;
place = (0, 21);
target = up;
type = BottomGhost;
},
{
horizontal = 1;
place = (332, 34);
place = (332, 34);
type = Stem;
},
{
horizontal = 1;
place = (650, 47);
place = (650, 47);
type = Stem;
},
{
place = (289, 52);
place = (289, 52);
type = Stem;
}
);
layerId = m01;
shapes = (
{
closed = 1;
nodes = (
(591,650,l),
(591,697,l),
(39,697,l),
(39,650,l),
(289,650,l),
(289,366,l),
(190,366,l),
(190,332,l),
(289,332,l),
(289,0,l),
(341,0,l),
(341,332,l),
(440,332,l),
(440,366,l),
(341,366,l),
(341,650,l)
);
}
);
width = 631;
}
);
note = Tbar;
unicode = 358;
},
{
glyphname = Tcaron;
kernLeft = T;
kernRight = T;
layers = (
{
hints = (
{
horizontal = 1;
place = (0, 21);
target = up;
type = BottomGhost;
},
{
horizontal = 1;
place = (650, 47);
place = (650, 47);
type = Stem;
},
{
place = (289, 52);
place = (289, 52);
type = Stem;
}
);
layerId = m01;
shapes = (
{
closed = 1;
nodes = (
(315,752,l),
(461,901,l),
(418,901,l),
(315,796,l),
(212,901,l),
(168,901,l)
);
},
{
closed = 1;
nodes = (
(289,0,l),
(341,0,l),
(341,650,l),
(591,650,l),
(591,697,l),
(39,697,l),
(39,650,l),
(289,650,l)
);
}
);
width = 631;
}
);
note = Tcaron;
unicode = 356;
},
{
glyphname = uni0162;
kernLeft = T;
kernRight = T;
layers = (
{
hints = (
{
horizontal = 1;
place = (-254, 32);
place = (-254, 32);
type = Stem;
},
{
horizontal = 1;
place = (-93, 23);
place = (-93, 23);
type = Stem;
},
{
horizontal = 1;
place = (0, 21);
target = up;
type = BottomGhost;
},
{
horizontal = 1;
place = (650, 47);
place = (650, 47);
type = Stem;
},
{
place = (289, 52);
place = (289, 52);
type = Stem;
},
{
place = (382, 32);
place = (382, 32);
type = Stem;
}
);
layerId = m01;
shapes = (
{
closed = 1;
nodes = (
(341,0,l),
(341,650,l),
(591,650,l),
(591,697,l),
(39,697,l),
(39,650,l),
(289,650,l),
(289,0,l),
(298,0,l),
(246,-93,l),
(277,-93,o),
(305,-95,o),
(327,-101,cs),
(359,-110,o),
(382,-127,o),
(382,-162,cs),
(382,-201,o),
(358,-222,o),
(316,-222,cs),
(287,-222,o),
(259,-207,o),
(244,-178,c),
(224,-201,l),
(244,-234,o),
(280,-254,o),
(315,-254,cs),
(375,-254,o),
(414,-216,o),
(414,-161,cs),
(414,-122,o),
(393,-99,o),
(359,-85,cs),
(340,-77,o),
(317,-73,o),
(289,-70,c),
(330,0,l)
);
}
);
width = 631;
}
);
note = uni0162;
unicode = 354;
},
{
glyphname = uni021A;
kernLeft = T;
kernRight = T;
layers = (
{
hints = (
{
horizontal = 1;
place = (0, 21);
target = up;
type = BottomGhost;
},
{
horizontal = 1;
place = (650, 47);
place = (650, 47);
type = Stem;
},
{
place = (289, 52);
place = (289, 52);
type = Stem;
}
);
layerId = m01;
shapes = (
{
closed = 1;
nodes = (
(289,0,l),
(341,0,l),
(341,650,l),
(591,650,l),
(591,697,l),
(39,697,l),
(39,650,l),
(289,650,l)
);
},
{
closed = 1;
nodes = (
(191,-219,l),
(225,-219,l),
(341,-57,l),
(288,-57,l)
);
}
);
width = 631;
}
);
note = uni021A;
unicode = 538;
},
{
glyphname = U;
kernLeft = U;
kernRight = J;
lastChange = "2022-12-23 03:29:17 +0000";
layers = (
{
hints = (
{
horizontal = 1;
place = (-8, 50);
place = (-8, 50);
type = Stem;
},
{
horizontal = 1;
place = (697, -20);
target = down;
type = TopGhost;
},
{
place = (105, 50);
place = (105, 50);
type = Stem;
},
{
place = (543, 51);
place = (543, 51);
type = Stem;
}
);
layerId = m01;
shapes = (
{
closed = 1;
nodes = (
(155,697,o),
(140,697,qs),
(105,697,l),
(105,252,ls),
(105,124,o),
(230,-8,o),
(348,-8,qs),
(468,-8,o),
(594,126,o),
(594,257,qs),
(594,697,l),
(543,697,l),
(543,260,ls),
(543,42,o),
(348,42,qs),
(155,42,o),
(155,257,qs),
(155,682,ls)
);
}
);
width = 698;
}
);
note = U;
unicode = 85;
},
{
glyphname = Uacute;
kernLeft = U;
kernRight = J;
layers = (
{
hints = (
{
horizontal = 1;
place = (-8, 50);
place = (-8, 50);
type = Stem;
},
{
horizontal = 1;
place = (697, -20);
target = down;
type = TopGhost;
},
{
horizontal = 1;
place = (761, 140);
place = (761, 140);
type = Stem;
},
{
place = (105, 50);
place = (105, 50);
type = Stem;
},
{
place = (543, 51);
place = (543, 51);
type = Stem;
}
);
layerId = m01;
shapes = (
{
closed = 1;
nodes = (
(330,761,l),
(370,761,l),
(490,901,l),
(437,901,l)
);
},
{
closed = 1;
nodes = (
(507,-8,o),
(594,84,o),
(594,257,cs),
(594,697,l),
(543,697,l),
(543,260,ls),
(543,115,o),
(478,42,o),
(348,42,cs),
(220,42,o),
(155,114,o),
(155,257,cs),
(155,697,l),
(105,697,l),
(105,252,ls),
(105,83,o),
(191,-8,o),
(348,-8,cs)
);
}
);
width = 698;
}
);
note = Uacute;
unicode = 218;
},
{
glyphname = uni01D3;
kernLeft = U;
kernRight = J;
layers = (
{
hints = (
{
horizontal = 1;
place = (-8, 50);
place = (-8, 50);
type = Stem;
},
{
horizontal = 1;
place = (697, -20);
target = down;
type = TopGhost;
},
{
place = (105, 50);
place = (105, 50);
type = Stem;
},
{
place = (543, 51);
place = (543, 51);
type = Stem;
}
);
layerId = m01;
shapes = (
{
closed = 1;
nodes = (
(350,752,l),
(496,901,l),
(453,901,l),
(350,796,l),
(247,901,l),
(203,901,l)
);
},
{
closed = 1;
nodes = (
(507,-8,o),
(594,84,o),
(594,257,cs),
(594,697,l),
(543,697,l),
(543,260,ls),
(543,115,o),
(478,42,o),
(348,42,cs),
(220,42,o),
(155,114,o),
(155,257,cs),
(155,697,l),
(105,697,l),
(105,252,ls),
(105,83,o),
(191,-8,o),
(348,-8,cs)
);
}
);
width = 698;
}
);
note = uni01D3;
unicode = 467;
},
{
glyphname = Ucircumflex;
kernLeft = U;
kernRight = J;
layers = (
{
hints = (
{
horizontal = 1;
place = (-8, 50);
place = (-8, 50);
type = Stem;
},
{
horizontal = 1;
place = (697, -20);
target = down;
type = TopGhost;
},
{
place = (105, 50);
place = (105, 50);
type = Stem;
},
{
place = (543, 51);
place = (543, 51);
type = Stem;
}
);
layerId = m01;
shapes = (
{
closed = 1;
nodes = (
(203,755,l),
(247,755,l),
(350,862,l),
(453,755,l),
(496,755,l),
(350,908,l)
);
},
{
closed = 1;
nodes = (
(507,-8,o),
(594,84,o),
(594,257,cs),
(594,697,l),
(543,697,l),
(543,260,ls),
(543,115,o),
(478,42,o),
(348,42,cs),
(220,42,o),
(155,114,o),
(155,257,cs),
(155,697,l),
(105,697,l),
(105,252,ls),
(105,83,o),
(191,-8,o),
(348,-8,cs)
);
}
);
width = 698;
}
);
note = Ucircumflex;
unicode = 219;
},
{
glyphname = Udieresis;
kernLeft = U;
kernRight = J;
layers = (
{
hints = (
{
horizontal = 1;
place = (-8, 50);
place = (-8, 50);
type = Stem;
},
{
horizontal = 1;
place = (697, -20);
target = down;
type = TopGhost;
},
{
horizontal = 1;
place = (803, 98);
place = (803, 98);
type = Stem;
},
{
place = (105, 50);
place = (105, 50);
type = Stem;
},
{
place = (234, 57);
place = (234, 57);
type = Stem;
},
{
place = (409, 56);
place = (409, 56);
type = Stem;
},
{
place = (543, 51);
place = (543, 51);
type = Stem;
}
);
layerId = m01;
shapes = (
{
closed = 1;
nodes = (
(234,803,l),
(291,803,l),
(291,901,l),
(234,901,l)
);
},
{
closed = 1;
nodes = (
(409,803,l),
(465,803,l),
(465,901,l),
(409,901,l)
);
},
{
closed = 1;
nodes = (
(507,-8,o),
(594,84,o),
(594,257,cs),
(594,697,l),
(543,697,l),
(543,260,ls),
(543,115,o),
(478,42,o),
(348,42,cs),
(220,42,o),
(155,114,o),
(155,257,cs),
(155,697,l),
(105,697,l),
(105,252,ls),
(105,83,o),
(191,-8,o),
(348,-8,cs)
);
}
);
width = 698;
}
);
note = Udieresis;
unicode = 220;
},
{
glyphname = uni01D7;
kernLeft = U;
kernRight = J;
layers = (
{
hints = (
{
horizontal = 1;
place = (-8, 50);
place = (-8, 50);
type = Stem;
},
{
horizontal = 1;
place = (697, -20);
target = down;
type = TopGhost;
},
{
horizontal = 1;
place = (803, 98);
place = (803, 98);
type = Stem;
},
{
horizontal = 1;
place = (965, 140);
place = (965, 140);
type = Stem;
},
{
place = (105, 50);
place = (105, 50);
type = Stem;
},
{
place = (234, 57);
place = (234, 57);
type = Stem;
},
{
place = (409, 56);
place = (409, 56);
type = Stem;
},
{
place = (543, 51);
place = (543, 51);
type = Stem;
}
);
layerId = m01;
shapes = (
{
closed = 1;
nodes = (
(330,965,l),
(370,965,l),
(490,1105,l),
(437,1105,l)
);
},
{
closed = 1;
nodes = (
(234,803,l),
(291,803,l),
(291,901,l),
(234,901,l)
);
},
{
closed = 1;
nodes = (
(409,803,l),
(465,803,l),
(465,901,l),
(409,901,l)
);
},
{
closed = 1;
nodes = (
(507,-8,o),
(594,84,o),
(594,257,cs),
(594,697,l),
(543,697,l),
(543,260,ls),
(543,115,o),
(478,42,o),
(348,42,cs),
(220,42,o),
(155,114,o),
(155,257,cs),
(155,697,l),
(105,697,l),
(105,252,ls),
(105,83,o),
(191,-8,o),
(348,-8,cs)
);
}
);
width = 698;
}
);
note = uni01D7;
unicode = 471;
},
{
glyphname = uni01D9;
kernLeft = U;
kernRight = J;
layers = (
{
hints = (
{
horizontal = 1;
place = (-8, 50);
place = (-8, 50);
type = Stem;
},
{
horizontal = 1;
place = (697, -20);
target = down;
type = TopGhost;
},
{
horizontal = 1;
place = (803, 98);
place = (803, 98);
type = Stem;
},
{
place = (105, 50);
place = (105, 50);
type = Stem;
},
{
place = (234, 57);
place = (234, 57);
type = Stem;
},
{
place = (409, 56);
place = (409, 56);
type = Stem;
},
{
place = (543, 51);
place = (543, 51);
type = Stem;
}
);
layerId = m01;
shapes = (
{
closed = 1;
nodes = (
(350,956,l),
(496,1105,l),
(453,1105,l),
(350,1000,l),
(247,1105,l),
(203,1105,l)
);
},
{
closed = 1;
nodes = (
(234,803,l),
(291,803,l),
(291,901,l),
(234,901,l)
);
},
{
closed = 1;
nodes = (
(409,803,l),
(465,803,l),
(465,901,l),
(409,901,l)
);
},
{
closed = 1;
nodes = (
(507,-8,o),
(594,84,o),
(594,257,cs),
(594,697,l),
(543,697,l),
(543,260,ls),
(543,115,o),
(478,42,o),
(348,42,cs),
(220,42,o),
(155,114,o),
(155,257,cs),
(155,697,l),
(105,697,l),
(105,252,ls),
(105,83,o),
(191,-8,o),
(348,-8,cs)
);
}
);
width = 698;
}
);
note = uni01D9;
unicode = 473;
},
{
glyphname = uni01DB;
kernLeft = U;
kernRight = J;
layers = (
{
hints = (
{
horizontal = 1;
place = (-8, 50);
place = (-8, 50);
type = Stem;
},
{
horizontal = 1;
place = (697, -20);
target = down;
type = TopGhost;
},
{
horizontal = 1;
place = (803, 98);
place = (803, 98);
type = Stem;
},
{
horizontal = 1;
place = (965, 140);
place = (965, 140);
type = Stem;
},
{
place = (105, 50);
place = (105, 50);
type = Stem;
},
{
place = (234, 57);
place = (234, 57);
type = Stem;
},
{
place = (409, 56);
place = (409, 56);
type = Stem;
},
{
place = (543, 51);
place = (543, 51);
type = Stem;
}
);
layerId = m01;
shapes = (
{
closed = 1;
nodes = (
(329,965,l),
(369,965,l),
(265,1105,l),
(212,1105,l)
);
},
{
closed = 1;
nodes = (
(234,803,l),
(291,803,l),
(291,901,l),
(234,901,l)
);
},
{
closed = 1;
nodes = (
(409,803,l),
(465,803,l),
(465,901,l),
(409,901,l)
);
},
{
closed = 1;
nodes = (
(507,-8,o),
(594,84,o),
(594,257,cs),
(594,697,l),
(543,697,l),
(543,260,ls),
(543,115,o),
(478,42,o),
(348,42,cs),
(220,42,o),
(155,114,o),
(155,257,cs),
(155,697,l),
(105,697,l),
(105,252,ls),
(105,83,o),
(191,-8,o),
(348,-8,cs)
);
}
);
width = 698;
}
);
note = uni01DB;
unicode = 475;
},
{
glyphname = uni01D5;
kernLeft = U;
kernRight = J;
layers = (
{
hints = (
{
horizontal = 1;
place = (-8, 50);
place = (-8, 50);
type = Stem;
},
{
horizontal = 1;
place = (697, -20);
target = down;
type = TopGhost;
},
{
horizontal = 1;
place = (803, 98);
place = (803, 98);
type = Stem;
},
{
horizontal = 1;
place = (1020, 31);
place = (1020, 31);
type = Stem;
},
{
place = (105, 50);
place = (105, 50);
type = Stem;
},
{
place = (234, 57);
place = (234, 57);
type = Stem;
},
{
place = (409, 56);
place = (409, 56);
type = Stem;
},
{
place = (543, 51);
place = (543, 51);
type = Stem;
}
);
layerId = m01;
shapes = (
{
closed = 1;
nodes = (
(215,1020,l),
(483,1020,l),
(483,1051,l),
(215,1051,l)
);
},
{
closed = 1;
nodes = (
(234,803,l),
(291,803,l),
(291,901,l),
(234,901,l)
);
},
{
closed = 1;
nodes = (
(409,803,l),
(465,803,l),
(465,901,l),
(409,901,l)
);
},
{
closed = 1;
nodes = (
(507,-8,o),
(594,84,o),
(594,257,cs),
(594,697,l),
(543,697,l),
(543,260,ls),
(543,115,o),
(478,42,o),
(348,42,cs),
(220,42,o),
(155,114,o),
(155,257,cs),
(155,697,l),
(105,697,l),
(105,252,ls),
(105,83,o),
(191,-8,o),
(348,-8,cs)
);
}
);
width = 698;
}
);
note = uni01D5;
unicode = 469;
},
{
glyphname = uni1EE4;
kernLeft = U;
kernRight = J;
layers = (
{
hints = (
{
horizontal = 1;
place = (-173, 97);
place = (-173, 97);
type = Stem;
},
{
horizontal = 1;
place = (-8, 50);
place = (-8, 50);
type = Stem;
},
{
horizontal = 1;
place = (697, -20);
target = down;
type = TopGhost;
},
{
place = (105, 50);
place = (105, 50);
type = Stem;
},
{
place = (321, 57);
place = (321, 57);
type = Stem;
},
{
place = (543, 51);
place = (543, 51);
type = Stem;
}
);
layerId = m01;
shapes = (
{
closed = 1;
nodes = (
(507,-8,o),
(594,84,o),
(594,257,cs),
(594,697,l),
(543,697,l),
(543,260,ls),
(543,115,o),
(478,42,o),
(348,42,cs),
(220,42,o),
(155,114,o),
(155,257,cs),
(155,697,l),
(105,697,l),
(105,252,ls),
(105,83,o),
(191,-8,o),
(348,-8,cs)
);
},
{
closed = 1;
nodes = (
(321,-173,l),
(378,-173,l),
(378,-76,l),
(321,-76,l)
);
}
);
width = 698;
}
);
note = uni1EE4;
unicode = 7908;
},
{
glyphname = Ugrave;
kernLeft = U;
kernRight = J;
layers = (
{
hints = (
{
horizontal = 1;
place = (-8, 50);
place = (-8, 50);
type = Stem;
},
{
horizontal = 1;
place = (697, -20);
target = down;
type = TopGhost;
},
{
horizontal = 1;
place = (761, 140);
place = (761, 140);
type = Stem;
},
{
place = (105, 50);
place = (105, 50);
type = Stem;
},
{
place = (543, 51);
place = (543, 51);
type = Stem;
}
);
layerId = m01;
shapes = (
{
closed = 1;
nodes = (
(329,761,l),
(369,761,l),
(265,901,l),
(212,901,l)
);
},
{
closed = 1;
nodes = (
(507,-8,o),
(594,84,o),
(594,257,cs),
(594,697,l),
(543,697,l),
(543,260,ls),
(543,115,o),
(478,42,o),
(348,42,cs),
(220,42,o),
(155,114,o),
(155,257,cs),
(155,697,l),
(105,697,l),
(105,252,ls),
(105,83,o),
(191,-8,o),
(348,-8,cs)
);
}
);
width = 698;
}
);
note = Ugrave;
unicode = 217;
},
{
glyphname = uni1EE6;
kernLeft = U;
kernRight = J;
layers = (
{
hints = (
{
horizontal = 1;
place = (-8, 50);
place = (-8, 50);
type = Stem;
},
{
horizontal = 1;
place = (697, -20);
target = down;
type = TopGhost;
},
{
horizontal = 1;
place = (892, 30);
place = (892, 30);
type = Stem;
},
{
place = (105, 50);
place = (105, 50);
type = Stem;
},
{
place = (421, 36);
place = (421, 36);
type = Stem;
},
{
place = (543, 51);
place = (543, 51);
type = Stem;
}
);
layerId = m01;
shapes = (
{
closed = 1;
nodes = (
(345,736,l),
(393,747,o),
(457,756,o),
(457,825,cs),
(457,888,o),
(398,922,o),
(322,922,cs),
(307,922,l),
(307,892,l),
(322,892,ls),
(373,892,o),
(421,874,o),
(421,826,cs),
(421,780,o),
(375,773,o),
(336,766,c)
);
},
{
closed = 1;
nodes = (
(507,-8,o),
(594,84,o),
(594,257,cs),
(594,697,l),
(543,697,l),
(543,260,ls),
(543,115,o),
(478,42,o),
(348,42,cs),
(220,42,o),
(155,114,o),
(155,257,cs),
(155,697,l),
(105,697,l),
(105,252,ls),
(105,83,o),
(191,-8,o),
(348,-8,cs)
);
}
);
width = 698;
}
);
note = uni1EE6;
unicode = 7910;
},
{
glyphname = Uhorn;
kernLeft = U;
kernRight = J;
layers = (
{
hints = (
{
horizontal = 1;
place = (-8, 50);
place = (-8, 50);
type = Stem;
},
{
horizontal = 1;
place = (498, 35);
place = (498, 35);
type = Stem;
},
{
horizontal = 1;
place = (697, -20);
target = down;
type = TopGhost;
},
{
place = (105, 50);
place = (105, 50);
type = Stem;
},
{
place = (543, 51);
place = (543, 51);
type = Stem;
},
{
place = (681, 39);
place = (681, 39);
type = Stem;
}
);
layerId = m01;
shapes = (
{
closed = 1;
nodes = (
(681,697,l),
(681,642,ls),
(681,577,o),
(656,535,o),
(594,533,c),
(594,697,l),
(543,697,l),
(543,260,ls),
(543,115,o),
(478,42,o),
(348,42,cs),
(220,42,o),
(155,114,o),
(155,257,cs),
(155,697,l),
(105,697,l),
(105,252,ls),
(105,83,o),
(191,-8,o),
(348,-8,cs),
(507,-8,o),
(594,84,o),
(594,257,cs),
(594,498,l),
(681,500,o),
(720,556,o),
(720,646,cs),
(720,697,l)
);
}
);
width = 698;
}
);
note = Uhorn;
unicode = 431;
},
{
glyphname = uni1EE8;
kernLeft = U;
kernRight = J;
layers = (
{
hints = (
{
horizontal = 1;
place = (-8, 50);
place = (-8, 50);
type = Stem;
},
{
horizontal = 1;
place = (498, 35);
place = (498, 35);
type = Stem;
},
{
horizontal = 1;
place = (697, -20);
target = down;
type = TopGhost;
},
{
horizontal = 1;
place = (761, 140);
place = (761, 140);
type = Stem;
},
{
place = (105, 50);
place = (105, 50);
type = Stem;
},
{
place = (543, 51);
place = (543, 51);
type = Stem;
},
{
place = (681, 39);
place = (681, 39);
type = Stem;
}
);
layerId = m01;
shapes = (
{
closed = 1;
nodes = (
(490,901,l),
(437,901,l),
(330,761,l),
(370,761,l)
);
},
{
closed = 1;
nodes = (
(681,697,l),
(681,642,ls),
(681,577,o),
(656,535,o),
(594,533,c),
(594,697,l),
(543,697,l),
(543,260,ls),
(543,115,o),
(478,42,o),
(348,42,cs),
(220,42,o),
(155,114,o),
(155,257,cs),
(155,697,l),
(105,697,l),
(105,252,ls),
(105,83,o),
(191,-8,o),
(348,-8,cs),
(507,-8,o),
(594,84,o),
(594,257,cs),
(594,498,l),
(681,500,o),
(720,556,o),
(720,646,cs),
(720,697,l)
);
}
);
width = 698;
}
);
note = uni1EE8;
unicode = 7912;
},
{
glyphname = uni1EF0;
kernLeft = U;
kernRight = J;
layers = (
{
hints = (
{
horizontal = 1;
place = (-173, 97);
place = (-173, 97);
type = Stem;
},
{
horizontal = 1;
place = (-8, 50);
place = (-8, 50);
type = Stem;
},
{
horizontal = 1;
place = (498, 35);
place = (498, 35);
type = Stem;
},
{
horizontal = 1;
place = (697, -20);
target = down;
type = TopGhost;
},
{
place = (105, 50);
place = (105, 50);
type = Stem;
},
{
place = (321, 57);
place = (321, 57);
type = Stem;
},
{
place = (543, 51);
place = (543, 51);
type = Stem;
},
{
place = (681, 39);
place = (681, 39);
type = Stem;
}
);
layerId = m01;
shapes = (
{
closed = 1;
nodes = (
(681,697,l),
(681,642,ls),
(681,577,o),
(656,535,o),
(594,533,c),
(594,697,l),
(543,697,l),
(543,260,ls),
(543,115,o),
(478,42,o),
(348,42,cs),
(220,42,o),
(155,114,o),
(155,257,cs),
(155,697,l),
(105,697,l),
(105,252,ls),
(105,83,o),
(191,-8,o),
(348,-8,cs),
(507,-8,o),
(594,84,o),
(594,257,cs),
(594,498,l),
(681,500,o),
(720,556,o),
(720,646,cs),
(720,697,l)
);
},
{
closed = 1;
nodes = (
(321,-173,l),
(378,-173,l),
(378,-76,l),
(321,-76,l)
);
}
);
width = 698;
}
);
note = uni1EF0;
unicode = 7920;
},
{
glyphname = uni1EEA;
kernLeft = U;
kernRight = J;
layers = (
{
hints = (
{
horizontal = 1;
place = (-8, 50);
place = (-8, 50);
type = Stem;
},
{
horizontal = 1;
place = (498, 35);
place = (498, 35);
type = Stem;
},
{
horizontal = 1;
place = (697, -20);
target = down;
type = TopGhost;
},
{
horizontal = 1;
place = (761, 140);
place = (761, 140);
type = Stem;
},
{
place = (105, 50);
place = (105, 50);
type = Stem;
},
{
place = (543, 51);
place = (543, 51);
type = Stem;
},
{
place = (681, 39);
place = (681, 39);
type = Stem;
}
);
layerId = m01;
shapes = (
{
closed = 1;
nodes = (
(369,761,l),
(265,901,l),
(212,901,l),
(329,761,l)
);
},
{
closed = 1;
nodes = (
(681,697,l),
(681,642,ls),
(681,577,o),
(656,535,o),
(594,533,c),
(594,697,l),
(543,697,l),
(543,260,ls),
(543,115,o),
(478,42,o),
(348,42,cs),
(220,42,o),
(155,114,o),
(155,257,cs),
(155,697,l),
(105,697,l),
(105,252,ls),
(105,83,o),
(191,-8,o),
(348,-8,cs),
(507,-8,o),
(594,84,o),
(594,257,cs),
(594,498,l),
(681,500,o),
(720,556,o),
(720,646,cs),
(720,697,l)
);
}
);
width = 698;
}
);
note = uni1EEA;
unicode = 7914;
},
{
glyphname = uni1EEC;
kernLeft = U;
kernRight = J;
layers = (
{
hints = (
{
horizontal = 1;
place = (-8, 50);
place = (-8, 50);
type = Stem;
},
{
horizontal = 1;
place = (498, 35);
place = (498, 35);
type = Stem;
},
{
horizontal = 1;
place = (697, -20);
target = down;
type = TopGhost;
},
{
horizontal = 1;
place = (892, 30);
place = (892, 30);
type = Stem;
},
{
place = (105, 50);
place = (105, 50);
type = Stem;
},
{
place = (421, 36);
place = (421, 36);
type = Stem;
},
{
place = (543, 51);
place = (543, 51);
type = Stem;
},
{
place = (681, 39);
place = (681, 39);
type = Stem;
}
);
layerId = m01;
shapes = (
{
closed = 1;
nodes = (
(421,780,o),
(375,773,o),
(336,766,c),
(345,736,l),
(393,747,o),
(457,756,o),
(457,825,cs),
(457,888,o),
(398,922,o),
(322,922,cs),
(307,922,l),
(307,892,l),
(322,892,ls),
(373,892,o),
(421,874,o),
(421,826,cs)
);
},
{
closed = 1;
nodes = (
(681,697,l),
(681,642,ls),
(681,577,o),
(656,535,o),
(594,533,c),
(594,697,l),
(543,697,l),
(543,260,ls),
(543,115,o),
(478,42,o),
(348,42,cs),
(220,42,o),
(155,114,o),
(155,257,cs),
(155,697,l),
(105,697,l),
(105,252,ls),
(105,83,o),
(191,-8,o),
(348,-8,cs),
(507,-8,o),
(594,84,o),
(594,257,cs),
(594,498,l),
(681,500,o),
(720,556,o),
(720,646,cs),
(720,697,l)
);
}
);
width = 698;
}
);
note = uni1EEC;
unicode = 7916;
},
{
glyphname = uni1EEE;
kernLeft = U;
kernRight = J;
layers = (
{
hints = (
{
horizontal = 1;
place = (-8, 50);
place = (-8, 50);
type = Stem;
},
{
horizontal = 1;
place = (498, 35);
place = (498, 35);
type = Stem;
},
{
horizontal = 1;
place = (697, -20);
target = down;
type = TopGhost;
},
{
horizontal = 1;
place = (780, 33);
place = (780, 33);
type = Stem;
},
{
horizontal = 1;
place = (873, 32);
place = (873, 32);
type = Stem;
},
{
place = (105, 50);
place = (105, 50);
type = Stem;
},
{
place = (194, 30);
place = (194, 30);
type = Stem;
},
{
place = (473, 32);
place = (473, 32);
type = Stem;
},
{
place = (543, 51);
place = (543, 51);
type = Stem;
},
{
place = (681, 39);
place = (681, 39);
type = Stem;
}
);
layerId = m01;
shapes = (
{
closed = 1;
nodes = (
(340,873,o),
(336,780,o),
(421,780,cs),
(471,780,o),
(505,827,o),
(505,901,c),
(473,901,l),
(473,847,o),
(450,813,o),
(421,813,cs),
(359,813,o),
(359,905,o),
(282,905,cs),
(228,905,o),
(194,863,o),
(194,790,c),
(224,790,l),
(224,842,o),
(246,873,o),
(281,873,cs)
);
},
{
closed = 1;
nodes = (
(681,697,l),
(681,642,ls),
(681,577,o),
(656,535,o),
(594,533,c),
(594,697,l),
(543,697,l),
(543,260,ls),
(543,115,o),
(478,42,o),
(348,42,cs),
(220,42,o),
(155,114,o),
(155,257,cs),
(155,697,l),
(105,697,l),
(105,252,ls),
(105,83,o),
(191,-8,o),
(348,-8,cs),
(507,-8,o),
(594,84,o),
(594,257,cs),
(594,498,l),
(681,500,o),
(720,556,o),
(720,646,cs),
(720,697,l)
);
}
);
width = 698;
}
);
note = uni1EEE;
unicode = 7918;
},
{
glyphname = Uhungarumlaut;
kernLeft = U;
kernRight = J;
layers = (
{
hints = (
{
horizontal = 1;
place = (-8, 50);
place = (-8, 50);
type = Stem;
},
{
horizontal = 1;
place = (697, -20);
target = down;
type = TopGhost;
},
{
horizontal = 1;
place = (753, 148);
place = (753, 148);
type = Stem;
},
{
place = (105, 50);
place = (105, 50);
type = Stem;
},
{
place = (543, 51);
place = (543, 51);
type = Stem;
}
);
layerId = m01;
shapes = (
{
closed = 1;
nodes = (
(248,753,l),
(288,753,l),
(401,901,l),
(355,901,l)
);
},
{
closed = 1;
nodes = (
(410,753,l),
(449,753,l),
(570,901,l),
(517,901,l)
);
},
{
closed = 1;
nodes = (
(507,-8,o),
(594,84,o),
(594,257,cs),
(594,697,l),
(543,697,l),
(543,260,ls),
(543,115,o),
(478,42,o),
(348,42,cs),
(220,42,o),
(155,114,o),
(155,257,cs),
(155,697,l),
(105,697,l),
(105,252,ls),
(105,83,o),
(191,-8,o),
(348,-8,cs)
);
}
);
width = 698;
}
);
note = Uhungarumlaut;
unicode = 368;
},
{
glyphname = Umacron;
kernLeft = U;
kernRight = J;
layers = (
{
hints = (
{
horizontal = 1;
place = (-8, 50);
place = (-8, 50);
type = Stem;
},
{
horizontal = 1;
place = (697, -20);
target = down;
type = TopGhost;
},
{
horizontal = 1;
place = (816, 31);
place = (816, 31);
type = Stem;
},
{
place = (105, 50);
place = (105, 50);
type = Stem;
},
{
place = (543, 51);
place = (543, 51);
type = Stem;
}
);
layerId = m01;
shapes = (
{
closed = 1;
nodes = (
(215,816,l),
(483,816,l),
(483,847,l),
(215,847,l)
);
},
{
closed = 1;
nodes = (
(507,-8,o),
(594,84,o),
(594,257,cs),
(594,697,l),
(543,697,l),
(543,260,ls),
(543,115,o),
(478,42,o),
(348,42,cs),
(220,42,o),
(155,114,o),
(155,257,cs),
(155,697,l),
(105,697,l),
(105,252,ls),
(105,83,o),
(191,-8,o),
(348,-8,cs)
);
}
);
width = 698;
}
);
note = Umacron;
unicode = 362;
},
{
glyphname = Uogonek;
kernLeft = U;
kernRight = J;
layers = (
{
hints = (
{
horizontal = 1;
place = (-211, 34);
place = (-211, 34);
type = Stem;
},
{
horizontal = 1;
place = (-8, 50);
place = (-8, 50);
type = Stem;
},
{
horizontal = 1;
place = (697, -20);
target = down;
type = TopGhost;
},
{
place = (105, 50);
place = (105, 50);
type = Stem;
},
{
place = (281, 32);
place = (281, 32);
type = Stem;
},
{
place = (543, 51);
place = (543, 51);
type = Stem;
}
);
layerId = m01;
shapes = (
{
closed = 1;
nodes = (
(543,697,l),
(543,260,ls),
(543,115,o),
(478,42,o),
(348,42,cs),
(220,42,o),
(155,114,o),
(155,257,cs),
(155,697,l),
(105,697,l),
(105,252,ls),
(105,83,o),
(191,-8,o),
(348,-8,cs),
(357,-8,l),
(318,-38,o),
(281,-83,o),
(281,-134,cs),
(281,-182,o),
(318,-211,o),
(364,-211,cs),
(397,-211,o),
(427,-195,o),
(451,-171,c),
(427,-150,l),
(408,-167,o),
(385,-177,o),
(362,-177,cs),
(336,-177,o),
(313,-164,o),
(313,-130,cs),
(313,-74,o),
(365,-30,o),
(408,-3,c),
(529,18,o),
(594,107,o),
(594,257,cs),
(594,697,l)
);
}
);
width = 698;
}
);
note = Uogonek;
unicode = 370;
},
{
glyphname = Uring;
kernLeft = U;
kernRight = J;
layers = (
{
hints = (
{
horizontal = 1;
place = (-8, 50);
place = (-8, 50);
type = Stem;
},
{
horizontal = 1;
place = (684, 29);
place = (684, 29);
type = Stem;
},
{
horizontal = 1;
place = (835, 30);
place = (835, 30);
type = Stem;
},
{
place = (105, 50);
place = (105, 50);
type = Stem;
},
{
place = (258, 30);
place = (258, 30);
type = Stem;
},
{
place = (410, 29);
place = (410, 29);
type = Stem;
},
{
place = (543, 51);
place = (543, 51);
type = Stem;
},
{
horizontal = 1;
place = (697, -20);
target = down;
type = TopGhost;
}
);
layerId = m01;
shapes = (
{
closed = 1;
nodes = (
(399,684,o),
(439,724,o),
(439,774,cs),
(439,824,o),
(398,865,o),
(349,865,cs),
(299,865,o),
(258,825,o),
(258,774,cs),
(258,724,o),
(298,684,o),
(349,684,cs)
);
},
{
closed = 1;
nodes = (
(314,713,o),
(288,740,o),
(288,774,cs),
(288,809,o),
(314,835,o),
(349,835,cs),
(384,835,o),
(410,809,o),
(410,774,cs),
(410,740,o),
(383,713,o),
(349,713,cs)
);
},
{
closed = 1;
nodes = (
(507,-8,o),
(594,84,o),
(594,257,cs),
(594,697,l),
(543,697,l),
(543,260,ls),
(543,115,o),
(478,42,o),
(348,42,cs),
(220,42,o),
(155,114,o),
(155,257,cs),
(155,697,l),
(105,697,l),
(105,252,ls),
(105,83,o),
(191,-8,o),
(348,-8,cs)
);
}
);
width = 698;
}
);
note = Uring;
unicode = 366;
},
{
glyphname = Utilde;
kernLeft = U;
kernRight = J;
layers = (
{
hints = (
{
horizontal = 1;
place = (-8, 50);
place = (-8, 50);
type = Stem;
},
{
horizontal = 1;
place = (697, -20);
target = down;
type = TopGhost;
},
{
horizontal = 1;
place = (780, 33);
place = (780, 33);
type = Stem;
},
{
horizontal = 1;
place = (873, 32);
place = (873, 32);
type = Stem;
},
{
place = (105, 50);
place = (105, 50);
type = Stem;
},
{
place = (194, 30);
place = (194, 30);
type = Stem;
},
{
place = (473, 32);
place = (473, 32);
type = Stem;
},
{
place = (543, 51);
place = (543, 51);
type = Stem;
}
);
layerId = m01;
shapes = (
{
closed = 1;
nodes = (
(471,780,o),
(505,827,o),
(505,901,c),
(473,901,l),
(473,847,o),
(450,813,o),
(421,813,cs),
(359,813,o),
(359,905,o),
(282,905,cs),
(228,905,o),
(194,863,o),
(194,790,c),
(224,790,l),
(224,842,o),
(246,873,o),
(281,873,cs),
(340,873,o),
(336,780,o),
(421,780,cs)
);
},
{
closed = 1;
nodes = (
(507,-8,o),
(594,84,o),
(594,257,cs),
(594,697,l),
(543,697,l),
(543,260,ls),
(543,115,o),
(478,42,o),
(348,42,cs),
(220,42,o),
(155,114,o),
(155,257,cs),
(155,697,l),
(105,697,l),
(105,252,ls),
(105,83,o),
(191,-8,o),
(348,-8,cs)
);
}
);
width = 698;
}
);
note = Utilde;
unicode = 360;
},
{
glyphname = V;
kernLeft = V;
kernRight = V;
lastChange = "2022-12-23 03:29:40 +0000";
layers = (
{
hints = (
{
horizontal = 1;
place = (0, 21);
target = up;
type = BottomGhost;
},
{
horizontal = 1;
place = (697, -20);
target = down;
type = TopGhost;
},
{
place = (43, 594);
place = (43, 594);
type = Stem;
},
{
horizontal = 1;
place = (0, 75);
place = (0, 75);
type = Stem;
}
);
layerId = m01;
shapes = (
{
closed = 1;
nodes = (
(581,697,o),
(575,683,qs),
(341,75,l),
(100,697,l),
(43,697,l),
(318,0,l),
(362,0,l),
(637,697,l),
(596,697,ls)
);
}
);
width = 680;
}
);
note = V;
unicode = 86;
},
{
glyphname = W;
kernLeft = W;
kernRight = W;
lastChange = "2022-12-23 03:29:56 +0000";
layers = (
{
hints = (
{
horizontal = 1;
place = (0, 21);
target = up;
type = BottomGhost;
},
{
horizontal = 1;
place = (697, -20);
target = down;
type = TopGhost;
},
{
place = (49, 880);
place = (49, 880);
type = Stem;
},
{
horizontal = 1;
place = (0, 74);
place = (0, 74);
type = Stem;
}
);
layerId = m01;
shapes = (
{
closed = 1;
nodes = (
(876,697,o),
(871,682,qs),
(700,74,l),
(512,661,l),
(481,661,ls),
(466,661,o),
(461,646,qs),
(277,74,l),
(102,697,l),
(49,697,l),
(248,0,l),
(301,0,l),
(489,580,l),
(676,0,l),
(730,0,l),
(929,697,l),
(890,697,ls)
);
}
);
width = 978;
}
);
note = W;
unicode = 87;
},
{
glyphname = Wacute;
kernLeft = W;
kernRight = W;
layers = (
{
hints = (
{
horizontal = 1;
place = (0, 21);
target = up;
type = BottomGhost;
},
{
horizontal = 1;
place = (697, -20);
target = down;
type = TopGhost;
},
{
horizontal = 1;
place = (761, 140);
place = (761, 140);
type = Stem;
},
{
place = (49, 880);
place = (49, 880);
type = Stem;
},
{
horizontal = 1;
place = (0, 74);
place = (0, 74);
type = Stem;
}
);
layerId = m01;
shapes = (
{
closed = 1;
nodes = (
(470,761,l),
(510,761,l),
(630,901,l),
(577,901,l)
);
},
{
closed = 1;
nodes = (
(248,0,l),
(301,0,l),
(489,580,l),
(676,0,l),
(730,0,l),
(929,697,l),
(875,697,l),
(700,74,l),
(512,661,l),
(466,661,l),
(277,74,l),
(102,697,l),
(49,697,l)
);
}
);
width = 978;
}
);
note = Wacute;
unicode = 7810;
},
{
glyphname = Wcircumflex;
kernLeft = W;
kernRight = W;
layers = (
{
hints = (
{
horizontal = 1;
place = (0, 21);
target = up;
type = BottomGhost;
},
{
horizontal = 1;
place = (697, -20);
target = down;
type = TopGhost;
},
{
place = (49, 880);
place = (49, 880);
type = Stem;
},
{
horizontal = 1;
place = (0, 74);
place = (0, 74);
type = Stem;
}
);
layerId = m01;
shapes = (
{
closed = 1;
nodes = (
(343,755,l),
(387,755,l),
(490,862,l),
(593,755,l),
(636,755,l),
(490,908,l)
);
},
{
closed = 1;
nodes = (
(248,0,l),
(301,0,l),
(489,580,l),
(676,0,l),
(730,0,l),
(929,697,l),
(875,697,l),
(700,74,l),
(512,661,l),
(466,661,l),
(277,74,l),
(102,697,l),
(49,697,l)
);
}
);
width = 978;
}
);
note = Wcircumflex;
unicode = 372;
},
{
glyphname = Wdieresis;
kernLeft = W;
kernRight = W;
layers = (
{
hints = (
{
horizontal = 1;
place = (0, 21);
target = up;
type = BottomGhost;
},
{
horizontal = 1;
place = (697, -20);
target = down;
type = TopGhost;
},
{
horizontal = 1;
place = (803, 98);
place = (803, 98);
type = Stem;
},
{
place = (374, 57);
place = (374, 57);
type = Stem;
},
{
place = (549, 56);
place = (549, 56);
type = Stem;
},
{
horizontal = 1;
place = (0, 74);
place = (0, 74);
type = Stem;
}
);
layerId = m01;
shapes = (
{
closed = 1;
nodes = (
(374,803,l),
(431,803,l),
(431,901,l),
(374,901,l)
);
},
{
closed = 1;
nodes = (
(549,803,l),
(605,803,l),
(605,901,l),
(549,901,l)
);
},
{
closed = 1;
nodes = (
(248,0,l),
(301,0,l),
(489,580,l),
(676,0,l),
(730,0,l),
(929,697,l),
(875,697,l),
(700,74,l),
(512,661,l),
(466,661,l),
(277,74,l),
(102,697,l),
(49,697,l)
);
}
);
width = 978;
}
);
note = Wdieresis;
unicode = 7812;
},
{
glyphname = Wgrave;
kernLeft = W;
kernRight = W;
layers = (
{
hints = (
{
horizontal = 1;
place = (0, 21);
target = up;
type = BottomGhost;
},
{
horizontal = 1;
place = (697, -20);
target = down;
type = TopGhost;
},
{
horizontal = 1;
place = (761, 140);
place = (761, 140);
type = Stem;
},
{
place = (49, 880);
place = (49, 880);
type = Stem;
},
{
horizontal = 1;
place = (0, 74);
place = (0, 74);
type = Stem;
}
);
layerId = m01;
shapes = (
{
closed = 1;
nodes = (
(469,761,l),
(509,761,l),
(405,901,l),
(352,901,l)
);
},
{
closed = 1;
nodes = (
(248,0,l),
(301,0,l),
(489,580,l),
(676,0,l),
(730,0,l),
(929,697,l),
(875,697,l),
(700,74,l),
(512,661,l),
(466,661,l),
(277,74,l),
(102,697,l),
(49,697,l)
);
}
);
width = 978;
}
);
note = Wgrave;
unicode = 7808;
},
{
glyphname = X;
kernLeft = X;
kernRight = X;
lastChange = "2022-12-23 03:30:05 +0000";
layers = (
{
hints = (
{
horizontal = 1;
place = (0, 21);
target = up;
type = BottomGhost;
},
{
horizontal = 1;
place = (697, -20);
target = down;
type = TopGhost;
},
{
place = (46, 562);
place = (46, 562);
type = Stem;
}
);
layerId = m01;
shapes = (
{
closed = 1;
nodes = (
(548,0,o),
(562,0,qs),
(608,0,l),
(361,352,l),
(602,697,l),
(541,697,l),
(327,388,l),
(122,684,ls),
(112,697,o),
(98,697,qs),
(52,697,l),
(292,352,l),
(46,0,l),
(108,0,l),
(326,314,l),
(538,13,ls)
);
}
);
width = 654;
}
);
note = X;
unicode = 88;
},
{
glyphname = Y;
kernLeft = Y;
kernRight = Y;
layers = (
{
hints = (
{
horizontal = 1;
place = (0, 21);
target = up;
type = BottomGhost;
},
{
horizontal = 1;
place = (697, -20);
target = down;
type = TopGhost;
},
{
place = (304, 52);
place = (304, 52);
type = Stem;
}
);
layerId = m01;
shapes = (
{
closed = 1;
nodes = (
(304,0,l),
(356,0,l),
(356,265,l),
(623,697,l),
(562,697,l),
(329,315,l),
(98,697,l),
(38,697,l),
(304,265,l)
);
}
);
width = 661;
}
);
note = Y;
unicode = 89;
},
{
glyphname = Yacute;
kernLeft = Y;
kernRight = Y;
layers = (
{
hints = (
{
horizontal = 1;
place = (0, 21);
target = up;
type = BottomGhost;
},
{
horizontal = 1;
place = (697, -20);
target = down;
type = TopGhost;
},
{
horizontal = 1;
place = (761, 140);
place = (761, 140);
type = Stem;
},
{
place = (304, 52);
place = (304, 52);
type = Stem;
}
);
layerId = m01;
shapes = (
{
closed = 1;
nodes = (
(311,761,l),
(351,761,l),
(471,901,l),
(418,901,l)
);
},
{
closed = 1;
nodes = (
(304,0,l),
(356,0,l),
(356,265,l),
(623,697,l),
(562,697,l),
(329,315,l),
(98,697,l),
(38,697,l),
(304,265,l)
);
}
);
width = 661;
}
);
note = Yacute;
unicode = 221;
},
{
glyphname = Ycircumflex;
kernLeft = Y;
kernRight = Y;
layers = (
{
hints = (
{
horizontal = 1;
place = (0, 21);
target = up;
type = BottomGhost;
},
{
horizontal = 1;
place = (697, -20);
target = down;
type = TopGhost;
},
{
place = (304, 52);
place = (304, 52);
type = Stem;
}
);
layerId = m01;
shapes = (
{
closed = 1;
nodes = (
(184,755,l),
(228,755,l),
(331,862,l),
(434,755,l),
(477,755,l),
(331,908,l)
);
},
{
closed = 1;
nodes = (
(304,0,l),
(356,0,l),
(356,265,l),
(623,697,l),
(562,697,l),
(329,315,l),
(98,697,l),
(38,697,l),
(304,265,l)
);
}
);
width = 661;
}
);
note = Ycircumflex;
unicode = 374;
},
{
glyphname = Ydieresis;
kernLeft = Y;
kernRight = Y;
layers = (
{
hints = (
{
horizontal = 1;
place = (0, 21);
target = up;
type = BottomGhost;
},
{
horizontal = 1;
place = (697, -20);
target = down;
type = TopGhost;
},
{
horizontal = 1;
place = (803, 98);
place = (803, 98);
type = Stem;
},
{
place = (215, 57);
place = (215, 57);
type = Stem;
},
{
place = (304, 52);
place = (304, 52);
type = Stem;
},
{
place = (390, 56);
place = (390, 56);
type = Stem;
}
);
layerId = m01;
shapes = (
{
closed = 1;
nodes = (
(215,803,l),
(272,803,l),
(272,901,l),
(215,901,l)
);
},
{
closed = 1;
nodes = (
(390,803,l),
(446,803,l),
(446,901,l),
(390,901,l)
);
},
{
closed = 1;
nodes = (
(304,0,l),
(356,0,l),
(356,265,l),
(623,697,l),
(562,697,l),
(329,315,l),
(98,697,l),
(38,697,l),
(304,265,l)
);
}
);
width = 661;
}
);
note = Ydieresis;
unicode = 376;
},
{
glyphname = uni1EF4;
kernLeft = Y;
kernRight = Y;
layers = (
{
hints = (
{
horizontal = 1;
place = (-173, 97);
place = (-173, 97);
type = Stem;
},
{
horizontal = 1;
place = (0, 21);
target = up;
type = BottomGhost;
},
{
horizontal = 1;
place = (697, -20);
target = down;
type = TopGhost;
},
{
place = (304, 52);
place = (304, 52);
type = Stem;
},
{
place = (302, 57);
place = (302, 57);
type = Stem;
}
);
layerId = m01;
shapes = (
{
closed = 1;
nodes = (
(304,0,l),
(356,0,l),
(356,265,l),
(623,697,l),
(562,697,l),
(329,315,l),
(98,697,l),
(38,697,l),
(304,265,l)
);
},
{
closed = 1;
nodes = (
(302,-173,l),
(359,-173,l),
(359,-76,l),
(302,-76,l)
);
}
);
width = 661;
}
);
note = uni1EF4;
unicode = 7924;
},
{
glyphname = Ygrave;
kernLeft = Y;
kernRight = Y;
layers = (
{
hints = (
{
horizontal = 1;
place = (0, 21);
target = up;
type = BottomGhost;
},
{
horizontal = 1;
place = (697, -20);
target = down;
type = TopGhost;
},
{
horizontal = 1;
place = (761, 140);
place = (761, 140);
type = Stem;
},
{
place = (304, 52);
place = (304, 52);
type = Stem;
}
);
layerId = m01;
shapes = (
{
closed = 1;
nodes = (
(310,761,l),
(350,761,l),
(246,901,l),
(193,901,l)
);
},
{
closed = 1;
nodes = (
(304,0,l),
(356,0,l),
(356,265,l),
(623,697,l),
(562,697,l),
(329,315,l),
(98,697,l),
(38,697,l),
(304,265,l)
);
}
);
width = 661;
}
);
note = Ygrave;
unicode = 7922;
},
{
glyphname = uni1EF6;
kernLeft = Y;
kernRight = Y;
layers = (
{
hints = (
{
horizontal = 1;
place = (0, 21);
target = up;
type = BottomGhost;
},
{
horizontal = 1;
place = (697, -20);
target = down;
type = TopGhost;
},
{
horizontal = 1;
place = (892, 30);
place = (892, 30);
type = Stem;
},
{
place = (304, 52);
place = (304, 52);
type = Stem;
},
{
place = (402, 36);
place = (402, 36);
type = Stem;
}
);
layerId = m01;
shapes = (
{
closed = 1;
nodes = (
(326,736,l),
(374,747,o),
(438,756,o),
(438,825,cs),
(438,888,o),
(379,922,o),
(303,922,cs),
(288,922,l),
(288,892,l),
(303,892,ls),
(354,892,o),
(402,874,o),
(402,826,cs),
(402,780,o),
(356,773,o),
(317,766,c)
);
},
{
closed = 1;
nodes = (
(304,0,l),
(356,0,l),
(356,265,l),
(623,697,l),
(562,697,l),
(329,315,l),
(98,697,l),
(38,697,l),
(304,265,l)
);
}
);
width = 661;
}
);
note = uni1EF6;
unicode = 7926;
},
{
glyphname = uni1EF8;
kernLeft = Y;
kernRight = Y;
layers = (
{
hints = (
{
horizontal = 1;
place = (0, 21);
target = up;
type = BottomGhost;
},
{
horizontal = 1;
place = (697, -20);
target = down;
type = TopGhost;
},
{
horizontal = 1;
place = (780, 33);
place = (780, 33);
type = Stem;
},
{
horizontal = 1;
place = (873, 32);
place = (873, 32);
type = Stem;
},
{
place = (175, 30);
place = (175, 30);
type = Stem;
},
{
place = (304, 52);
place = (304, 52);
type = Stem;
},
{
place = (454, 32);
place = (454, 32);
type = Stem;
}
);
layerId = m01;
shapes = (
{
closed = 1;
nodes = (
(452,780,o),
(486,827,o),
(486,901,c),
(454,901,l),
(454,847,o),
(431,813,o),
(402,813,cs),
(340,813,o),
(340,905,o),
(263,905,cs),
(209,905,o),
(175,863,o),
(175,790,c),
(205,790,l),
(205,842,o),
(227,873,o),
(262,873,cs),
(321,873,o),
(317,780,o),
(402,780,cs)
);
},
{
closed = 1;
nodes = (
(304,0,l),
(356,0,l),
(356,265,l),
(623,697,l),
(562,697,l),
(329,315,l),
(98,697,l),
(38,697,l),
(304,265,l)
);
}
);
width = 661;
}
);
note = uni1EF8;
unicode = 7928;
},
{
glyphname = Z;
kernLeft = Z;
kernRight = Z;
lastChange = "2022-12-23 03:30:29 +0000";
layers = (
{
hints = (
{
horizontal = 1;
place = (0, 47);
place = (0, 47);
type = Stem;
},
{
horizontal = 1;
place = (650, 47);
place = (650, 47);
type = Stem;
},
{
place = (50, 545);
place = (50, 545);
type = Stem;
}
);
layerId = m01;
shapes = (
{
closed = 1;
nodes = (
(593,47,o),
(578,47,qs),
(115,47,l),
(595,655,l),
(595,697,l),
(73,697,l),
(73,650,l),
(531,650,l),
(50,41,l),
(50,0,l),
(593,0,l),
(593,32,ls)
);
}
);
width = 650;
}
);
note = Z;
unicode = 90;
},
{
glyphname = Zacute;
kernLeft = Z;
kernRight = Z;
layers = (
{
hints = (
{
horizontal = 1;
place = (0, 47);
place = (0, 47);
type = Stem;
},
{
horizontal = 1;
place = (650, 47);
place = (650, 47);
type = Stem;
},
{
horizontal = 1;
place = (761, 140);
place = (761, 140);
type = Stem;
},
{
place = (50, 545);
place = (50, 545);
type = Stem;
}
);
layerId = m01;
shapes = (
{
closed = 1;
nodes = (
(465,901,l),
(412,901,l),
(305,761,l),
(345,761,l)
);
},
{
closed = 1;
nodes = (
(595,697,l),
(73,697,l),
(73,650,l),
(531,650,l),
(50,41,l),
(50,0,l),
(593,0,l),
(593,47,l),
(115,47,l),
(595,655,l)
);
}
);
width = 650;
}
);
note = Zacute;
unicode = 377;
},
{
glyphname = Zcaron;
kernLeft = Z;
kernRight = Z;
layers = (
{
hints = (
{
horizontal = 1;
place = (0, 47);
place = (0, 47);
type = Stem;
},
{
horizontal = 1;
place = (650, 47);
place = (650, 47);
type = Stem;
},
{
place = (50, 545);
place = (50, 545);
type = Stem;
}
);
layerId = m01;
shapes = (
{
closed = 1;
nodes = (
(471,901,l),
(428,901,l),
(325,796,l),
(222,901,l),
(178,901,l),
(325,752,l)
);
},
{
closed = 1;
nodes = (
(595,697,l),
(73,697,l),
(73,650,l),
(531,650,l),
(50,41,l),
(50,0,l),
(593,0,l),
(593,47,l),
(115,47,l),
(595,655,l)
);
}
);
width = 650;
}
);
note = Zcaron;
unicode = 381;
},
{
glyphname = Zdotaccent;
kernLeft = Z;
kernRight = Z;
layers = (
{
hints = (
{
horizontal = 1;
place = (0, 47);
place = (0, 47);
type = Stem;
},
{
horizontal = 1;
place = (650, 47);
place = (650, 47);
type = Stem;
},
{
horizontal = 1;
place = (803, 98);
place = (803, 98);
type = Stem;
},
{
place = (297, 57);
place = (297, 57);
type = Stem;
}
);
layerId = m01;
shapes = (
{
closed = 1;
nodes = (
(354,901,l),
(297,901,l),
(297,803,l),
(354,803,l)
);
},
{
closed = 1;
nodes = (
(595,697,l),
(73,697,l),
(73,650,l),
(531,650,l),
(50,41,l),
(50,0,l),
(593,0,l),
(593,47,l),
(115,47,l),
(595,655,l)
);
}
);
width = 650;
}
);
note = Zdotaccent;
unicode = 379;
},
{
glyphname = uni1EB6.ss03;
kernLeft = A;
kernRight = A;
layers = (
{
hints = (
{
horizontal = 1;
place = (-166, 84);
place = (-166, 84);
type = Stem;
},
{
horizontal = 1;
place = (0, 21);
target = up;
type = BottomGhost;
},
{
horizontal = 1;
place = (196, 44);
place = (196, 44);
type = Stem;
},
{
horizontal = 1;
place = (697, -20);
target = down;
type = TopGhost;
},
{
horizontal = 1;
place = (771, 31);
place = (771, 31);
type = Stem;
},
{
place = (171, 37);
place = (171, 37);
type = Stem;
},
{
place = (433, 36);
place = (433, 36);
type = Stem;
},
{
horizontal = 1;
place = (628, 69);
place = (628, 69);
type = Stem;
},
{
place = (278, 84);
place = (278, 84);
type = Stem;
}
);
layerId = m01;
shapes = (
{
closed = 1;
nodes = (
(416,771,o),
(469,815,o),
(469,901,c),
(433,901,l),
(433,837,o),
(392,802,o),
(320,802,cs),
(250,802,o),
(208,836,o),
(208,901,c),
(171,901,l),
(171,817,o),
(222,771,o),
(320,771,cs)
);
},
{
closed = 1;
nodes = (
(596,0,l),
(342,697,l),
(297,697,l),
(44,0,l),
(100,0,l),
(169,196,l),
(471,196,l),
(540,0,l)
);
},
{
closed = 1;
nodes = (
(184,240,l),
(320,628,l),
(456,240,l)
);
},
{
closed = 1;
nodes = (
(296,-82,o),
(278,-100,o),
(278,-124,cs),
(278,-147,o),
(297,-166,o),
(320,-166,cs),
(343,-166,o),
(362,-147,o),
(362,-124,cs),
(362,-100,o),
(343,-82,o),
(320,-82,cs)
);
}
);
width = 640;
}
);
note = uni1EB6.ss03;
},
{
glyphname = uni1EAC.ss03;
kernLeft = A;
kernRight = A;
layers = (
{
hints = (
{
horizontal = 1;
place = (-166, 84);
place = (-166, 84);
type = Stem;
},
{
horizontal = 1;
place = (0, 21);
target = up;
type = BottomGhost;
},
{
horizontal = 1;
place = (196, 44);
place = (196, 44);
type = Stem;
},
{
horizontal = 1;
place = (697, -20);
target = down;
type = TopGhost;
},
{
place = (278, 84);
place = (278, 84);
type = Stem;
},
{
horizontal = 1;
place = (628, 69);
place = (628, 69);
type = Stem;
}
);
layerId = m01;
shapes = (
{
closed = 1;
nodes = (
(320,862,l),
(423,755,l),
(466,755,l),
(320,908,l),
(173,755,l),
(217,755,l)
);
},
{
closed = 1;
nodes = (
(596,0,l),
(342,697,l),
(297,697,l),
(44,0,l),
(100,0,l),
(169,196,l),
(471,196,l),
(540,0,l)
);
},
{
closed = 1;
nodes = (
(184,240,l),
(320,628,l),
(456,240,l)
);
},
{
closed = 1;
nodes = (
(296,-82,o),
(278,-100,o),
(278,-124,cs),
(278,-147,o),
(297,-166,o),
(320,-166,cs),
(343,-166,o),
(362,-147,o),
(362,-124,cs),
(362,-100,o),
(343,-82,o),
(320,-82,cs)
);
}
);
width = 640;
}
);
note = uni1EAC.ss03;
},
{
glyphname = Adieresis.ss03;
kernLeft = A;
kernRight = A;
layers = (
{
hints = (
{
horizontal = 1;
place = (0, 21);
target = up;
type = BottomGhost;
},
{
horizontal = 1;
place = (196, 44);
place = (196, 44);
type = Stem;
},
{
horizontal = 1;
place = (697, -20);
target = down;
type = TopGhost;
},
{
horizontal = 1;
place = (823, 84);
place = (823, 84);
type = Stem;
},
{
place = (188, 84);
place = (188, 84);
type = Stem;
},
{
place = (369, 84);
place = (369, 84);
type = Stem;
},
{
horizontal = 1;
place = (628, 69);
place = (628, 69);
type = Stem;
}
);
layerId = m01;
shapes = (
{
closed = 1;
nodes = (
(253,823,o),
(272,842,o),
(272,865,cs),
(272,889,o),
(253,907,o),
(230,907,cs),
(206,907,o),
(188,889,o),
(188,865,cs),
(188,842,o),
(207,823,o),
(230,823,cs)
);
},
{
closed = 1;
nodes = (
(435,823,o),
(453,842,o),
(453,865,cs),
(453,889,o),
(435,907,o),
(411,907,cs),
(387,907,o),
(369,889,o),
(369,865,cs),
(369,842,o),
(388,823,o),
(411,823,cs)
);
},
{
closed = 1;
nodes = (
(540,0,l),
(596,0,l),
(342,697,l),
(297,697,l),
(44,0,l),
(100,0,l),
(169,196,l),
(471,196,l)
);
},
{
closed = 1;
nodes = (
(184,240,l),
(320,628,l),
(456,240,l)
);
}
);
width = 640;
}
);
note = Adieresis.ss03;
},
{
glyphname = uni1EA0.ss03;
kernLeft = A;
kernRight = A;
layers = (
{
hints = (
{
horizontal = 1;
place = (-166, 84);
place = (-166, 84);
type = Stem;
},
{
horizontal = 1;
place = (0, 21);
target = up;
type = BottomGhost;
},
{
horizontal = 1;
place = (196, 44);
place = (196, 44);
type = Stem;
},
{
horizontal = 1;
place = (697, -20);
target = down;
type = TopGhost;
},
{
place = (278, 84);
place = (278, 84);
type = Stem;
},
{
horizontal = 1;
place = (628, 69);
place = (628, 69);
type = Stem;
}
);
layerId = m01;
shapes = (
{
closed = 1;
nodes = (
(596,0,l),
(342,697,l),
(297,697,l),
(44,0,l),
(100,0,l),
(169,196,l),
(471,196,l),
(540,0,l)
);
},
{
closed = 1;
nodes = (
(184,240,l),
(320,628,l),
(456,240,l)
);
},
{
closed = 1;
nodes = (
(296,-82,o),
(278,-100,o),
(278,-124,cs),
(278,-147,o),
(297,-166,o),
(320,-166,cs),
(343,-166,o),
(362,-147,o),
(362,-124,cs),
(362,-100,o),
(343,-82,o),
(320,-82,cs)
);
}
);
width = 640;
}
);
note = uni1EA0.ss03;
},
{
glyphname = Cdotaccent.ss03;
kernLeft = C;
kernRight = C;
layers = (
{
hints = (
{
horizontal = 1;
place = (-8, 48);
place = (-8, 48);
type = Stem;
},
{
horizontal = 1;
place = (657, 48);
place = (657, 48);
type = Stem;
},
{
horizontal = 1;
place = (823, 84);
place = (823, 84);
type = Stem;
},
{
place = (75, 50);
place = (75, 50);
type = Stem;
},
{
place = (351, 84);
place = (351, 84);
type = Stem;
}
);
layerId = m01;
shapes = (
{
closed = 1;
nodes = (
(416,823,o),
(435,842,o),
(435,865,cs),
(435,889,o),
(416,907,o),
(393,907,cs),
(369,907,o),
(351,889,o),
(351,865,cs),
(351,842,o),
(370,823,o),
(393,823,cs)
);
},
{
closed = 1;
nodes = (
(519,-8,o),
(618,56,o),
(671,181,c),
(622,199,l),
(580,94,o),
(498,40,o),
(384,40,cs),
(219,40,o),
(125,153,o),
(125,350,cs),
(125,547,o),
(220,657,o),
(390,657,cs),
(506,657,o),
(583,607,o),
(622,501,c),
(669,519,l),
(621,644,o),
(528,705,o),
(390,705,cs),
(191,705,o),
(75,575,o),
(75,350,cs),
(75,125,o),
(189,-8,o),
(384,-8,cs)
);
}
);
width = 727;
}
);
note = Cdotaccent.ss03;
},
{
glyphname = uni1EC6.ss03;
layers = (
{
hints = (
{
horizontal = 1;
place = (-166, 84);
place = (-166, 84);
type = Stem;
},
{
horizontal = 1;
place = (0, 47);
place = (0, 47);
type = Stem;
},
{
horizontal = 1;
place = (330, 48);
place = (330, 48);
type = Stem;
},
{
horizontal = 1;
place = (650, 47);
place = (650, 47);
type = Stem;
},
{
place = (119, 51);
place = (119, 51);
type = Stem;
},
{
place = (304, 84);
place = (304, 84);
type = Stem;
}
);
layerId = m01;
shapes = (
{
closed = 1;
nodes = (
(199,755,l),
(243,755,l),
(346,862,l),
(449,755,l),
(492,755,l),
(346,908,l)
);
},
{
closed = 1;
nodes = (
(119,0,l),
(573,0,l),
(573,47,l),
(170,47,l),
(170,330,l),
(529,330,l),
(529,378,l),
(170,378,l),
(170,650,l),
(573,650,l),
(573,697,l),
(119,697,l)
);
},
{
closed = 1;
nodes = (
(369,-166,o),
(388,-147,o),
(388,-124,cs),
(388,-100,o),
(369,-82,o),
(346,-82,cs),
(322,-82,o),
(304,-100,o),
(304,-124,cs),
(304,-147,o),
(323,-166,o),
(346,-166,cs)
);
}
);
width = 634;
}
);
note = uni1EC6.ss03;
},
{
glyphname = Edieresis.ss03;
layers = (
{
hints = (
{
horizontal = 1;
place = (0, 47);
place = (0, 47);
type = Stem;
},
{
horizontal = 1;
place = (330, 48);
place = (330, 48);
type = Stem;
},
{
horizontal = 1;
place = (650, 47);
place = (650, 47);
type = Stem;
},
{
horizontal = 1;
place = (823, 84);
place = (823, 84);
type = Stem;
},
{
place = (119, 51);
place = (119, 51);
type = Stem;
},
{
place = (213, 84);
place = (213, 84);
type = Stem;
},
{
place = (394, 84);
place = (394, 84);
type = Stem;
}
);
layerId = m01;
shapes = (
{
closed = 1;
nodes = (
(278,823,o),
(297,842,o),
(297,865,cs),
(297,889,o),
(278,907,o),
(255,907,cs),
(231,907,o),
(213,889,o),
(213,865,cs),
(213,842,o),
(232,823,o),
(255,823,cs)
);
},
{
closed = 1;
nodes = (
(460,823,o),
(478,842,o),
(478,865,cs),
(478,889,o),
(460,907,o),
(436,907,cs),
(412,907,o),
(394,889,o),
(394,865,cs),
(394,842,o),
(413,823,o),
(436,823,cs)
);
},
{
closed = 1;
nodes = (
(119,0,l),
(573,0,l),
(573,47,l),
(170,47,l),
(170,330,l),
(529,330,l),
(529,378,l),
(170,378,l),
(170,650,l),
(573,650,l),
(573,697,l),
(119,697,l)
);
}
);
width = 634;
}
);
note = Edieresis.ss03;
},
{
glyphname = Edotaccent.ss03;
layers = (
{
hints = (
{
horizontal = 1;
place = (0, 47);
place = (0, 47);
type = Stem;
},
{
horizontal = 1;
place = (330, 48);
place = (330, 48);
type = Stem;
},
{
horizontal = 1;
place = (650, 47);
place = (650, 47);
type = Stem;
},
{
horizontal = 1;
place = (823, 84);
place = (823, 84);
type = Stem;
},
{
place = (119, 51);
place = (119, 51);
type = Stem;
},
{
place = (304, 84);
place = (304, 84);
type = Stem;
}
);
layerId = m01;
shapes = (
{
closed = 1;
nodes = (
(369,823,o),
(388,842,o),
(388,865,cs),
(388,889,o),
(369,907,o),
(346,907,cs),
(322,907,o),
(304,889,o),
(304,865,cs),
(304,842,o),
(323,823,o),
(346,823,cs)
);
},
{
closed = 1;
nodes = (
(119,0,l),
(573,0,l),
(573,47,l),
(170,47,l),
(170,330,l),
(529,330,l),
(529,378,l),
(170,378,l),
(170,650,l),
(573,650,l),
(573,697,l),
(119,697,l)
);
}
);
width = 634;
}
);
note = Edotaccent.ss03;
},
{
glyphname = uni1EB8.ss03;
layers = (
{
hints = (
{
horizontal = 1;
place = (-166, 84);
place = (-166, 84);
type = Stem;
},
{
horizontal = 1;
place = (0, 47);
place = (0, 47);
type = Stem;
},
{
horizontal = 1;
place = (330, 48);
place = (330, 48);
type = Stem;
},
{
horizontal = 1;
place = (650, 47);
place = (650, 47);
type = Stem;
},
{
place = (119, 51);
place = (119, 51);
type = Stem;
},
{
place = (304, 84);
place = (304, 84);
type = Stem;
}
);
layerId = m01;
shapes = (
{
closed = 1;
nodes = (
(119,0,l),
(573,0,l),
(573,47,l),
(170,47,l),
(170,330,l),
(529,330,l),
(529,378,l),
(170,378,l),
(170,650,l),
(573,650,l),
(573,697,l),
(119,697,l)
);
},
{
closed = 1;
nodes = (
(369,-166,o),
(388,-147,o),
(388,-124,cs),
(388,-100,o),
(369,-82,o),
(346,-82,cs),
(322,-82,o),
(304,-100,o),
(304,-124,cs),
(304,-147,o),
(323,-166,o),
(346,-166,cs)
);
}
);
width = 634;
}
);
note = uni1EB8.ss03;
},
{
glyphname = Gdotaccent.ss03;
kernRight = G;
layers = (
{
hints = (
{
horizontal = 1;
place = (-8, 48);
place = (-8, 48);
type = Stem;
},
{
horizontal = 1;
place = (312, 42);
place = (312, 42);
type = Stem;
},
{
horizontal = 1;
place = (657, 48);
place = (657, 48);
type = Stem;
},
{
horizontal = 1;
place = (823, 84);
place = (823, 84);
type = Stem;
},
{
place = (75, 50);
place = (75, 50);
type = Stem;
},
{
place = (342, 84);
place = (342, 84);
type = Stem;
},
{
place = (621, 49);
place = (621, 49);
type = Stem;
},
{
horizontal = 1;
place = (0, 21);
target = up;
type = BottomGhost;
},
{
place = (624.5, 45.5);
place = (624.5, 45.5);
type = Stem;
}
);
layerId = m01;
shapes = (
{
closed = 1;
nodes = (
(407,823,o),
(426,842,o),
(426,865,cs),
(426,889,o),
(407,907,o),
(384,907,cs),
(360,907,o),
(342,889,o),
(342,865,cs),
(342,842,o),
(361,823,o),
(384,823,cs)
);
},
{
closed = 1;
nodes = (
(448,354,l),
(448,312,l),
(621,312,l),
(621,271,ls),
(621,105,o),
(507,40,o),
(384,40,cs),
(202,40,o),
(125,177,o),
(125,352,cs),
(125,540,o),
(215,657,o),
(391,657,cs),
(512,657,o),
(584,603,o),
(622,501,c),
(669,519,l),
(623,639,o),
(534,705,o),
(391,705,cs),
(183,705,o),
(75,563,o),
(75,350,cs),
(75,137,o),
(183,-8,o),
(381,-8,cs),
(493,-8,o),
(587,39,o),
(621,132,c),
(628,0,l),
(670,0,l),
(670,354,l)
);
}
);
width = 764;
}
);
note = Gdotaccent.ss03;
},
{
glyphname = Idieresis.ss03;
layers = (
{
hints = (
{
horizontal = 1;
place = (0, 21);
target = up;
type = BottomGhost;
},
{
horizontal = 1;
place = (697, -20);
target = down;
type = TopGhost;
},
{
horizontal = 1;
place = (823, 84);
place = (823, 84);
type = Stem;
},
{
place = (12, 84);
place = (12, 84);
type = Stem;
},
{
place = (119, 51);
place = (119, 51);
type = Stem;
},
{
place = (193, 84);
place = (193, 84);
type = Stem;
}
);
layerId = m01;
shapes = (
{
closed = 1;
nodes = (
(77,823,o),
(96,842,o),
(96,865,cs),
(96,889,o),
(77,907,o),
(54,907,cs),
(30,907,o),
(12,889,o),
(12,865,cs),
(12,842,o),
(31,823,o),
(54,823,cs)
);
},
{
closed = 1;
nodes = (
(259,823,o),
(277,842,o),
(277,865,cs),
(277,889,o),
(259,907,o),
(235,907,cs),
(211,907,o),
(193,889,o),
(193,865,cs),
(193,842,o),
(212,823,o),
(235,823,cs)
);
},
{
closed = 1;
nodes = (
(119,0,l),
(170,0,l),
(170,697,l),
(119,697,l)
);
}
);
width = 289;
}
);
note = Idieresis.ss03;
},
{
glyphname = uni1ECA.ss03;
layers = (
{
hints = (
{
horizontal = 1;
place = (-166, 84);
place = (-166, 84);
type = Stem;
},
{
horizontal = 1;
place = (0, 21);
target = up;
type = BottomGhost;
},
{
horizontal = 1;
place = (697, -20);
target = down;
type = TopGhost;
},
{
place = (119, 51);
place = (119, 51);
type = Stem;
},
{
place = (103, 84);
place = (103, 84);
type = Stem;
}
);
layerId = m01;
shapes = (
{
closed = 1;
nodes = (
(119,0,l),
(170,0,l),
(170,697,l),
(119,697,l)
);
},
{
closed = 1;
nodes = (
(168,-166,o),
(187,-147,o),
(187,-124,cs),
(187,-100,o),
(168,-82,o),
(145,-82,cs),
(121,-82,o),
(103,-100,o),
(103,-124,cs),
(103,-147,o),
(122,-166,o),
(145,-166,cs)
);
}
);
width = 289;
}
);
note = uni1ECA.ss03;
},
{
glyphname = uni1ED8.ss03;
layers = (
{
hints = (
{
horizontal = 1;
place = (-166, 84);
place = (-166, 84);
type = Stem;
},
{
horizontal = 1;
place = (-8, 48);
place = (-8, 48);
type = Stem;
},
{
horizontal = 1;
place = (657, 48);
place = (657, 48);
type = Stem;
},
{
place = (73, 51);
place = (73, 51);
type = Stem;
},
{
place = (345, 84);
place = (345, 84);
type = Stem;
},
{
place = (650, 51);
place = (650, 51);
type = Stem;
}
);
layerId = m01;
shapes = (
{
closed = 1;
nodes = (
(240,755,l),
(284,755,l),
(387,862,l),
(490,755,l),
(533,755,l),
(387,908,l)
);
},
{
closed = 1;
nodes = (
(576,-8,o),
(701,133,o),
(701,348,cs),
(701,563,o),
(575,705,o),
(387,705,cs),
(198,705,o),
(73,564,o),
(73,348,cs),
(73,133,o),
(198,-8,o),
(387,-8,cs)
);
},
{
closed = 1;
nodes = (
(226,40,o),
(124,160,o),
(124,348,cs),
(124,537,o),
(226,657,o),
(387,657,cs),
(547,657,o),
(650,537,o),
(650,348,cs),
(650,160,o),
(547,40,o),
(387,40,cs)
);
},
{
closed = 1;
nodes = (
(410,-166,o),
(429,-147,o),
(429,-124,cs),
(429,-100,o),
(410,-82,o),
(387,-82,cs),
(363,-82,o),
(345,-100,o),
(345,-124,cs),
(345,-147,o),
(364,-166,o),
(387,-166,cs)
);
}
);
width = 774;
}
);
note = uni1ED8.ss03;
},
{
glyphname = Odieresis.ss03;
layers = (
{
hints = (
{
horizontal = 1;
place = (-8, 48);
place = (-8, 48);
type = Stem;
},
{
horizontal = 1;
place = (657, 48);
place = (657, 48);
type = Stem;
},
{
horizontal = 1;
place = (823, 84);
place = (823, 84);
type = Stem;
},
{
place = (73, 51);
place = (73, 51);
type = Stem;
},
{
place = (255, 84);
place = (255, 84);
type = Stem;
},
{
place = (436, 84);
place = (436, 84);
type = Stem;
},
{
place = (650, 51);
place = (650, 51);
type = Stem;
}
);
layerId = m01;
shapes = (
{
closed = 1;
nodes = (
(320,823,o),
(339,842,o),
(339,865,cs),
(339,889,o),
(320,907,o),
(297,907,cs),
(273,907,o),
(255,889,o),
(255,865,cs),
(255,842,o),
(274,823,o),
(297,823,cs)
);
},
{
closed = 1;
nodes = (
(502,823,o),
(520,842,o),
(520,865,cs),
(520,889,o),
(502,907,o),
(478,907,cs),
(454,907,o),
(436,889,o),
(436,865,cs),
(436,842,o),
(455,823,o),
(478,823,cs)
);
},
{
closed = 1;
nodes = (
(576,-8,o),
(701,133,o),
(701,348,cs),
(701,563,o),
(575,705,o),
(387,705,cs),
(198,705,o),
(73,564,o),
(73,348,cs),
(73,133,o),
(198,-8,o),
(387,-8,cs)
);
},
{
closed = 1;
nodes = (
(226,40,o),
(124,160,o),
(124,348,cs),
(124,537,o),
(226,657,o),
(387,657,cs),
(547,657,o),
(650,537,o),
(650,348,cs),
(650,160,o),
(547,40,o),
(387,40,cs)
);
}
);
width = 774;
}
);
note = Odieresis.ss03;
},
{
glyphname = uni1ECC.ss03;
layers = (
{
hints = (
{
horizontal = 1;
place = (-166, 84);
place = (-166, 84);
type = Stem;
},
{
horizontal = 1;
place = (-8, 48);
place = (-8, 48);
type = Stem;
},
{
horizontal = 1;
place = (657, 48);
place = (657, 48);
type = Stem;
},
{
place = (73, 51);
place = (73, 51);
type = Stem;
},
{
place = (345, 84);
place = (345, 84);
type = Stem;
},
{
place = (650, 51);
place = (650, 51);
type = Stem;
}
);
layerId = m01;
shapes = (
{
closed = 1;
nodes = (
(576,-8,o),
(701,133,o),
(701,348,cs),
(701,563,o),
(575,705,o),
(387,705,cs),
(198,705,o),
(73,564,o),
(73,348,cs),
(73,133,o),
(198,-8,o),
(387,-8,cs)
);
},
{
closed = 1;
nodes = (
(226,40,o),
(124,160,o),
(124,348,cs),
(124,537,o),
(226,657,o),
(387,657,cs),
(547,657,o),
(650,537,o),
(650,348,cs),
(650,160,o),
(547,40,o),
(387,40,cs)
);
},
{
closed = 1;
nodes = (
(410,-166,o),
(429,-147,o),
(429,-124,cs),
(429,-100,o),
(410,-82,o),
(387,-82,cs),
(363,-82,o),
(345,-100,o),
(345,-124,cs),
(345,-147,o),
(364,-166,o),
(387,-166,cs)
);
}
);
width = 774;
}
);
note = uni1ECC.ss03;
},
{
glyphname = uni1EE2.ss03;
layers = (
{
hints = (
{
horizontal = 1;
place = (-166, 84);
place = (-166, 84);
type = Stem;
},
{
horizontal = 1;
place = (-8, 48);
place = (-8, 48);
type = Stem;
},
{
horizontal = 1;
place = (500, -20);
target = down;
type = TopGhost;
},
{
horizontal = 1;
place = (697, -20);
target = down;
type = TopGhost;
},
{
place = (73, 51);
place = (73, 51);
type = Stem;
},
{
place = (650, 51);
place = (650, 51);
type = Stem;
},
{
place = (738, 39);
place = (738, 39);
type = Stem;
},
{
horizontal = 1;
place = (657, 48);
place = (657, 48);
type = Stem;
},
{
place = (345, 84);
place = (345, 84);
type = Stem;
}
);
layerId = m01;
shapes = (
{
closed = 1;
nodes = (
(738,697,l),
(738,642,ls),
(738,581,o),
(716,541,o),
(662,534,c),
(611,641,o),
(513,705,o),
(387,705,cs),
(198,705,o),
(73,564,o),
(73,348,cs),
(73,133,o),
(198,-8,o),
(387,-8,cs),
(576,-8,o),
(701,133,o),
(701,348,cs),
(701,404,o),
(692,455,o),
(676,500,c),
(746,512,o),
(777,565,o),
(777,646,cs),
(777,697,l)
);
},
{
closed = 1;
nodes = (
(226,40,o),
(124,160,o),
(124,348,cs),
(124,537,o),
(226,657,o),
(387,657,cs),
(547,657,o),
(650,537,o),
(650,348,cs),
(650,160,o),
(547,40,o),
(387,40,cs)
);
},
{
closed = 1;
nodes = (
(363,-82,o),
(345,-100,o),
(345,-124,cs),
(345,-147,o),
(364,-166,o),
(387,-166,cs),
(410,-166,o),
(429,-147,o),
(429,-124,cs),
(429,-100,o),
(410,-82,o),
(387,-82,cs)
);
}
);
width = 774;
}
);
note = uni1EE2.ss03;
},
{
glyphname = Udieresis.ss03;
kernLeft = U;
layers = (
{
hints = (
{
horizontal = 1;
place = (-8, 50);
place = (-8, 50);
type = Stem;
},
{
horizontal = 1;
place = (697, -20);
target = down;
type = TopGhost;
},
{
horizontal = 1;
place = (823, 84);
place = (823, 84);
type = Stem;
},
{
place = (105, 50);
place = (105, 50);
type = Stem;
},
{
place = (217, 84);
place = (217, 84);
type = Stem;
},
{
place = (398, 84);
place = (398, 84);
type = Stem;
},
{
place = (543, 51);
place = (543, 51);
type = Stem;
}
);
layerId = m01;
shapes = (
{
closed = 1;
nodes = (
(282,823,o),
(301,842,o),
(301,865,cs),
(301,889,o),
(282,907,o),
(259,907,cs),
(235,907,o),
(217,889,o),
(217,865,cs),
(217,842,o),
(236,823,o),
(259,823,cs)
);
},
{
closed = 1;
nodes = (
(464,823,o),
(482,842,o),
(482,865,cs),
(482,889,o),
(464,907,o),
(440,907,cs),
(416,907,o),
(398,889,o),
(398,865,cs),
(398,842,o),
(417,823,o),
(440,823,cs)
);
},
{
closed = 1;
nodes = (
(507,-8,o),
(594,84,o),
(594,257,cs),
(594,697,l),
(543,697,l),
(543,260,ls),
(543,115,o),
(478,42,o),
(348,42,cs),
(220,42,o),
(155,114,o),
(155,257,cs),
(155,697,l),
(105,697,l),
(105,252,ls),
(105,83,o),
(191,-8,o),
(348,-8,cs)
);
}
);
width = 698;
}
);
note = Udieresis.ss03;
},
{
glyphname = uni01D7.ss03;
kernLeft = U;
layers = (
{
hints = (
{
horizontal = 1;
place = (-8, 50);
place = (-8, 50);
type = Stem;
},
{
horizontal = 1;
place = (697, -20);
target = down;
type = TopGhost;
},
{
horizontal = 1;
place = (823, 84);
place = (823, 84);
type = Stem;
},
{
horizontal = 1;
place = (971, 140);
place = (971, 140);
type = Stem;
},
{
place = (105, 50);
place = (105, 50);
type = Stem;
},
{
place = (217, 84);
place = (217, 84);
type = Stem;
},
{
place = (398, 84);
place = (398, 84);
type = Stem;
},
{
place = (543, 51);
place = (543, 51);
type = Stem;
}
);
layerId = m01;
shapes = (
{
closed = 1;
nodes = (
(330,971,l),
(370,971,l),
(490,1111,l),
(437,1111,l)
);
},
{
closed = 1;
nodes = (
(282,823,o),
(301,842,o),
(301,865,cs),
(301,889,o),
(282,907,o),
(259,907,cs),
(235,907,o),
(217,889,o),
(217,865,cs),
(217,842,o),
(236,823,o),
(259,823,cs)
);
},
{
closed = 1;
nodes = (
(464,823,o),
(482,842,o),
(482,865,cs),
(482,889,o),
(464,907,o),
(440,907,cs),
(416,907,o),
(398,889,o),
(398,865,cs),
(398,842,o),
(417,823,o),
(440,823,cs)
);
},
{
closed = 1;
nodes = (
(507,-8,o),
(594,84,o),
(594,257,cs),
(594,697,l),
(543,697,l),
(543,260,ls),
(543,115,o),
(478,42,o),
(348,42,cs),
(220,42,o),
(155,114,o),
(155,257,cs),
(155,697,l),
(105,697,l),
(105,252,ls),
(105,83,o),
(191,-8,o),
(348,-8,cs)
);
}
);
width = 698;
}
);
note = uni01D7.ss03;
},
{
glyphname = uni01D9.ss03;
kernLeft = U;
layers = (
{
hints = (
{
horizontal = 1;
place = (-8, 50);
place = (-8, 50);
type = Stem;
},
{
horizontal = 1;
place = (697, -20);
target = down;
type = TopGhost;
},
{
horizontal = 1;
place = (823, 84);
place = (823, 84);
type = Stem;
},
{
place = (105, 50);
place = (105, 50);
type = Stem;
},
{
place = (217, 84);
place = (217, 84);
type = Stem;
},
{
place = (398, 84);
place = (398, 84);
type = Stem;
},
{
place = (543, 51);
place = (543, 51);
type = Stem;
}
);
layerId = m01;
shapes = (
{
closed = 1;
nodes = (
(350,962,l),
(496,1111,l),
(453,1111,l),
(350,1006,l),
(247,1111,l),
(203,1111,l)
);
},
{
closed = 1;
nodes = (
(282,823,o),
(301,842,o),
(301,865,cs),
(301,889,o),
(282,907,o),
(259,907,cs),
(235,907,o),
(217,889,o),
(217,865,cs),
(217,842,o),
(236,823,o),
(259,823,cs)
);
},
{
closed = 1;
nodes = (
(464,823,o),
(482,842,o),
(482,865,cs),
(482,889,o),
(464,907,o),
(440,907,cs),
(416,907,o),
(398,889,o),
(398,865,cs),
(398,842,o),
(417,823,o),
(440,823,cs)
);
},
{
closed = 1;
nodes = (
(507,-8,o),
(594,84,o),
(594,257,cs),
(594,697,l),
(543,697,l),
(543,260,ls),
(543,115,o),
(478,42,o),
(348,42,cs),
(220,42,o),
(155,114,o),
(155,257,cs),
(155,697,l),
(105,697,l),
(105,252,ls),
(105,83,o),
(191,-8,o),
(348,-8,cs)
);
}
);
width = 698;
}
);
note = uni01D9.ss03;
},
{
glyphname = uni01DB.ss03;
kernLeft = U;
layers = (
{
hints = (
{
horizontal = 1;
place = (-8, 50);
place = (-8, 50);
type = Stem;
},
{
horizontal = 1;
place = (697, -20);
target = down;
type = TopGhost;
},
{
horizontal = 1;
place = (823, 84);
place = (823, 84);
type = Stem;
},
{
horizontal = 1;
place = (971, 140);
place = (971, 140);
type = Stem;
},
{
place = (105, 50);
place = (105, 50);
type = Stem;
},
{
place = (217, 84);
place = (217, 84);
type = Stem;
},
{
place = (398, 84);
place = (398, 84);
type = Stem;
},
{
place = (543, 51);
place = (543, 51);
type = Stem;
}
);
layerId = m01;
shapes = (
{
closed = 1;
nodes = (
(329,971,l),
(369,971,l),
(265,1111,l),
(212,1111,l)
);
},
{
closed = 1;
nodes = (
(282,823,o),
(301,842,o),
(301,865,cs),
(301,889,o),
(282,907,o),
(259,907,cs),
(235,907,o),
(217,889,o),
(217,865,cs),
(217,842,o),
(236,823,o),
(259,823,cs)
);
},
{
closed = 1;
nodes = (
(464,823,o),
(482,842,o),
(482,865,cs),
(482,889,o),
(464,907,o),
(440,907,cs),
(416,907,o),
(398,889,o),
(398,865,cs),
(398,842,o),
(417,823,o),
(440,823,cs)
);
},
{
closed = 1;
nodes = (
(507,-8,o),
(594,84,o),
(594,257,cs),
(594,697,l),
(543,697,l),
(543,260,ls),
(543,115,o),
(478,42,o),
(348,42,cs),
(220,42,o),
(155,114,o),
(155,257,cs),
(155,697,l),
(105,697,l),
(105,252,ls),
(105,83,o),
(191,-8,o),
(348,-8,cs)
);
}
);
width = 698;
}
);
note = uni01DB.ss03;
},
{
glyphname = uni01D5.ss03;
kernLeft = U;
layers = (
{
hints = (
{
horizontal = 1;
place = (-8, 50);
place = (-8, 50);
type = Stem;
},
{
horizontal = 1;
place = (697, -20);
target = down;
type = TopGhost;
},
{
horizontal = 1;
place = (823, 84);
place = (823, 84);
type = Stem;
},
{
horizontal = 1;
place = (1026, 31);
place = (1026, 31);
type = Stem;
},
{
place = (105, 50);
place = (105, 50);
type = Stem;
},
{
place = (217, 84);
place = (217, 84);
type = Stem;
},
{
place = (398, 84);
place = (398, 84);
type = Stem;
},
{
place = (543, 51);
place = (543, 51);
type = Stem;
}
);
layerId = m01;
shapes = (
{
closed = 1;
nodes = (
(215,1026,l),
(483,1026,l),
(483,1057,l),
(215,1057,l)
);
},
{
closed = 1;
nodes = (
(282,823,o),
(301,842,o),
(301,865,cs),
(301,889,o),
(282,907,o),
(259,907,cs),
(235,907,o),
(217,889,o),
(217,865,cs),
(217,842,o),
(236,823,o),
(259,823,cs)
);
},
{
closed = 1;
nodes = (
(464,823,o),
(482,842,o),
(482,865,cs),
(482,889,o),
(464,907,o),
(440,907,cs),
(416,907,o),
(398,889,o),
(398,865,cs),
(398,842,o),
(417,823,o),
(440,823,cs)
);
},
{
closed = 1;
nodes = (
(507,-8,o),
(594,84,o),
(594,257,cs),
(594,697,l),
(543,697,l),
(543,260,ls),
(543,115,o),
(478,42,o),
(348,42,cs),
(220,42,o),
(155,114,o),
(155,257,cs),
(155,697,l),
(105,697,l),
(105,252,ls),
(105,83,o),
(191,-8,o),
(348,-8,cs)
);
}
);
width = 698;
}
);
note = uni01D5.ss03;
},
{
glyphname = uni1EE4.ss03;
kernLeft = U;
layers = (
{
hints = (
{
horizontal = 1;
place = (-166, 84);
place = (-166, 84);
type = Stem;
},
{
horizontal = 1;
place = (-8, 50);
place = (-8, 50);
type = Stem;
},
{
horizontal = 1;
place = (697, -20);
target = down;
type = TopGhost;
},
{
place = (105, 50);
place = (105, 50);
type = Stem;
},
{
place = (308, 84);
place = (308, 84);
type = Stem;
},
{
place = (543, 51);
place = (543, 51);
type = Stem;
}
);
layerId = m01;
shapes = (
{
closed = 1;
nodes = (
(507,-8,o),
(594,84,o),
(594,257,cs),
(594,697,l),
(543,697,l),
(543,260,ls),
(543,115,o),
(478,42,o),
(348,42,cs),
(220,42,o),
(155,114,o),
(155,257,cs),
(155,697,l),
(105,697,l),
(105,252,ls),
(105,83,o),
(191,-8,o),
(348,-8,cs)
);
},
{
closed = 1;
nodes = (
(373,-166,o),
(392,-147,o),
(392,-124,cs),
(392,-100,o),
(373,-82,o),
(350,-82,cs),
(326,-82,o),
(308,-100,o),
(308,-124,cs),
(308,-147,o),
(327,-166,o),
(350,-166,cs)
);
}
);
width = 698;
}
);
note = uni1EE4.ss03;
},
{
glyphname = uni1EF0.ss03;
kernLeft = U;
layers = (
{
hints = (
{
horizontal = 1;
place = (-166, 84);
place = (-166, 84);
type = Stem;
},
{
horizontal = 1;
place = (-8, 50);
place = (-8, 50);
type = Stem;
},
{
horizontal = 1;
place = (498, 35);
place = (498, 35);
type = Stem;
},
{
horizontal = 1;
place = (697, -20);
target = down;
type = TopGhost;
},
{
place = (105, 50);
place = (105, 50);
type = Stem;
},
{
place = (308, 84);
place = (308, 84);
type = Stem;
},
{
place = (543, 51);
place = (543, 51);
type = Stem;
},
{
place = (681, 39);
place = (681, 39);
type = Stem;
}
);
layerId = m01;
shapes = (
{
closed = 1;
nodes = (
(681,697,l),
(681,642,ls),
(681,577,o),
(656,535,o),
(594,533,c),
(594,697,l),
(543,697,l),
(543,260,ls),
(543,115,o),
(478,42,o),
(348,42,cs),
(220,42,o),
(155,114,o),
(155,257,cs),
(155,697,l),
(105,697,l),
(105,252,ls),
(105,83,o),
(191,-8,o),
(348,-8,cs),
(507,-8,o),
(594,84,o),
(594,257,cs),
(594,498,l),
(681,500,o),
(720,556,o),
(720,646,cs),
(720,697,l)
);
},
{
closed = 1;
nodes = (
(326,-82,o),
(308,-100,o),
(308,-124,cs),
(308,-147,o),
(327,-166,o),
(350,-166,cs),
(373,-166,o),
(392,-147,o),
(392,-124,cs),
(392,-100,o),
(373,-82,o),
(350,-82,cs)
);
}
);
width = 698;
}
);
note = uni1EF0.ss03;
},
{
glyphname = Wdieresis.ss03;
kernLeft = W;
kernRight = W;
layers = (
{
hints = (
{
horizontal = 1;
place = (0, 21);
target = up;
type = BottomGhost;
},
{
horizontal = 1;
place = (697, -20);
target = down;
type = TopGhost;
},
{
horizontal = 1;
place = (823, 84);
place = (823, 84);
type = Stem;
},
{
place = (357, 84);
place = (357, 84);
type = Stem;
},
{
place = (538, 84);
place = (538, 84);
type = Stem;
},
{
horizontal = 1;
place = (0, 74);
place = (0, 74);
type = Stem;
}
);
layerId = m01;
shapes = (
{
closed = 1;
nodes = (
(422,823,o),
(441,842,o),
(441,865,cs),
(441,889,o),
(422,907,o),
(399,907,cs),
(375,907,o),
(357,889,o),
(357,865,cs),
(357,842,o),
(376,823,o),
(399,823,cs)
);
},
{
closed = 1;
nodes = (
(604,823,o),
(622,842,o),
(622,865,cs),
(622,889,o),
(604,907,o),
(580,907,cs),
(556,907,o),
(538,889,o),
(538,865,cs),
(538,842,o),
(557,823,o),
(580,823,cs)
);
},
{
closed = 1;
nodes = (
(248,0,l),
(301,0,l),
(489,580,l),
(676,0,l),
(730,0,l),
(929,697,l),
(875,697,l),
(700,74,l),
(512,661,l),
(466,661,l),
(277,74,l),
(102,697,l),
(49,697,l)
);
}
);
width = 978;
}
);
note = Wdieresis.ss03;
},
{
glyphname = Ydieresis.ss03;
kernLeft = Y;
kernRight = Y;
layers = (
{
hints = (
{
horizontal = 1;
place = (0, 21);
target = up;
type = BottomGhost;
},
{
horizontal = 1;
place = (697, -20);
target = down;
type = TopGhost;
},
{
horizontal = 1;
place = (823, 84);
place = (823, 84);
type = Stem;
},
{
place = (198, 84);
place = (198, 84);
type = Stem;
},
{
place = (304, 52);
place = (304, 52);
type = Stem;
},
{
place = (379, 84);
place = (379, 84);
type = Stem;
}
);
layerId = m01;
shapes = (
{
closed = 1;
nodes = (
(263,823,o),
(282,842,o),
(282,865,cs),
(282,889,o),
(263,907,o),
(240,907,cs),
(216,907,o),
(198,889,o),
(198,865,cs),
(198,842,o),
(217,823,o),
(240,823,cs)
);
},
{
closed = 1;
nodes = (
(445,823,o),
(463,842,o),
(463,865,cs),
(463,889,o),
(445,907,o),
(421,907,cs),
(397,907,o),
(379,889,o),
(379,865,cs),
(379,842,o),
(398,823,o),
(421,823,cs)
);
},
{
closed = 1;
nodes = (
(304,0,l),
(356,0,l),
(356,265,l),
(623,697,l),
(562,697,l),
(329,315,l),
(98,697,l),
(38,697,l),
(304,265,l)
);
}
);
width = 661;
}
);
note = Ydieresis.ss03;
},
{
glyphname = uni1EF4.ss03;
kernLeft = Y;
kernRight = Y;
layers = (
{
hints = (
{
horizontal = 1;
place = (-166, 84);
place = (-166, 84);
type = Stem;
},
{
horizontal = 1;
place = (0, 21);
target = up;
type = BottomGhost;
},
{
horizontal = 1;
place = (697, -20);
target = down;
type = TopGhost;
},
{
place = (304, 52);
place = (304, 52);
type = Stem;
},
{
place = (289, 84);
place = (289, 84);
type = Stem;
}
);
layerId = m01;
shapes = (
{
closed = 1;
nodes = (
(304,0,l),
(356,0,l),
(356,265,l),
(623,697,l),
(562,697,l),
(329,315,l),
(98,697,l),
(38,697,l),
(304,265,l)
);
},
{
closed = 1;
nodes = (
(354,-166,o),
(373,-147,o),
(373,-124,cs),
(373,-100,o),
(354,-82,o),
(331,-82,cs),
(307,-82,o),
(289,-100,o),
(289,-124,cs),
(289,-147,o),
(308,-166,o),
(331,-166,cs)
);
}
);
width = 661;
}
);
note = uni1EF4.ss03;
},
{
glyphname = Zdotaccent.ss03;
kernLeft = Z;
kernRight = Z;
layers = (
{
hints = (
{
horizontal = 1;
place = (0, 47);
place = (0, 47);
type = Stem;
},
{
horizontal = 1;
place = (650, 47);
place = (650, 47);
type = Stem;
},
{
horizontal = 1;
place = (823, 84);
place = (823, 84);
type = Stem;
},
{
place = (283, 84);
place = (283, 84);
type = Stem;
}
);
layerId = m01;
shapes = (
{
closed = 1;
nodes = (
(348,823,o),
(367,842,o),
(367,865,cs),
(367,889,o),
(348,907,o),
(325,907,cs),
(301,907,o),
(283,889,o),
(283,865,cs),
(283,842,o),
(302,823,o),
(325,823,cs)
);
},
{
closed = 1;
nodes = (
(595,697,l),
(73,697,l),
(73,650,l),
(531,650,l),
(50,41,l),
(50,0,l),
(593,0,l),
(593,47,l),
(115,47,l),
(595,655,l)
);
}
);
width = 650;
}
);
note = Zdotaccent.ss03;
},
{
glyphname = a;
kernLeft = a;
kernRight = a;
lastChange = "2022-12-21 16:27:49 +0000";
layers = (
{
hints = (
{
horizontal = 1;
place = (-7, 41);
place = (-7, 41);
type = Stem;
},
{
horizontal = 1;
place = (240, 41);
place = (240, 41);
type = Stem;
},
{
horizontal = 1;
place = (456, 44);
place = (456, 44);
type = Stem;
},
{
place = (48, 50);
place = (48, 50);
type = Stem;
},
{
place = (400, 50);
place = (400, 50);
type = Stem;
},
{
place = (402.5, 47.5);
place = (402.5, 47.5);
type = Stem;
},
{
horizontal = 1;
place = (0, 21);
target = up;
type = BottomGhost;
}
);
layerId = m01;
shapes = (
{
closed = 1;
nodes = (
(183,500,o),
(125,473,o),
(76,413,cs),
(70,406,o),
(70,398,o),
(77,392,cs),
(102,371,l),
(144,429,o),
(193,456,o),
(259,456,cs),
(352,456,o),
(400,404,o),
(400,306,cs),
(400,281,l),
(283,281,ls),
(196,281,o),
(143,271,o),
(105,249,cs),
(68,227,o),
(48,189,o),
(48,140,cs),
(48,48,o),
(110,-7,o),
(213,-7,cs),
(297,-7,o),
(364,30,o),
(401,95,c),
(409,0,l),
(434,0,l),
(450,34,l),
(450,306,ls),
(450,431,o),
(381,500,o),
(259,500,cs)
);
},
{
closed = 1;
nodes = (
(148,34,o),
(98,75,o),
(98,138,cs),
(98,171,o),
(110,197,o),
(134,213,cs),
(161,232,o),
(205,240,o),
(287,240,cs),
(400,240,l),
(400,220,ls),
(400,109,o),
(330,34,o),
(227,34,cs)
);
}
);
width = 531;
}
);
note = a;
unicode = 97;
},
{
glyphname = aacute;
kernLeft = a;
kernRight = a;
layers = (
{
hints = (
{
horizontal = 1;
place = (-7, 41);
place = (-7, 41);
type = Stem;
},
{
horizontal = 1;
place = (240, 41);
place = (240, 41);
type = Stem;
},
{
horizontal = 1;
place = (456, 44);
place = (456, 44);
type = Stem;
},
{
horizontal = 1;
place = (697, -20);
target = down;
type = TopGhost;
},
{
place = (48, 50);
place = (48, 50);
type = Stem;
},
{
place = (400, 50);
place = (400, 50);
type = Stem;
},
{
horizontal = 1;
place = (557, 140);
place = (557, 140);
type = Stem;
},
{
place = (402.5, 47.5);
place = (402.5, 47.5);
type = Stem;
},
{
horizontal = 1;
place = (0, 21);
target = up;
type = BottomGhost;
}
);
layerId = m01;
shapes = (
{
closed = 1;
nodes = (
(404,697,l),
(351,697,l),
(244,557,l),
(284,557,l)
);
},
{
closed = 1;
nodes = (
(178,500,o),
(117,469,o),
(66,401,c),
(102,371,l),
(144,429,o),
(193,456,o),
(259,456,cs),
(352,456,o),
(400,404,o),
(400,306,cs),
(400,281,l),
(283,281,ls),
(196,281,o),
(143,271,o),
(105,249,cs),
(68,227,o),
(48,189,o),
(48,140,cs),
(48,48,o),
(110,-7,o),
(213,-7,cs),
(297,-7,o),
(364,30,o),
(401,95,c),
(404,0,l),
(450,0,l),
(450,306,ls),
(450,431,o),
(381,500,o),
(259,500,cs)
);
},
{
closed = 1;
nodes = (
(148,34,o),
(98,75,o),
(98,138,cs),
(98,171,o),
(110,197,o),
(134,213,cs),
(161,232,o),
(205,240,o),
(287,240,cs),
(400,240,l),
(400,220,ls),
(400,109,o),
(330,34,o),
(227,34,cs)
);
}
);
width = 531;
}
);
note = aacute;
unicode = 225;
},
{
glyphname = abreve;
kernLeft = a;
kernRight = a;
layers = (
{
hints = (
{
horizontal = 1;
place = (-7, 41);
place = (-7, 41);
type = Stem;
},
{
horizontal = 1;
place = (240, 41);
place = (240, 41);
type = Stem;
},
{
horizontal = 1;
place = (456, 44);
place = (456, 44);
type = Stem;
},
{
horizontal = 1;
place = (567, 31);
place = (567, 31);
type = Stem;
},
{
horizontal = 1;
place = (697, -20);
target = down;
type = TopGhost;
},
{
place = (48, 50);
place = (48, 50);
type = Stem;
},
{
place = (114, 37);
place = (114, 37);
type = Stem;
},
{
place = (376, 36);
place = (376, 36);
type = Stem;
},
{
place = (400, 50);
place = (400, 50);
type = Stem;
},
{
place = (402.5, 47.5);
place = (402.5, 47.5);
type = Stem;
},
{
horizontal = 1;
place = (0, 21);
target = up;
type = BottomGhost;
}
);
layerId = m01;
shapes = (
{
closed = 1;
nodes = (
(359,567,o),
(412,611,o),
(412,697,c),
(376,697,l),
(376,633,o),
(335,598,o),
(263,598,cs),
(193,598,o),
(151,632,o),
(151,697,c),
(114,697,l),
(114,613,o),
(165,567,o),
(263,567,cs)
);
},
{
closed = 1;
nodes = (
(178,500,o),
(117,469,o),
(66,401,c),
(102,371,l),
(144,429,o),
(193,456,o),
(259,456,cs),
(352,456,o),
(400,404,o),
(400,306,cs),
(400,281,l),
(283,281,ls),
(196,281,o),
(143,271,o),
(105,249,cs),
(68,227,o),
(48,189,o),
(48,140,cs),
(48,48,o),
(110,-7,o),
(213,-7,cs),
(297,-7,o),
(364,30,o),
(401,95,c),
(404,0,l),
(450,0,l),
(450,306,ls),
(450,431,o),
(381,500,o),
(259,500,cs)
);
},
{
closed = 1;
nodes = (
(148,34,o),
(98,75,o),
(98,138,cs),
(98,171,o),
(110,197,o),
(134,213,cs),
(161,232,o),
(205,240,o),
(287,240,cs),
(400,240,l),
(400,220,ls),
(400,109,o),
(330,34,o),
(227,34,cs)
);
}
);
width = 531;
}
);
note = abreve;
unicode = 259;
},
{
glyphname = uni1EAF;
kernLeft = a;
kernRight = a;
layers = (
{
hints = (
{
horizontal = 1;
place = (-7, 41);
place = (-7, 41);
type = Stem;
},
{
horizontal = 1;
place = (240, 41);
place = (240, 41);
type = Stem;
},
{
horizontal = 1;
place = (456, 44);
place = (456, 44);
type = Stem;
},
{
horizontal = 1;
place = (567, 31);
place = (567, 31);
type = Stem;
},
{
horizontal = 1;
place = (697, -20);
target = down;
type = TopGhost;
},
{
horizontal = 1;
place = (761, 140);
place = (761, 140);
type = Stem;
},
{
place = (48, 50);
place = (48, 50);
type = Stem;
},
{
place = (400, 50);
place = (400, 50);
type = Stem;
},
{
place = (114, 37);
place = (114, 37);
type = Stem;
},
{
place = (376, 36);
place = (376, 36);
type = Stem;
},
{
place = (402.5, 47.5);
place = (402.5, 47.5);
type = Stem;
},
{
horizontal = 1;
place = (0, 21);
target = up;
type = BottomGhost;
}
);
layerId = m01;
shapes = (
{
closed = 1;
nodes = (
(404,901,l),
(351,901,l),
(244,761,l),
(284,761,l)
);
},
{
closed = 1;
nodes = (
(359,567,o),
(412,611,o),
(412,697,c),
(376,697,l),
(376,633,o),
(335,598,o),
(263,598,cs),
(193,598,o),
(151,632,o),
(151,697,c),
(114,697,l),
(114,613,o),
(165,567,o),
(263,567,cs)
);
},
{
closed = 1;
nodes = (
(178,500,o),
(117,469,o),
(66,401,c),
(102,371,l),
(144,429,o),
(193,456,o),
(259,456,cs),
(352,456,o),
(400,404,o),
(400,306,cs),
(400,281,l),
(283,281,ls),
(196,281,o),
(143,271,o),
(105,249,cs),
(68,227,o),
(48,189,o),
(48,140,cs),
(48,48,o),
(110,-7,o),
(213,-7,cs),
(297,-7,o),
(364,30,o),
(401,95,c),
(404,0,l),
(450,0,l),
(450,306,ls),
(450,431,o),
(381,500,o),
(259,500,cs)
);
},
{
closed = 1;
nodes = (
(148,34,o),
(98,75,o),
(98,138,cs),
(98,171,o),
(110,197,o),
(134,213,cs),
(161,232,o),
(205,240,o),
(287,240,cs),
(400,240,l),
(400,220,ls),
(400,109,o),
(330,34,o),
(227,34,cs)
);
}
);
width = 531;
}
);
note = uni1EAF;
unicode = 7855;
},
{
glyphname = uni1EB7;
kernLeft = a;
kernRight = a;
layers = (
{
hints = (
{
horizontal = 1;
place = (-173, 97);
place = (-173, 97);
type = Stem;
},
{
horizontal = 1;
place = (-7, 41);
place = (-7, 41);
type = Stem;
},
{
horizontal = 1;
place = (240, 41);
place = (240, 41);
type = Stem;
},
{
horizontal = 1;
place = (456, 44);
place = (456, 44);
type = Stem;
},
{
horizontal = 1;
place = (567, 31);
place = (567, 31);
type = Stem;
},
{
horizontal = 1;
place = (697, -20);
target = down;
type = TopGhost;
},
{
place = (48, 50);
place = (48, 50);
type = Stem;
},
{
place = (114, 37);
place = (114, 37);
type = Stem;
},
{
place = (235, 57);
place = (235, 57);
type = Stem;
},
{
place = (376, 36);
place = (376, 36);
type = Stem;
},
{
place = (400, 50);
place = (400, 50);
type = Stem;
},
{
place = (402.5, 47.5);
place = (402.5, 47.5);
type = Stem;
},
{
horizontal = 1;
place = (0, 21);
target = up;
type = BottomGhost;
}
);
layerId = m01;
shapes = (
{
closed = 1;
nodes = (
(359,567,o),
(412,611,o),
(412,697,c),
(376,697,l),
(376,633,o),
(335,598,o),
(263,598,cs),
(193,598,o),
(151,632,o),
(151,697,c),
(114,697,l),
(114,613,o),
(165,567,o),
(263,567,cs)
);
},
{
closed = 1;
nodes = (
(178,500,o),
(117,469,o),
(66,401,c),
(102,371,l),
(144,429,o),
(193,456,o),
(259,456,cs),
(352,456,o),
(400,404,o),
(400,306,cs),
(400,281,l),
(283,281,ls),
(196,281,o),
(143,271,o),
(105,249,cs),
(68,227,o),
(48,189,o),
(48,140,cs),
(48,48,o),
(110,-7,o),
(213,-7,cs),
(297,-7,o),
(364,30,o),
(401,95,c),
(404,0,l),
(450,0,l),
(450,306,ls),
(450,431,o),
(381,500,o),
(259,500,cs)
);
},
{
closed = 1;
nodes = (
(148,34,o),
(98,75,o),
(98,138,cs),
(98,171,o),
(110,197,o),
(134,213,cs),
(161,232,o),
(205,240,o),
(287,240,cs),
(400,240,l),
(400,220,ls),
(400,109,o),
(330,34,o),
(227,34,cs)
);
},
{
closed = 1;
nodes = (
(235,-173,l),
(292,-173,l),
(292,-76,l),
(235,-76,l)
);
}
);
width = 531;
}
);
note = uni1EB7;
unicode = 7863;
},
{
glyphname = uni1EB1;
kernLeft = a;
kernRight = a;
layers = (
{
hints = (
{
horizontal = 1;
place = (-7, 41);
place = (-7, 41);
type = Stem;
},
{
horizontal = 1;
place = (240, 41);
place = (240, 41);
type = Stem;
},
{
horizontal = 1;
place = (456, 44);
place = (456, 44);
type = Stem;
},
{
horizontal = 1;
place = (567, 31);
place = (567, 31);
type = Stem;
},
{
horizontal = 1;
place = (697, -20);
target = down;
type = TopGhost;
},
{
horizontal = 1;
place = (761, 140);
place = (761, 140);
type = Stem;
},
{
place = (48, 50);
place = (48, 50);
type = Stem;
},
{
place = (400, 50);
place = (400, 50);
type = Stem;
},
{
place = (114, 37);
place = (114, 37);
type = Stem;
},
{
place = (376, 36);
place = (376, 36);
type = Stem;
},
{
place = (402.5, 47.5);
place = (402.5, 47.5);
type = Stem;
},
{
horizontal = 1;
place = (0, 21);
target = up;
type = BottomGhost;
}
);
layerId = m01;
shapes = (
{
closed = 1;
nodes = (
(283,761,l),
(179,901,l),
(126,901,l),
(243,761,l)
);
},
{
closed = 1;
nodes = (
(359,567,o),
(412,611,o),
(412,697,c),
(376,697,l),
(376,633,o),
(335,598,o),
(263,598,cs),
(193,598,o),
(151,632,o),
(151,697,c),
(114,697,l),
(114,613,o),
(165,567,o),
(263,567,cs)
);
},
{
closed = 1;
nodes = (
(178,500,o),
(117,469,o),
(66,401,c),
(102,371,l),
(144,429,o),
(193,456,o),
(259,456,cs),
(352,456,o),
(400,404,o),
(400,306,cs),
(400,281,l),
(283,281,ls),
(196,281,o),
(143,271,o),
(105,249,cs),
(68,227,o),
(48,189,o),
(48,140,cs),
(48,48,o),
(110,-7,o),
(213,-7,cs),
(297,-7,o),
(364,30,o),
(401,95,c),
(404,0,l),
(450,0,l),
(450,306,ls),
(450,431,o),
(381,500,o),
(259,500,cs)
);
},
{
closed = 1;
nodes = (
(148,34,o),
(98,75,o),
(98,138,cs),
(98,171,o),
(110,197,o),
(134,213,cs),
(161,232,o),
(205,240,o),
(287,240,cs),
(400,240,l),
(400,220,ls),
(400,109,o),
(330,34,o),
(227,34,cs)
);
}
);
width = 531;
}
);
note = uni1EB1;
unicode = 7857;
},
